<svg width="89" height="38" viewBox="0 0 89 38" fill="none" xmlns="http://www.w3.org/2000/svg">
<rect width="89" height="38" rx="5" fill="#607D8B"/>
<path d="M25.2071 18.7447H23.4251V11.2207H25.2071V18.7447ZM16.2791 15.9367C15.7271 16.6567 15.0191 17.2507 14.1551 17.7187C13.2911 18.1747 12.3191 18.4627 11.2391 18.5827V17.1067C12.4871 16.9507 13.4951 16.5127 14.2631 15.7927C15.0431 15.0727 15.4991 14.1727 15.6311 13.0927H11.4371V11.6167H21.3911V13.0927H17.3951C17.3471 13.6447 17.2211 14.1727 17.0171 14.6767L21.8951 17.1067L21.1031 18.4027L16.2791 15.9367ZM25.5851 24.9907V26.3947H12.1931V22.3267H23.4431V20.9947H12.1571V19.5907H25.2071V23.6587H13.9571V24.9907H25.5851ZM42.4135 17.5567H29.2735V11.4007H42.4135V17.5567ZM40.6315 12.8767H31.0555V16.0807H40.6315V12.8767ZM43.5295 19.1047V20.6167H36.7435V23.2627H34.9435V20.6167H28.1755V19.1047H43.5295ZM31.0555 24.8827H42.7555V26.4127H29.2555V21.9307H31.0555V24.8827ZM51.718 13.6507H55.804V15.2347H45.832V13.6507H49.9V11.1847H51.718V13.6507ZM61.564 19.1587H59.404V26.5927H57.622V11.2207H59.404V17.4487H61.564V19.1587ZM50.818 16.4587C51.646 16.4587 52.384 16.6567 53.032 17.0527C53.68 17.4367 54.184 17.9887 54.544 18.7087C54.904 19.4167 55.084 20.2327 55.084 21.1567C55.084 22.0807 54.904 22.9027 54.544 23.6227C54.184 24.3307 53.68 24.8767 53.032 25.2607C52.384 25.6567 51.646 25.8547 50.818 25.8547C49.99 25.8547 49.252 25.6567 48.604 25.2607C47.956 24.8767 47.446 24.3307 47.074 23.6227C46.714 22.9027 46.534 22.0807 46.534 21.1567C46.534 20.2327 46.714 19.4167 47.074 18.7087C47.446 17.9887 47.956 17.4367 48.604 17.0527C49.252 16.6567 49.99 16.4587 50.818 16.4587ZM50.818 24.3067C51.298 24.3067 51.73 24.1807 52.114 23.9287C52.498 23.6767 52.798 23.3107 53.014 22.8307C53.242 22.3507 53.356 21.7927 53.356 21.1567C53.356 20.5207 53.242 19.9627 53.014 19.4827C52.798 19.0027 52.498 18.6367 52.114 18.3847C51.73 18.1327 51.298 18.0067 50.818 18.0067C50.074 18.0067 49.462 18.2947 48.982 18.8707C48.502 19.4347 48.262 20.1967 48.262 21.1567C48.262 22.1167 48.502 22.8847 48.982 23.4607C49.462 24.0247 50.074 24.3067 50.818 24.3067ZM75.3685 11.2207H77.1505V26.5927H75.3685V11.2207ZM63.5245 23.9467C64.9045 23.9467 66.0985 23.6047 67.1065 22.9207C68.1265 22.2247 68.9005 21.2467 69.4285 19.9867C69.9685 18.7147 70.2385 17.2267 70.2385 15.5227V13.4167H63.5245V11.7787H72.0565V15.4867C72.0565 17.5267 71.7085 19.3147 71.0125 20.8507C70.3285 22.3747 69.3385 23.5567 68.0425 24.3967C66.7585 25.2247 65.2525 25.6387 63.5245 25.6387V23.9467Z" fill="white"/>
</svg>
