<svg width="11" height="11" viewBox="0 0 11 11" fill="none" xmlns="http://www.w3.org/2000/svg">
<path fill-rule="evenodd" clip-rule="evenodd" d="M5.42757 2.69819e-09C5.60611 -1.27581e-05 5.78066 0.0452379 5.92923 0.130053C6.07781 0.214868 6.19377 0.335453 6.2625 0.476622L9.647 7.43608L9.66283 7.46863L10.7854 9.77696C10.8734 9.96598 10.8711 10.1771 10.779 10.3646C10.6869 10.5522 10.5123 10.7012 10.2931 10.7795C10.0738 10.8577 9.8274 10.859 9.60708 10.7829C9.38677 10.7068 9.21022 10.5596 9.11556 10.3729L8.21686 8.52495H2.63829L1.73958 10.3733C1.64722 10.563 1.47067 10.7135 1.24878 10.7917C1.02689 10.8699 0.777826 10.8694 0.556389 10.7903C0.334951 10.7111 0.159275 10.5599 0.0680077 10.3698C-0.0232599 10.1797 -0.0226428 9.96629 0.0697227 9.77657L1.19231 7.46863C1.19729 7.45755 1.20257 7.44657 1.20814 7.4357L4.59264 0.47701C4.66131 0.335768 4.77724 0.215101 4.92582 0.130214C5.0744 0.0453269 5.24898 1.91273e-05 5.42757 2.69819e-09ZM3.39226 6.97496H7.46289L5.42757 2.78998L3.39226 6.97496Z" fill="#E23131"/>
</svg>
