<svg width="46" height="15" viewBox="0 0 46 15" fill="none" xmlns="http://www.w3.org/2000/svg">
<path d="M29.6869 13.4604L29.0849 13.4601L29.0894 1.50414L29.6914 1.50437L29.6869 13.4604ZM22.9712 1.89386C23.6619 1.89411 24.2685 2.09501 24.791 2.49654C25.3135 2.89807 25.724 3.50955 26.0223 4.331C26.3207 5.14311 26.4697 6.1465 26.4692 7.34116C26.4688 8.53583 26.3191 9.54378 26.0201 10.365C25.7211 11.1769 25.3102 11.7834 24.7874 12.1845C24.2646 12.5857 23.6578 12.7861 22.9672 12.7859C22.2765 12.7856 21.6699 12.5847 21.1474 12.1832C20.6249 11.7816 20.2144 11.1748 19.9161 10.3627C19.6177 9.54127 19.4688 8.53322 19.4692 7.33855C19.4697 6.14388 19.6194 5.1406 19.9183 4.32872C20.2173 3.50749 20.6282 2.89631 21.151 2.49518C21.6738 2.09404 22.2806 1.8936 22.9712 1.89386ZM22.971 2.43986C22.411 2.43965 21.9116 2.62146 21.4728 2.9853C21.034 3.34913 20.6885 3.89967 20.4362 4.63691C20.1933 5.36482 20.0716 6.26544 20.0712 7.33877C20.0708 8.41211 20.1918 9.31749 20.4342 10.0549C20.6859 10.783 21.0311 11.3291 21.4696 11.6933C21.9081 12.0575 22.4074 12.2396 22.9674 12.2399C23.5274 12.2401 24.0221 12.0583 24.4516 11.6944C24.8904 11.3306 25.2359 10.7847 25.4882 10.0568C25.7405 9.31956 25.8668 8.41427 25.8672 7.34094C25.8676 6.26761 25.7419 5.36689 25.4902 4.6388C25.2385 3.90137 24.8934 3.35058 24.4548 2.98641C24.0256 2.62225 23.531 2.44007 22.971 2.43986ZM42.667 4.57522L42.6682 1.50922L43.2562 1.50944L43.2529 10.4274L42.6649 10.4272L42.6668 5.10722L39.7688 5.10613L39.769 4.57413L42.667 4.57522ZM36.4227 5.41288C36.0677 6.29009 35.5588 6.99456 34.8959 7.52631C34.2424 8.05807 33.4629 8.40311 32.5576 8.56144L32.5578 8.00144C33.7245 7.78721 34.6441 7.20889 35.3164 6.26647C35.9888 5.31472 36.3439 4.05952 36.3818 2.50087L32.6998 2.49949L32.7 1.95349L40.344 1.95635L40.3438 2.50235L36.9698 2.50109C36.9415 3.38774 36.8245 4.1717 36.6189 4.85296L40.5658 8.00443L40.2296 8.46631L36.4227 5.41288ZM43.588 12.6396L43.5878 13.1856L33.5078 13.1818L33.5091 9.6958L34.0971 9.69602L34.096 12.636L43.588 12.6396Z" fill="#607D8B"/>
<path fill-rule="evenodd" clip-rule="evenodd" d="M15 7.37945C15 7.5452 14.9436 7.70416 14.8431 7.82137C14.7426 7.93857 14.6064 8.00441 14.4643 8.00441L1.82977 8.00441L5.20134 11.9367C5.30193 12.054 5.35843 12.2132 5.35843 12.3791C5.35843 12.5451 5.30193 12.7043 5.20134 12.8216C5.10075 12.939 4.96433 13.0049 4.82208 13.0049C4.67983 13.0049 4.5434 12.939 4.44282 12.8216L0.157376 7.82192C0.10749 7.76387 0.0679123 7.6949 0.0409071 7.61898C0.0139019 7.54305 8.42232e-07 7.46166 8.49419e-07 7.37945C8.56605e-07 7.29725 0.0139019 7.21585 0.0409071 7.13993C0.0679123 7.064 0.10749 6.99503 0.157376 6.93698L4.44282 1.9373C4.5434 1.81995 4.67983 1.75402 4.82208 1.75402C4.96433 1.75402 5.10075 1.81995 5.20134 1.9373C5.30193 2.05465 5.35844 2.21381 5.35844 2.37977C5.35844 2.54573 5.30193 2.70489 5.20134 2.82224L1.82977 6.75449L14.4643 6.75449C14.6064 6.75449 14.7426 6.82034 14.8431 6.93754C14.9436 7.05474 15 7.2137 15 7.37945Z" fill="#607D8B"/>
</svg>
