<svg width="29" height="29" viewBox="0 0 29 29" fill="none" xmlns="http://www.w3.org/2000/svg">
<path d="M25.6016 2.26562H24.2422V0H21.9766V2.26562H7.02344V0H4.75781V2.26562H3.39844C1.52454 2.26562 0 3.79016 0 5.66406V25.6016C0 27.4755 1.52454 29 3.39844 29H25.6016C27.4755 29 29 27.4755 29 25.6016V5.66406C29 3.79016 27.4755 2.26562 25.6016 2.26562ZM26.7344 25.6016C26.7344 26.2262 26.2262 26.7344 25.6016 26.7344H3.39844C2.7738 26.7344 2.26562 26.2262 2.26562 25.6016V10.6484H26.7344V25.6016ZM26.7344 8.38281H2.26562V5.66406C2.26562 5.03943 2.7738 4.53125 3.39844 4.53125H4.75781V6.79688H7.02344V4.53125H21.9766V6.79688H24.2422V4.53125H25.6016C26.2262 4.53125 26.7344 5.03943 26.7344 5.66406V8.38281Z" fill="black"/>
<path d="M6.57031 13.0273H4.30469V15.293H6.57031V13.0273Z" fill="black"/>
<path d="M11.1016 13.0273H8.83594V15.293H11.1016V13.0273Z" fill="black"/>
<path d="M15.6328 13.0273H13.3672V15.293H15.6328V13.0273Z" fill="black"/>
<path d="M20.1641 13.0273H17.8984V15.293H20.1641V13.0273Z" fill="black"/>
<path d="M24.6953 13.0273H22.4297V15.293H24.6953V13.0273Z" fill="black"/>
<path d="M6.57031 17.5586H4.30469V19.8242H6.57031V17.5586Z" fill="black"/>
<path d="M11.1016 17.5586H8.83594V19.8242H11.1016V17.5586Z" fill="black"/>
<path d="M15.6328 17.5586H13.3672V19.8242H15.6328V17.5586Z" fill="black"/>
<path d="M20.1641 17.5586H17.8984V19.8242H20.1641V17.5586Z" fill="black"/>
<path d="M6.57031 22.0898H4.30469V24.3555H6.57031V22.0898Z" fill="black"/>
<path d="M11.1016 22.0898H8.83594V24.3555H11.1016V22.0898Z" fill="black"/>
<path d="M15.6328 22.0898H13.3672V24.3555H15.6328V22.0898Z" fill="black"/>
<path d="M20.1641 22.0898H17.8984V24.3555H20.1641V22.0898Z" fill="black"/>
<path d="M24.6953 17.5586H22.4297V19.8242H24.6953V17.5586Z" fill="black"/>
</svg>
