<svg width="46" height="15" viewBox="0 0 46 15" fill="none" xmlns="http://www.w3.org/2000/svg">
<path d="M22.7318 5.70177C22.3769 6.28964 21.8868 6.78412 21.2613 7.18522C20.6451 7.57699 19.9217 7.85672 19.091 8.02441L19.0912 7.46441C20.1832 7.24082 21.0514 6.78847 21.6957 6.10738C22.3493 5.41696 22.7089 4.57709 22.7746 3.58778L19.3306 3.5865L19.3308 3.0405L22.7888 3.04179L22.7895 1.27779L23.3775 1.27801L23.3768 3.04201L26.8208 3.0433L26.8206 3.5893L23.3626 3.588C23.3344 4.17599 23.2129 4.71261 22.998 5.19787L27.1411 7.53742L26.861 8.02731L22.7318 5.70177ZM29.7194 1.50438L29.7149 13.4604L29.1269 13.4602L29.1314 1.50416L29.7194 1.50438ZM23.2764 9.56597C25.4604 9.56679 26.9864 9.39936 27.8546 9.06368L27.8544 9.62368C26.9022 9.94999 25.3902 10.1128 23.3182 10.112L23.2762 10.112L23.2749 13.458L22.6869 13.4578L22.6882 10.1118L18.8382 10.1103L18.8384 9.56431L23.2764 9.56597ZM37.9769 4.93747C37.3045 6.09455 36.4828 7.01824 35.5119 7.70854C34.5503 8.39885 33.5562 8.74381 32.5295 8.74343L32.5297 8.18343C33.4257 8.18376 34.2891 7.88542 35.12 7.2884C35.9603 6.68205 36.6839 5.87965 37.2909 4.88121C37.898 3.87344 38.3324 2.79093 38.5941 1.6337L39.2101 1.78793C39.0044 2.71185 38.6821 3.60306 38.2431 4.46156L43.6316 8.34158L43.2675 8.76144L37.9769 4.93747ZM44.1062 12.2198L44.106 12.7658L32.29 12.7613L32.2902 12.2153L37.8902 12.2174L37.8917 8.28343L38.4797 8.28365L38.4782 12.2177L44.1062 12.2198Z" fill="#607D8B"/>
<path fill-rule="evenodd" clip-rule="evenodd" d="M15 7.37945C15 7.5452 14.9436 7.70416 14.8431 7.82137C14.7426 7.93857 14.6064 8.00441 14.4643 8.00441L1.82977 8.00441L5.20134 11.9367C5.30193 12.054 5.35843 12.2132 5.35843 12.3791C5.35843 12.5451 5.30193 12.7043 5.20134 12.8216C5.10075 12.939 4.96433 13.0049 4.82208 13.0049C4.67983 13.0049 4.5434 12.939 4.44282 12.8216L0.157376 7.82192C0.10749 7.76387 0.0679123 7.6949 0.0409071 7.61898C0.0139019 7.54305 8.42232e-07 7.46166 8.49419e-07 7.37945C8.56605e-07 7.29725 0.0139019 7.21585 0.0409071 7.13993C0.0679123 7.064 0.10749 6.99503 0.157376 6.93698L4.44282 1.9373C4.5434 1.81995 4.67983 1.75402 4.82208 1.75402C4.96433 1.75402 5.10075 1.81995 5.20134 1.9373C5.30193 2.05465 5.35844 2.21381 5.35844 2.37977C5.35844 2.54573 5.30193 2.70489 5.20134 2.82224L1.82977 6.75449L14.4643 6.75449C14.6064 6.75449 14.7426 6.82034 14.8431 6.93754C14.9436 7.05474 15 7.2137 15 7.37945Z" fill="#607D8B"/>
</svg>
