<svg width="206" height="27" viewBox="0 0 206 27" fill="none" xmlns="http://www.w3.org/2000/svg">
<path d="M39.26 2.889V4.124H37.7V8.492H36.413V0.249999H37.7V2.889H39.26ZM34.567 3.591C34.567 4.215 34.424 4.76967 34.138 5.255C33.8607 5.74033 33.462 6.12167 32.942 6.399C32.422 6.67633 31.811 6.815 31.109 6.815C30.407 6.815 29.7917 6.67633 29.263 6.399C28.743 6.12167 28.34 5.74033 28.054 5.255C27.7767 4.761 27.638 4.20633 27.638 3.591C27.638 2.97567 27.7767 2.42533 28.054 1.94C28.34 1.446 28.743 1.06033 29.263 0.782999C29.7917 0.505666 30.407 0.366999 31.109 0.366999C31.811 0.366999 32.422 0.505666 32.942 0.782999C33.462 1.06033 33.8607 1.44167 34.138 1.927C34.424 2.41233 34.567 2.967 34.567 3.591ZM28.925 3.591C28.925 4.241 29.1244 4.761 29.523 5.151C29.9217 5.53233 30.4504 5.723 31.109 5.723C31.7677 5.723 32.292 5.53233 32.682 5.151C33.0807 4.761 33.28 4.241 33.28 3.591C33.28 2.941 33.0807 2.421 32.682 2.031C32.2834 1.641 31.759 1.446 31.109 1.446C30.4504 1.446 29.9217 1.641 29.523 2.031C29.1244 2.421 28.925 2.941 28.925 3.591ZM29.861 10.039H37.999V11.209H28.548V7.582H29.861V10.039ZM49.3209 2.876V0.249999H50.6079V8.505H49.3209V4.007H47.1629V2.876H49.3209ZM44.0689 4.449C43.6876 5.151 43.1806 5.71867 42.5479 6.152C41.9153 6.57667 41.1916 6.83233 40.3769 6.919V5.736C41.2956 5.606 42.0323 5.177 42.5869 4.449C43.1416 3.71233 43.4493 2.78067 43.5099 1.654H40.5199V0.535999H47.6049V1.654H44.8099C44.7839 2.226 44.6886 2.79367 44.5239 3.357L47.9299 5.892L47.2019 6.828L44.0689 4.449ZM50.8419 10.052V11.209H41.1569V7.673H42.4699V10.052H50.8419ZM60.1618 2.356H52.6218V1.303H55.7418V0.0549994H57.0418V1.303H60.1618V2.356ZM64.2698 3.292V4.527H62.7098V8.57H61.4228V0.249999H62.7098V3.292H64.2698ZM56.3918 7.53C55.7678 7.53 55.2045 7.44333 54.7018 7.27C54.2078 7.088 53.8178 6.82367 53.5318 6.477C53.2458 6.13033 53.1028 5.723 53.1028 5.255C53.1028 4.787 53.2458 4.37967 53.5318 4.033C53.8178 3.68633 54.2078 3.42633 54.7018 3.253C55.2045 3.071 55.7678 2.98 56.3918 2.98C57.0158 2.98 57.5748 3.071 58.0688 3.253C58.5628 3.42633 58.9528 3.68633 59.2388 4.033C59.5248 4.371 59.6678 4.77833 59.6678 5.255C59.6678 5.73167 59.5248 6.14333 59.2388 6.49C58.9528 6.828 58.5628 7.088 58.0688 7.27C57.5748 7.44333 57.0158 7.53 56.3918 7.53ZM56.3918 3.968C55.7765 3.968 55.2825 4.08933 54.9098 4.332C54.5371 4.57467 54.3508 4.88233 54.3508 5.255C54.3508 5.63633 54.5371 5.94833 54.9098 6.191C55.2825 6.425 55.7765 6.542 56.3918 6.542C57.0071 6.542 57.5011 6.425 57.8738 6.191C58.2465 5.94833 58.4328 5.63633 58.4328 5.255C58.4328 4.88233 58.2465 4.57467 57.8738 4.332C57.5011 4.08933 57.0071 3.968 56.3918 3.968ZM54.7278 10.065H63.0088V11.209H53.4278V8.167H54.7278V10.065ZM80.4182 5.983H78.8582V11.352H77.5712V0.249999H78.8582V4.748H80.4182V5.983ZM73.6062 0.575C73.5889 2.33433 73.4416 3.87267 73.1642 5.19L76.6612 9.922L75.6212 10.663L72.7612 6.698C72.3626 7.92 71.8339 8.87767 71.1752 9.571C70.5166 10.2557 69.7582 10.6283 68.9002 10.689V9.389C69.6196 9.27633 70.2306 8.817 70.7332 8.011C71.2446 7.205 71.6302 6.152 71.8902 4.852C72.1502 3.552 72.2846 2.109 72.2932 0.523L73.6062 0.575ZM90.3881 0.249999H91.6881V11.352H90.3881V0.249999ZM85.1491 10.832C84.4731 10.832 83.8838 10.6413 83.3811 10.26C82.8785 9.88733 82.4841 9.31533 82.1981 8.544C81.9208 7.77267 81.7821 6.815 81.7821 5.671C81.7821 4.527 81.9208 3.56933 82.1981 2.798C82.4841 2.02667 82.8785 1.45467 83.3811 1.082C83.8838 0.700666 84.4731 0.51 85.1491 0.51C85.8165 0.51 86.4015 0.700666 86.9041 1.082C87.4068 1.45467 87.7968 2.02667 88.0741 2.798C88.3601 3.56933 88.5031 4.527 88.5031 5.671C88.5031 6.815 88.3601 7.77267 88.0741 8.544C87.7968 9.31533 87.4068 9.88733 86.9041 10.26C86.4015 10.6413 85.8165 10.832 85.1491 10.832ZM85.1491 9.649C85.7645 9.649 86.2628 9.324 86.6441 8.674C87.0255 8.01533 87.2161 7.01433 87.2161 5.671C87.2161 4.33633 87.0255 3.33967 86.6441 2.681C86.2628 2.02233 85.7645 1.693 85.1491 1.693C84.5251 1.693 84.0225 2.02233 83.6411 2.681C83.2598 3.331 83.0691 4.32767 83.0691 5.671C83.0691 7.01433 83.2555 8.01533 83.6281 8.674C84.0095 9.324 84.5165 9.649 85.1491 9.649ZM104.349 7.751H94.56V0.652999H104.18V1.81H95.847V3.63H104.037V4.761H95.847V6.594H104.349V7.751ZM104.908 9.636V10.819H93.819V9.636H104.908ZM119.041 0.249999H120.341V11.352H119.041V0.249999ZM113.802 10.832C113.126 10.832 112.537 10.6413 112.034 10.26C111.532 9.88733 111.137 9.31533 110.851 8.544C110.574 7.77267 110.435 6.815 110.435 5.671C110.435 4.527 110.574 3.56933 110.851 2.798C111.137 2.02667 111.532 1.45467 112.034 1.082C112.537 0.700666 113.126 0.51 113.802 0.51C114.47 0.51 115.055 0.700666 115.557 1.082C116.06 1.45467 116.45 2.02667 116.727 2.798C117.013 3.56933 117.156 4.527 117.156 5.671C117.156 6.815 117.013 7.77267 116.727 8.544C116.45 9.31533 116.06 9.88733 115.557 10.26C115.055 10.6413 114.47 10.832 113.802 10.832ZM113.802 9.649C114.418 9.649 114.916 9.324 115.297 8.674C115.679 8.01533 115.869 7.01433 115.869 5.671C115.869 4.33633 115.679 3.33967 115.297 2.681C114.916 2.02233 114.418 1.693 113.802 1.693C113.178 1.693 112.676 2.02233 112.294 2.681C111.913 3.331 111.722 4.32767 111.722 5.671C111.722 7.01433 111.909 8.01533 112.281 8.674C112.663 9.324 113.17 9.649 113.802 9.649ZM133.561 5.45V6.49H122.472V5.45H124.903V4.059C124.34 3.89433 123.898 3.66467 123.577 3.37C123.265 3.07533 123.109 2.72 123.109 2.304C123.109 1.59333 123.564 1.06467 124.474 0.717999C125.384 0.362666 126.563 0.184999 128.01 0.184999C129.458 0.184999 130.636 0.362666 131.546 0.717999C132.456 1.06467 132.911 1.59333 132.911 2.304C132.911 2.72 132.751 3.07533 132.43 3.37C132.118 3.66467 131.681 3.89433 131.117 4.059V5.45H133.561ZM124.474 2.304C124.474 2.67667 124.804 2.95833 125.462 3.149C126.121 3.331 126.97 3.422 128.01 3.422C129.05 3.422 129.9 3.331 130.558 3.149C131.217 2.95833 131.546 2.67667 131.546 2.304C131.546 1.94 131.213 1.667 130.545 1.485C129.887 1.29433 129.042 1.199 128.01 1.199C126.979 1.199 126.13 1.29433 125.462 1.485C124.804 1.667 124.474 1.94 124.474 2.304ZM126.177 5.45H129.843V4.332C129.237 4.40133 128.626 4.436 128.01 4.436C127.395 4.436 126.784 4.40133 126.177 4.332V5.45ZM128.01 7.348C129.475 7.348 130.654 7.504 131.546 7.816C132.439 8.128 132.885 8.63933 132.885 9.35C132.885 10.0607 132.435 10.5763 131.533 10.897C130.641 11.2177 129.466 11.378 128.01 11.378C126.554 11.378 125.376 11.2177 124.474 10.897C123.582 10.5763 123.135 10.0607 123.135 9.35C123.135 8.63933 123.582 8.128 124.474 7.816C125.367 7.504 126.546 7.348 128.01 7.348ZM128.01 10.364C129.024 10.364 129.865 10.2817 130.532 10.117C131.2 9.961 131.533 9.70533 131.533 9.35C131.533 9.00333 131.2 8.752 130.532 8.596C129.865 8.44 129.024 8.362 128.01 8.362C126.996 8.362 126.156 8.44 125.488 8.596C124.83 8.752 124.5 9.00333 124.5 9.35C124.5 9.70533 124.83 9.961 125.488 10.117C126.156 10.2817 126.996 10.364 128.01 10.364ZM140.515 4.254C139.059 4.254 137.881 4.09367 136.979 3.773C136.087 3.44367 135.64 2.928 135.64 2.226C135.64 1.53267 136.087 1.02567 136.979 0.705C137.881 0.375666 139.059 0.211 140.515 0.211C141.971 0.211 143.146 0.375666 144.038 0.705C144.94 1.02567 145.39 1.53267 145.39 2.226C145.39 2.928 144.94 3.44367 144.038 3.773C143.146 4.09367 141.971 4.254 140.515 4.254ZM140.515 3.266C141.564 3.266 142.418 3.17933 143.076 3.006C143.735 2.83267 144.064 2.57267 144.064 2.226C144.064 1.87933 143.731 1.61933 143.063 1.446C142.405 1.27267 141.555 1.186 140.515 1.186C139.475 1.186 138.622 1.27267 137.954 1.446C137.296 1.61933 136.966 1.87933 136.966 2.226C136.966 2.57267 137.296 2.83267 137.954 3.006C138.613 3.17933 139.467 3.266 140.515 3.266ZM134.977 4.943H146.066V5.944H134.977V4.943ZM135.744 8.57H144.038V7.79H135.718V6.828H145.299V9.48H137.005V10.26H145.494V11.222H135.744V8.57ZM161.526 0.249999V11.352H160.239V0.249999H161.526ZM154.935 6.139C154.293 6.139 153.721 6.01767 153.219 5.775C152.725 5.53233 152.339 5.19867 152.062 4.774C151.784 4.34067 151.646 3.84667 151.646 3.292C151.646 2.73733 151.784 2.24767 152.062 1.823C152.339 1.38967 152.725 1.05167 153.219 0.809C153.721 0.566333 154.293 0.445 154.935 0.445C155.567 0.445 156.131 0.566333 156.625 0.809C157.127 1.05167 157.517 1.38967 157.795 1.823C158.081 2.24767 158.224 2.73733 158.224 3.292C158.224 3.84667 158.081 4.34067 157.795 4.774C157.517 5.19867 157.127 5.53233 156.625 5.775C156.131 6.01767 155.567 6.139 154.935 6.139ZM154.935 1.511C154.319 1.511 153.821 1.68 153.44 2.018C153.067 2.356 152.881 2.78067 152.881 3.292C152.881 3.80333 153.067 4.228 153.44 4.566C153.821 4.904 154.319 5.073 154.935 5.073C155.541 5.073 156.031 4.904 156.404 4.566C156.785 4.228 156.976 3.80333 156.976 3.292C156.976 2.78067 156.785 2.356 156.404 2.018C156.031 1.68 155.541 1.511 154.935 1.511ZM155.663 7.179C157.361 7.179 158.575 7.036 159.303 6.75V7.92C158.54 8.206 157.331 8.349 155.676 8.349H155.572V11.352H154.285V8.349H151.126V7.179H155.663ZM166.985 1.979H169.312V3.136H163.384V1.979H165.711V0.224H166.985V1.979ZM174.304 0.249999V11.352H173.108V5.931H171.327V11.157H170.131V0.314999H171.327V4.722H173.108V0.249999H174.304ZM166.4 4.007C166.902 4.007 167.349 4.14133 167.739 4.41C168.129 4.67 168.432 5.05567 168.649 5.567C168.874 6.07833 168.987 6.69367 168.987 7.413C168.987 8.13233 168.874 8.74767 168.649 9.259C168.432 9.77033 168.129 10.156 167.739 10.416C167.349 10.6847 166.902 10.819 166.4 10.819C165.897 10.819 165.451 10.6847 165.061 10.416C164.679 10.156 164.376 9.77033 164.151 9.259C163.934 8.74767 163.826 8.13233 163.826 7.413C163.826 6.69367 163.934 6.07833 164.151 5.567C164.376 5.05567 164.679 4.67 165.061 4.41C165.451 4.14133 165.897 4.007 166.4 4.007ZM166.4 9.688C166.816 9.688 167.154 9.48867 167.414 9.09C167.674 8.68267 167.804 8.12367 167.804 7.413C167.804 6.70233 167.674 6.14767 167.414 5.749C167.154 5.34167 166.816 5.138 166.4 5.138C165.992 5.138 165.659 5.34167 165.399 5.749C165.147 6.14767 165.022 6.70233 165.022 7.413C165.022 8.12367 165.147 8.68267 165.399 9.09C165.659 9.48867 165.992 9.688 166.4 9.688ZM10.3934 15.25V26.352H9.10638V15.25H10.3934ZM5.68738 15.575H6.96138V25.689H0.669383V15.575H1.94338V19.397H5.68738V15.575ZM5.68738 24.506V20.58H1.94338V24.506H5.68738ZM21.6113 15.25H22.8983V20.684H21.6113V15.25ZM13.0443 15.523H19.6483V20.281H13.0443V15.523ZM18.3743 19.215V16.589H14.3183V19.215H18.3743ZM13.4993 23.271H21.6243V22.309H13.4733V21.295H22.8983V24.233H14.7733V25.195H23.1713V26.209H13.4993V23.271ZM31.9841 21.698H25.4971V15.445H26.7581V17.356H30.7231V15.445H31.9841V17.941H34.2071V15.25H35.4941V23.492H34.2071V19.15H31.9841V21.698ZM30.7231 20.593V18.448H26.7581V20.593H30.7231ZM35.7281 25.039V26.209H26.0431V22.66H27.3561V25.039H35.7281ZM48.233 17.824H37.937V16.667H42.409V15.107H43.735V16.667H48.233V17.824ZM48.636 24.662V25.819H37.547V24.662H42.435V22.959C41.213 22.907 40.2424 22.7033 39.523 22.348C38.8037 21.9927 38.444 21.4727 38.444 20.788C38.444 20.0427 38.8644 19.488 39.705 19.124C40.5544 18.76 41.681 18.578 43.085 18.578C44.489 18.578 45.6114 18.76 46.452 19.124C47.3014 19.488 47.726 20.0427 47.726 20.788C47.726 21.4727 47.3664 21.9927 46.647 22.348C45.9277 22.7033 44.957 22.907 43.735 22.959V24.662H48.636ZM39.757 20.788C39.757 21.1693 40.0604 21.451 40.667 21.633C41.2737 21.815 42.0797 21.906 43.085 21.906C44.0904 21.906 44.8964 21.815 45.503 21.633C46.1097 21.451 46.413 21.1693 46.413 20.788C46.413 20.398 46.1097 20.112 45.503 19.93C44.905 19.748 44.099 19.657 43.085 19.657C42.0797 19.657 41.2737 19.748 40.667 19.93C40.0604 20.112 39.757 20.398 39.757 20.788ZM50.8579 17.044H59.0999V16.29H50.8579V15.38H60.3479V17.902H52.1059V18.643H60.5039V19.553H50.8579V17.044ZM50.0519 20.359H61.1409V21.295H50.0519V20.359ZM50.8189 23.726H59.1259V23.011H50.7929V22.101H60.3739V24.584H52.0669V25.312H60.5689V26.222H50.8189V23.726ZM71.5174 18.851C70.9627 19.5097 70.252 20.034 69.3854 20.424C68.5187 20.814 67.5784 21.0437 66.5644 21.113V19.917C67.717 19.8217 68.718 19.488 69.5674 18.916C70.4167 18.344 70.954 17.6073 71.1794 16.706H66.8374V15.536H76.6394V16.706H72.5444C72.4664 17.1047 72.3407 17.486 72.1674 17.85L77.0034 19.995L76.4704 21.074L71.5174 18.851ZM77.2894 23.505H72.3754V26.612H71.0754V23.505H66.2004V22.309H77.2894V23.505ZM87.7792 15.25H89.0662V26.352H87.7792V15.25ZM79.2252 24.441C80.2219 24.441 81.0842 24.194 81.8122 23.7C82.5489 23.1973 83.1079 22.491 83.4892 21.581C83.8792 20.6623 84.0742 19.5877 84.0742 18.357V16.836H79.2252V15.653H85.3872V18.331C85.3872 19.8043 85.1359 21.0957 84.6332 22.205C84.1392 23.3057 83.4242 24.1593 82.4882 24.766C81.5609 25.364 80.4732 25.663 79.2252 25.663V24.441ZM101.649 15.25V22.01H100.362V18.929H98.2171V17.811H100.362V15.25H101.649ZM95.1101 19.358C94.7201 20.0167 94.2088 20.5497 93.5761 20.957C92.9521 21.3557 92.2371 21.5983 91.4311 21.685V20.515C92.3498 20.3763 93.0821 19.9647 93.6281 19.28C94.1828 18.5867 94.4948 17.707 94.5641 16.641H91.5741V15.536H98.6591V16.641H95.8641C95.8381 17.2043 95.7428 17.7547 95.5781 18.292L98.9841 20.645L98.2951 21.594L95.1101 19.358ZM92.1071 22.621H101.649V26.352H100.336V23.739H92.1071V22.621ZM109.253 22.53C108.256 22.53 107.381 22.387 106.627 22.101C105.873 21.8063 105.288 21.3947 104.872 20.866C104.465 20.3287 104.261 19.709 104.261 19.007C104.261 18.305 104.465 17.6897 104.872 17.161C105.288 16.6237 105.873 16.212 106.627 15.926C107.381 15.6313 108.256 15.484 109.253 15.484C110.25 15.484 111.125 15.6313 111.879 15.926C112.633 16.212 113.214 16.6237 113.621 17.161C114.037 17.6897 114.245 18.305 114.245 19.007C114.245 19.709 114.037 20.3287 113.621 20.866C113.214 21.3947 112.633 21.8063 111.879 22.101C111.125 22.387 110.25 22.53 109.253 22.53ZM109.253 21.36C109.972 21.36 110.605 21.2647 111.151 21.074C111.706 20.8747 112.135 20.5973 112.438 20.242C112.741 19.878 112.893 19.4663 112.893 19.007C112.893 18.5477 112.741 18.1403 112.438 17.785C112.135 17.421 111.706 17.1437 111.151 16.953C110.605 16.7537 109.972 16.654 109.253 16.654C108.534 16.654 107.897 16.7537 107.342 16.953C106.796 17.1437 106.371 17.421 106.068 17.785C105.765 18.1403 105.613 18.5477 105.613 19.007C105.613 19.4663 105.765 19.878 106.068 20.242C106.371 20.5973 106.796 20.8747 107.342 21.074C107.897 21.2647 108.534 21.36 109.253 21.36ZM103.715 24.61H114.804V25.819H103.715V24.61ZM127.309 24.636V25.819H116.22V24.636H121.082V22.543H116.961V18.539H125.307V16.797H116.961V15.653H126.581V19.644H118.248V21.399H126.75V22.543H122.395V24.636H127.309ZM141.546 20.346H139.726V19.202H141.546V17.655H139.726V16.511H141.546V15.25H142.82V23.492H141.546V20.346ZM139.154 21.698H132.823V15.445H134.084V17.356H137.893V15.445H139.154V21.698ZM137.893 20.593V18.448H134.084V20.593H137.893ZM143.054 25.039V26.209H133.369V22.66H134.682V25.039H143.054ZM154.038 20.177H151.672V19.046H154.038V17.577H152.101V16.446H154.038V15.25H155.325V21.386H154.038V20.177ZM151.555 16.732C151.555 18.188 150.996 19.2713 149.878 19.982C148.769 20.684 147.218 21.035 145.224 21.035V19.917C146.819 19.9083 148.054 19.657 148.929 19.163C149.813 18.6603 150.255 17.9237 150.255 16.953V16.615H145.224V15.523H151.555V16.732ZM150.645 21.75C152.093 21.75 153.258 21.9363 154.142 22.309C155.035 22.673 155.481 23.2537 155.481 24.051C155.481 24.8397 155.035 25.4203 154.142 25.793C153.25 26.1657 152.084 26.352 150.645 26.352C149.207 26.352 148.041 26.1657 147.148 25.793C146.256 25.4203 145.809 24.8397 145.809 24.051C145.809 23.2537 146.251 22.673 147.135 22.309C148.028 21.9363 149.198 21.75 150.645 21.75ZM150.645 25.286C151.659 25.286 152.491 25.1863 153.141 24.987C153.791 24.779 154.116 24.467 154.116 24.051C154.116 23.635 153.791 23.3273 153.141 23.128C152.491 22.92 151.659 22.816 150.645 22.816C149.631 22.816 148.799 22.92 148.149 23.128C147.499 23.3273 147.174 23.635 147.174 24.051C147.174 24.467 147.499 24.779 148.149 24.987C148.799 25.1863 149.631 25.286 150.645 25.286ZM160.732 16.979H163.059V18.136H157.131V16.979H159.458V15.224H160.732V16.979ZM168.051 15.25V26.352H166.855V20.931H165.074V26.157H163.878V15.315H165.074V19.722H166.855V15.25H168.051ZM160.147 19.007C160.65 19.007 161.096 19.1413 161.486 19.41C161.876 19.67 162.179 20.0557 162.396 20.567C162.621 21.0783 162.734 21.6937 162.734 22.413C162.734 23.1323 162.621 23.7477 162.396 24.259C162.179 24.7703 161.876 25.156 161.486 25.416C161.096 25.6847 160.65 25.819 160.147 25.819C159.644 25.819 159.198 25.6847 158.808 25.416C158.427 25.156 158.123 24.7703 157.898 24.259C157.681 23.7477 157.573 23.1323 157.573 22.413C157.573 21.6937 157.681 21.0783 157.898 20.567C158.123 20.0557 158.427 19.67 158.808 19.41C159.198 19.1413 159.644 19.007 160.147 19.007ZM160.147 24.688C160.563 24.688 160.901 24.4887 161.161 24.09C161.421 23.6827 161.551 23.1237 161.551 22.413C161.551 21.7023 161.421 21.1477 161.161 20.749C160.901 20.3417 160.563 20.138 160.147 20.138C159.74 20.138 159.406 20.3417 159.146 20.749C158.895 21.1477 158.769 21.7023 158.769 22.413C158.769 23.1237 158.895 23.6827 159.146 24.09C159.406 24.4887 159.74 24.688 160.147 24.688ZM175.2 18.851C174.645 19.5097 173.935 20.034 173.068 20.424C172.201 20.814 171.261 21.0437 170.247 21.113V19.917C171.4 19.8217 172.401 19.488 173.25 18.916C174.099 18.344 174.637 17.6073 174.862 16.706H170.52V15.536H180.322V16.706H176.227C176.149 17.1047 176.023 17.486 175.85 17.85L180.686 19.995L180.153 21.074L175.2 18.851ZM180.972 23.505H176.058V26.612H174.758V23.505H169.883V22.309H180.972V23.505ZM193.061 15.25V26.352H191.839V15.25H193.061ZM189.044 15.315H190.266V26.157H189.044V20.268H187.289V19.046H189.044V15.315ZM186.08 15.575C186.08 17.2217 185.998 18.7253 185.833 20.086L188.524 24.974L187.445 25.546L185.495 21.906C185.218 23.024 184.828 23.895 184.325 24.519C183.831 25.143 183.216 25.533 182.479 25.689V24.389C183.32 24.1117 183.922 23.2233 184.286 21.724C184.65 20.216 184.836 18.149 184.845 15.523L186.08 15.575ZM205.982 24.636V25.819H194.893V24.636H197.441V21.633C196.799 21.3383 196.301 20.9527 195.946 20.476C195.599 19.9907 195.426 19.4403 195.426 18.825C195.426 18.149 195.629 17.5553 196.037 17.044C196.453 16.5327 197.038 16.1383 197.792 15.861C198.554 15.5837 199.434 15.445 200.431 15.445C201.427 15.445 202.303 15.5837 203.057 15.861C203.819 16.1383 204.404 16.5327 204.812 17.044C205.228 17.5553 205.436 18.149 205.436 18.825C205.436 19.4403 205.258 19.9907 204.903 20.476C204.556 20.9527 204.066 21.334 203.434 21.62V24.636H205.982ZM196.791 18.825C196.791 19.2583 196.942 19.644 197.246 19.982C197.549 20.3113 197.974 20.567 198.52 20.749C199.074 20.931 199.711 21.022 200.431 21.022C201.15 21.022 201.787 20.931 202.342 20.749C202.896 20.567 203.325 20.3113 203.629 19.982C203.932 19.644 204.084 19.2583 204.084 18.825C204.084 18.383 203.932 17.9973 203.629 17.668C203.325 17.33 202.896 17.07 202.342 16.888C201.787 16.706 201.15 16.615 200.431 16.615C199.711 16.615 199.074 16.706 198.52 16.888C197.974 17.07 197.549 17.33 197.246 17.668C196.942 17.9973 196.791 18.383 196.791 18.825ZM198.728 24.636H202.147V22.036C201.627 22.14 201.055 22.192 200.431 22.192C199.815 22.192 199.248 22.14 198.728 22.036V24.636Z" fill="#607D8B"/>
</svg>
