<svg width="73" height="14" viewBox="0 0 73 14" fill="none" xmlns="http://www.w3.org/2000/svg">
<path d="M10.008 0.999999V11.248H9.504V0.999999H10.008ZM6.504 1.36H7.008V10.528H1.416V1.36H1.932V5.308H6.504V1.36ZM6.504 10.06V5.776H1.932V10.06H6.504ZM21.551 6.064H21.047V0.999999H21.551V6.064ZM18.719 5.512H12.839V1.36H18.719V5.512ZM18.215 5.056V1.816H13.343V5.056H18.215ZM21.551 9.112H13.775V10.552H21.911V11.008H13.247V8.668H21.035V7.24H13.223V6.784H21.551V9.112ZM30.1059 6.82H24.3339V1.24H24.8379V3.376H29.6019V1.24H30.1059V3.796H32.6859V0.999999H33.1899V8.632H32.6859V4.264H30.1059V6.82ZM29.6019 6.352V3.844H24.8379V6.352H29.6019ZM33.4779 10.54V11.008H24.8379V7.948H25.3419V10.54H33.4779ZM45.0809 3.16H35.7209V2.692H40.1249V0.868H40.6289V2.692H45.0809V3.16ZM45.4649 10.18V10.648H35.3369V10.18H40.1489V8.056C38.9889 8.032 38.0529 7.86 37.3409 7.54C36.6369 7.22 36.2849 6.744 36.2849 6.112C36.2849 5.456 36.6649 4.968 37.4249 4.648C38.1849 4.32 39.1769 4.156 40.4009 4.156C41.6249 4.156 42.6169 4.32 43.3769 4.648C44.1369 4.968 44.5169 5.456 44.5169 6.112C44.5169 6.744 44.1609 7.22 43.4489 7.54C42.7449 7.86 41.8129 8.032 40.6529 8.056V10.18H45.4649ZM36.8009 6.112C36.8009 6.616 37.1289 6.988 37.7849 7.228C38.4489 7.468 39.3209 7.588 40.4009 7.588C41.4809 7.588 42.3489 7.468 43.0049 7.228C43.6689 6.988 44.0009 6.616 44.0009 6.112C44.0009 5.608 43.6689 5.236 43.0049 4.996C42.3489 4.748 41.4809 4.624 40.4009 4.624C39.3209 4.624 38.4489 4.748 37.7849 4.996C37.1289 5.236 36.8009 5.608 36.8009 6.112ZM59.1352 5.572H56.9752V5.116H59.1352V2.944H56.9752V2.488H59.1352V0.999999H59.6392V8.632H59.1352V5.572ZM56.4112 6.82H50.7832V1.24H51.2872V3.376H55.9072V1.24H56.4112V6.82ZM55.9072 6.352V3.844H51.2872V6.352H55.9072ZM59.9272 10.54V11.008H51.2872V7.948H51.7912V10.54H59.9272ZM70.6781 5.224H67.9901V4.756H70.6781V2.824H68.3861V2.356H70.6781V0.999999H71.1821V6.688H70.6781V5.224ZM67.8701 2.26C67.8701 3.596 67.3821 4.592 66.4061 5.248C65.4301 5.896 64.0261 6.22 62.1941 6.22V5.74C65.6421 5.74 67.3661 4.58 67.3661 2.26V1.828H62.1941V1.36H67.8701V2.26ZM67.0901 7.168C68.3461 7.168 69.3741 7.332 70.1741 7.66C70.9741 7.988 71.3741 8.488 71.3741 9.16C71.3741 9.832 70.9741 10.332 70.1741 10.66C69.3741 10.988 68.3461 11.152 67.0901 11.152C65.8341 11.152 64.8061 10.988 64.0061 10.66C63.2061 10.332 62.8061 9.832 62.8061 9.16C62.8061 8.488 63.2061 7.988 64.0061 7.66C64.8061 7.332 65.8341 7.168 67.0901 7.168ZM67.0901 10.684C68.1781 10.684 69.0781 10.556 69.7901 10.3C70.5101 10.044 70.8701 9.664 70.8701 9.16C70.8701 8.656 70.5101 8.276 69.7901 8.02C69.0781 7.764 68.1781 7.636 67.0901 7.636C66.0021 7.636 65.0981 7.764 64.3781 8.02C63.6661 8.276 63.3101 8.656 63.3101 9.16C63.3101 9.664 63.6661 10.044 64.3781 10.3C65.0981 10.556 66.0021 10.684 67.0901 10.684Z" fill="#607D8B"/>
<path d="M0 12.94H72.6221V13.54H0V12.94Z" fill="#607D8B"/>
</svg>
