<svg width="164" height="35" viewBox="0 0 164 35" fill="none" xmlns="http://www.w3.org/2000/svg">
<rect width="164" height="35" rx="6" fill="#A6EEB1"/>
<path d="M138 17L141.375 20L147 14" stroke="#00C342" stroke-width="3" stroke-linecap="round" stroke-linejoin="round"/>
<path d="M143 26C147.971 26 152 21.9706 152 17C152 12.0294 147.971 8 143 8C138.029 8 134 12.0294 134 17C134 21.9706 138.029 26 143 26Z" stroke="#00C342" stroke-width="4"/>
<path d="M14.1049 10.125H18.8449C20.1749 10.125 21.3349 10.385 22.3249 10.905C23.3149 11.415 24.0749 12.135 24.6049 13.065C25.1349 13.985 25.3999 15.045 25.3999 16.245C25.3999 17.445 25.1349 18.51 24.6049 19.44C24.0749 20.36 23.3149 21.075 22.3249 21.585C21.3349 22.095 20.1749 22.35 18.8449 22.35H14.1049V10.125ZM18.8899 19.935C20.0699 19.935 20.9949 19.615 21.6649 18.975C22.3349 18.325 22.6699 17.415 22.6699 16.245C22.6699 15.075 22.3349 14.165 21.6649 13.515C20.9949 12.865 20.0699 12.54 18.8899 12.54H16.8349V19.935H18.8899ZM30.7895 22.56C29.9595 22.56 29.2195 22.36 28.5695 21.96C27.9195 21.57 27.4145 21.025 27.0545 20.325C26.6945 19.625 26.5145 18.835 26.5145 17.955C26.5145 17.075 26.6945 16.285 27.0545 15.585C27.4145 14.885 27.9195 14.34 28.5695 13.95C29.2195 13.55 29.9595 13.35 30.7895 13.35C31.9195 13.35 32.7595 13.72 33.3095 14.46V13.56H35.9795V22.35H33.3095V21.45C32.7595 22.19 31.9195 22.56 30.7895 22.56ZM31.2095 20.28C31.8595 20.28 32.3795 20.065 32.7695 19.635C33.1595 19.195 33.3545 18.635 33.3545 17.955C33.3545 17.275 33.1595 16.72 32.7695 16.29C32.3795 15.85 31.8595 15.63 31.2095 15.63C30.5795 15.63 30.0745 15.85 29.6945 16.29C29.3145 16.72 29.1245 17.275 29.1245 17.955C29.1245 18.635 29.3145 19.195 29.6945 19.635C30.0745 20.065 30.5795 20.28 31.2095 20.28ZM39.3297 9.315C39.7997 9.315 40.1897 9.47 40.4997 9.78C40.8097 10.09 40.9647 10.48 40.9647 10.95C40.9647 11.42 40.8097 11.81 40.4997 12.12C40.1897 12.43 39.7997 12.585 39.3297 12.585C38.8597 12.585 38.4697 12.43 38.1597 12.12C37.8497 11.81 37.6947 11.42 37.6947 10.95C37.6947 10.48 37.8497 10.09 38.1597 9.78C38.4697 9.47 38.8597 9.315 39.3297 9.315ZM40.6647 22.38H37.9947V13.56H40.6647V22.38ZM45.3376 22.35H42.6676V9.75H45.3376V22.35ZM56.0104 13.56L50.9554 26.01H48.3304L49.9204 22.11L46.4554 13.56H49.4104L51.3154 18.99L53.2354 13.56H56.0104ZM67.4194 22.65C66.1794 22.65 65.0594 22.37 64.0594 21.81C63.0694 21.26 62.2894 20.5 61.7194 19.53C61.1594 18.55 60.8794 17.45 60.8794 16.23C60.8794 15.01 61.1594 13.915 61.7194 12.945C62.2894 11.965 63.0694 11.2 64.0594 10.65C65.0594 10.09 66.1794 9.81 67.4194 9.81C68.5094 9.81 69.4844 10.01 70.3444 10.41C71.2144 10.81 71.9194 11.36 72.4594 12.06C72.9994 12.76 73.3544 13.545 73.5244 14.415H70.7644C70.6144 13.815 70.2394 13.315 69.6394 12.915C69.0494 12.515 68.3294 12.315 67.4794 12.315C66.7494 12.315 66.0894 12.485 65.4994 12.825C64.9094 13.155 64.4444 13.62 64.1044 14.22C63.7744 14.81 63.6094 15.48 63.6094 16.23C63.6094 16.97 63.7744 17.64 64.1044 18.24C64.4444 18.84 64.9094 19.31 65.4994 19.65C66.0894 19.98 66.7494 20.145 67.4794 20.145C68.0394 20.145 68.5644 20.035 69.0544 19.815C69.5544 19.595 69.9644 19.31 70.2844 18.96C70.6144 18.61 70.8144 18.25 70.8844 17.88H73.6444C73.5144 18.71 73.1694 19.49 72.6094 20.22C72.0494 20.95 71.3144 21.535 70.4044 21.975C69.5044 22.425 68.5094 22.65 67.4194 22.65ZM79.3582 13.35C80.2482 13.35 81.0482 13.55 81.7582 13.95C82.4682 14.34 83.0232 14.885 83.4232 15.585C83.8232 16.285 84.0232 17.075 84.0232 17.955C84.0232 18.835 83.8232 19.625 83.4232 20.325C83.0232 21.025 82.4682 21.57 81.7582 21.96C81.0482 22.36 80.2482 22.56 79.3582 22.56C78.4682 22.56 77.6682 22.36 76.9582 21.96C76.2482 21.57 75.6932 21.025 75.2932 20.325C74.8932 19.625 74.6932 18.835 74.6932 17.955C74.6932 17.075 74.8932 16.285 75.2932 15.585C75.6932 14.885 76.2482 14.34 76.9582 13.95C77.6682 13.55 78.4682 13.35 79.3582 13.35ZM79.3582 15.63C78.7382 15.63 78.2332 15.85 77.8432 16.29C77.4632 16.72 77.2732 17.275 77.2732 17.955C77.2732 18.635 77.4632 19.195 77.8432 19.635C78.2332 20.065 78.7382 20.28 79.3582 20.28C79.9782 20.28 80.4782 20.065 80.8582 19.635C81.2482 19.195 81.4432 18.635 81.4432 17.955C81.4432 17.275 81.2482 16.72 80.8582 16.29C80.4782 15.85 79.9782 15.63 79.3582 15.63ZM85.5875 13.56H88.2575V14.4C88.5275 14.04 88.8325 13.775 89.1725 13.605C89.5225 13.435 89.9375 13.35 90.4175 13.35C90.9675 13.35 91.4675 13.46 91.9175 13.68C92.3675 13.89 92.7375 14.2 93.0275 14.61C93.3575 14.19 93.7625 13.875 94.2425 13.665C94.7225 13.455 95.2925 13.35 95.9525 13.35C96.6225 13.35 97.2125 13.51 97.7225 13.83C98.2325 14.14 98.6275 14.59 98.9075 15.18C99.1875 15.77 99.3275 16.465 99.3275 17.265V22.35H96.6575V17.715C96.6575 17.045 96.5325 16.535 96.2825 16.185C96.0325 15.825 95.6625 15.645 95.1725 15.645C94.7425 15.645 94.4075 15.81 94.1675 16.14C93.9375 16.47 93.8125 16.95 93.7925 17.58V22.35H91.1225V17.715C91.1225 17.045 90.9975 16.535 90.7475 16.185C90.4975 15.825 90.1275 15.645 89.6375 15.645C89.2075 15.645 88.8725 15.81 88.6325 16.14C88.4025 16.47 88.2775 16.95 88.2575 17.58V22.35H85.5875V13.56ZM101.13 13.56H103.8V14.4C104.07 14.04 104.375 13.775 104.715 13.605C105.065 13.435 105.48 13.35 105.96 13.35C106.51 13.35 107.01 13.46 107.46 13.68C107.91 13.89 108.28 14.2 108.57 14.61C108.9 14.19 109.305 13.875 109.785 13.665C110.265 13.455 110.835 13.35 111.495 13.35C112.165 13.35 112.755 13.51 113.265 13.83C113.775 14.14 114.17 14.59 114.45 15.18C114.73 15.77 114.87 16.465 114.87 17.265V22.35H112.2V17.715C112.2 17.045 112.075 16.535 111.825 16.185C111.575 15.825 111.205 15.645 110.715 15.645C110.285 15.645 109.95 15.81 109.71 16.14C109.48 16.47 109.355 16.95 109.335 17.58V22.35H106.665V17.715C106.665 17.045 106.54 16.535 106.29 16.185C106.04 15.825 105.67 15.645 105.18 15.645C104.75 15.645 104.415 15.81 104.175 16.14C103.945 16.47 103.82 16.95 103.8 17.58V22.35H101.13V13.56ZM118.007 9.315C118.477 9.315 118.867 9.47 119.177 9.78C119.487 10.09 119.642 10.48 119.642 10.95C119.642 11.42 119.487 11.81 119.177 12.12C118.867 12.43 118.477 12.585 118.007 12.585C117.537 12.585 117.147 12.43 116.837 12.12C116.527 11.81 116.372 11.42 116.372 10.95C116.372 10.48 116.527 10.09 116.837 9.78C117.147 9.47 117.537 9.315 118.007 9.315ZM119.342 22.38H116.672V13.56H119.342V22.38ZM126.729 15.855H124.989V22.35H122.319V15.855H120.579V13.56H122.319V10.95H124.989V13.56H126.729V15.855Z" fill="#00C342"/>
</svg>
