<svg width="45" height="14" viewBox="0 0 45 14" fill="none" xmlns="http://www.w3.org/2000/svg">
<path d="M13.23 5.252V5.798H11.368V10.628H10.766V1.5H11.368V5.252H13.23ZM9.52 8.458C8.78267 8.794 7.238 8.962 4.886 8.962H0.826V8.416H4.564V6.484C3.60267 6.43733 2.828 6.19467 2.24 5.756C1.652 5.308 1.358 4.73867 1.358 4.048C1.358 3.572 1.50267 3.152 1.792 2.788C2.09067 2.41467 2.506 2.12533 3.038 1.92C3.57 1.71467 4.17667 1.612 4.858 1.612C5.53933 1.612 6.146 1.71467 6.678 1.92C7.21 2.12533 7.62067 2.41467 7.91 2.788C8.20867 3.152 8.358 3.572 8.358 4.048C8.358 4.73867 8.064 5.308 7.476 5.756C6.888 6.19467 6.11333 6.43733 5.152 6.484V8.416C7.308 8.39733 8.764 8.22933 9.52 7.912V8.458ZM1.96 4.048C1.96 4.61733 2.22133 5.07467 2.744 5.42C3.26667 5.76533 3.97133 5.938 4.858 5.938C5.74467 5.938 6.44933 5.76533 6.972 5.42C7.49467 5.07467 7.756 4.61733 7.756 4.048C7.756 3.47867 7.49467 3.02133 6.972 2.676C6.44933 2.33067 5.74467 2.158 4.858 2.158C3.97133 2.158 3.26667 2.33067 2.744 2.676C2.22133 3.02133 1.96 3.47867 1.96 4.048ZM2.394 12.63H11.816V13.176H1.806V10.152H2.394V12.63ZM26.1088 12.21V12.756H14.2928V12.21H17.6108V9.144H15.2168V5.322H24.6528V2.606H15.2168V2.06H25.2408V5.868H15.8048V8.598H25.4508V9.144H22.8048V12.21H26.1088ZM18.1988 12.21H22.2168V9.144H18.1988V12.21Z" fill="#607D8B"/>
<path fill-rule="evenodd" clip-rule="evenodd" d="M30 6.62543C30 6.45968 30.0564 6.30072 30.1569 6.18352C30.2574 6.06631 30.3936 6.00047 30.5357 6.00047H43.1702L39.7987 2.06822C39.6981 1.95087 39.6416 1.79171 39.6416 1.62575C39.6416 1.45979 39.6981 1.30063 39.7987 1.18328C39.8992 1.06593 40.0357 1 40.1779 1C40.3202 1 40.4566 1.06593 40.5572 1.18328L44.8426 6.18296C44.8925 6.24101 44.9321 6.30998 44.9591 6.3859C44.9861 6.46183 45 6.54323 45 6.62543C45 6.70763 44.9861 6.78903 44.9591 6.86496C44.9321 6.94088 44.8925 7.00985 44.8426 7.0679L40.5572 12.0676C40.4566 12.1849 40.3202 12.2509 40.1779 12.2509C40.0357 12.2509 39.8992 12.1849 39.7987 12.0676C39.6981 11.9502 39.6416 11.7911 39.6416 11.6251C39.6416 11.4592 39.6981 11.3 39.7987 11.1826L43.1702 7.25039H30.5357C30.3936 7.25039 30.2574 7.18455 30.1569 7.06734C30.0564 6.95014 30 6.79118 30 6.62543Z" fill="#607D8B"/>
</svg>
