<svg width="20" height="21" viewBox="0 0 20 21" fill="none" xmlns="http://www.w3.org/2000/svg">
<path d="M19.9729 2.07848C19.9722 1.99638 19.9496 1.91604 19.9076 1.84619C19.8655 1.77635 19.8056 1.71967 19.7344 1.68233C19.6631 1.64499 19.5833 1.62842 19.5035 1.63441C19.4237 1.6404 19.3471 1.66873 19.2819 1.71631L17.5655 2.97917L17.4304 3.07905C15.5809 1.18461 13.0425 0 10.2297 0C4.58889 0 0 4.7106 0 10.5C0 16.2894 4.58917 21 10.2297 21C11.9047 21.0003 13.5541 20.5784 15.033 19.7713C16.512 18.9642 17.7752 17.7966 18.7116 16.3712C18.7494 16.3141 18.7758 16.2499 18.7893 16.1823C18.8029 16.1146 18.8033 16.0449 18.7906 15.9771C18.7778 15.9093 18.7522 15.8448 18.7151 15.7872C18.678 15.7296 18.6302 15.6801 18.5744 15.6415L16.0152 13.8185C15.8948 13.7359 15.7475 13.7055 15.6053 13.7339C15.4631 13.7623 15.3377 13.8473 15.2563 13.9703C14.125 15.6869 12.2504 16.7117 10.2392 16.7117C6.90181 16.7117 4.18636 13.9252 4.18636 10.5006C4.18636 7.07597 6.90181 4.28945 10.2392 4.28945C11.6478 4.28945 12.9397 4.7921 13.9682 5.62314L13.6792 5.83653L11.9617 7.09909C11.8969 7.14729 11.8463 7.21281 11.8153 7.28852C11.7843 7.36422 11.7742 7.44721 11.786 7.52841C11.7978 7.60962 11.8312 7.68594 11.8823 7.74904C11.9335 7.81214 12.0006 7.85961 12.0763 7.88626L19.4239 10.4555C19.557 10.5033 19.7029 10.4801 19.8189 10.3954C19.9342 10.3094 20.0006 10.174 20 10.0305L19.9729 2.07848Z" fill="#C4C4C4"/>
</svg>
