<svg width="47" height="14" viewBox="0 0 47 14" fill="none" xmlns="http://www.w3.org/2000/svg">
<path d="M7.86 2.908H0.78V2.44H4.068V0.868H4.572V2.44H7.86V2.908ZM10.032 0.999999V11.248H9.528V0.999999H10.032ZM4.584 10.072C5.512 10.072 6.292 10.036 6.924 9.964C7.564 9.884 8.072 9.756 8.448 9.58V10.072C8.128 10.216 7.628 10.328 6.948 10.408C6.268 10.488 5.472 10.528 4.56 10.528H0.708V10.072H4.08V8.008C3.24 7.968 2.588 7.76 2.124 7.384C1.668 7 1.44 6.508 1.44 5.908C1.44 5.276 1.692 4.768 2.196 4.384C2.708 4 3.42 3.808 4.332 3.808C5.244 3.808 5.952 4 6.456 4.384C6.968 4.768 7.224 5.276 7.224 5.908C7.224 6.508 6.992 7 6.528 7.384C6.072 7.76 5.424 7.968 4.584 8.008V10.072ZM1.944 5.908C1.944 6.38 2.144 6.772 2.544 7.084C2.952 7.396 3.548 7.552 4.332 7.552C5.116 7.552 5.708 7.396 6.108 7.084C6.516 6.772 6.72 6.38 6.72 5.908C6.72 5.436 6.516 5.044 6.108 4.732C5.708 4.42 5.116 4.264 4.332 4.264C3.548 4.264 2.952 4.42 2.544 4.732C2.144 5.044 1.944 5.436 1.944 5.908ZM21.131 7.612V0.999999H21.635V9.076H21.131V8.068H17.639V7.612H21.131ZM15.911 4.972C15.031 4.972 14.319 4.804 13.775 4.468C13.239 4.124 12.971 3.652 12.971 3.052C12.971 2.452 13.239 1.984 13.775 1.648C14.319 1.304 15.031 1.132 15.911 1.132C16.791 1.132 17.499 1.304 18.035 1.648C18.579 1.984 18.851 2.452 18.851 3.052C18.851 3.652 18.579 4.124 18.035 4.468C17.499 4.804 16.791 4.972 15.911 4.972ZM15.911 1.588C15.191 1.588 14.603 1.716 14.147 1.972C13.699 2.22 13.475 2.58 13.475 3.052C13.475 3.524 13.699 3.888 14.147 4.144C14.603 4.392 15.191 4.516 15.911 4.516C16.631 4.516 17.215 4.392 17.663 4.144C18.119 3.888 18.347 3.524 18.347 3.052C18.347 2.58 18.119 2.22 17.663 1.972C17.215 1.716 16.631 1.588 15.911 1.588ZM15.407 6.472H12.263V6.004H16.115C18.059 6.004 19.367 5.86 20.039 5.572V6.04C19.407 6.328 18.083 6.472 16.067 6.472H15.911V8.584H15.407V6.472ZM22.007 10.54V11.008H13.307V8.008H13.811V10.54H22.007ZM34.4259 3.292V3.76H32.8059V6.268H32.3019V0.999999H32.8059V3.292H34.4259ZM31.3299 5.296C30.9699 5.464 30.4419 5.596 29.7459 5.692C29.0499 5.788 28.2459 5.836 27.3339 5.836H24.2739V1.36H30.4899V1.804H24.7779V3.376H30.2859V3.82H24.7779V5.392H27.4059C28.2859 5.392 29.0659 5.344 29.7459 5.248C30.4259 5.152 30.9539 5.016 31.3299 4.84V5.296ZM25.1259 10.552H33.1659V11.008H24.6219V8.776H32.3019V7.444H24.5979V6.988H32.8059V9.22H25.1259V10.552ZM44.6609 0.999999V11.248H44.1569V0.999999H44.6609ZM39.1529 10.06C41.0489 10.06 42.3569 9.904 43.0769 9.592V10.072C42.2929 10.376 40.9969 10.528 39.1889 10.528H35.3369V10.06H38.6129V7.456H36.0569V1.48H41.9609V1.948H36.5609V4.228H41.7809V4.684H36.5609V6.988H42.0809V7.456H39.1169V10.06H39.1529Z" fill="#607D8B"/>
<path d="M0 12.94H46.1729V13.54H0V12.94Z" fill="#607D8B"/>
</svg>
