<svg width="230" height="43" viewBox="0 0 319 43" fill="none" xmlns="http://www.w3.org/2000/svg">
<rect width="319" height="43" rx="5" fill="#607D8B"/>
<path d="M120.766 13.5V28.872H117.724V13.5H120.766ZM112.72 13.86H115.708V28.152H106.6V13.86H109.588V18.378H112.72V13.86ZM112.72 25.362V21.15H109.588V25.362H112.72ZM138.099 21.024H135.057V13.5H138.099V21.024ZM133.275 20.7H123.735V13.68H133.275V20.7ZM130.269 18.252V16.128H126.741V18.252H130.269ZM138.099 26.154H127.371V26.766H138.261V28.872H124.365V24.282H135.093V23.67H124.329V21.564H138.099V26.154ZM150.355 22.662H140.977V13.68H143.947V15.624H147.385V13.68H150.355V16.65H152.443V13.5H155.485V24.876H152.443V19.512H150.355V22.662ZM147.385 20.124V18.108H143.947V20.124H147.385ZM155.701 26.136V28.872H141.733V23.562H144.829V26.136H155.701ZM172.908 17.442H158.364V14.778H164.07V13.302H167.202V14.778H172.908V17.442ZM173.412 25.632V28.332H157.86V25.632H164.088V24.282C162.468 24.174 161.196 23.862 160.272 23.346C159.348 22.83 158.886 22.098 158.886 21.15C158.886 20.058 159.492 19.254 160.704 18.738C161.928 18.222 163.572 17.964 165.636 17.964C167.7 17.964 169.338 18.222 170.55 18.738C171.774 19.254 172.386 20.058 172.386 21.15C172.386 22.098 171.924 22.83 171 23.346C170.076 23.862 168.804 24.174 167.184 24.282V25.632H173.412ZM162 21.15C162 21.642 163.212 21.888 165.636 21.888C168.06 21.888 169.272 21.642 169.272 21.15C169.272 20.658 168.06 20.412 165.636 20.412C163.212 20.412 162 20.658 162 21.15ZM192.171 21.276H190.533V18.594H192.171V17.334H190.533V14.652H192.171V13.5H195.159V24.876H192.171V21.276ZM189.813 22.662H180.651V13.68H183.603V15.624H186.861V13.68H189.813V22.662ZM186.861 20.124V18.108H183.603V20.124H186.861ZM195.375 26.136V28.872H181.407V23.562H184.503V26.136H195.375ZM209.467 20.898H207.091V18.306H209.467V17.298H207.685V14.706H209.467V13.5H212.473V21.96H209.467V20.898ZM206.965 15.768C206.965 17.796 206.143 19.302 204.499 20.286C202.867 21.258 200.665 21.744 197.893 21.744V19.17C199.081 19.158 200.125 19.038 201.025 18.81C201.937 18.582 202.639 18.264 203.131 17.856C203.623 17.448 203.869 16.974 203.869 16.434V16.2H197.893V13.68H206.965V15.768ZM205.597 22.176C207.733 22.176 209.437 22.452 210.709 23.004C211.981 23.544 212.617 24.414 212.617 25.614C212.617 26.814 211.981 27.684 210.709 28.224C209.437 28.776 207.733 29.052 205.597 29.052C203.461 29.052 201.757 28.776 200.485 28.224C199.213 27.684 198.577 26.814 198.577 25.614C198.577 24.414 199.213 23.544 200.485 23.004C201.757 22.452 203.461 22.176 205.597 22.176ZM205.597 26.622C206.725 26.622 207.631 26.544 208.315 26.388C208.999 26.22 209.341 25.962 209.341 25.614C209.341 25.278 208.993 25.026 208.297 24.858C207.613 24.69 206.713 24.606 205.597 24.606C204.481 24.606 203.575 24.69 202.879 24.858C202.195 25.026 201.853 25.278 201.853 25.614C201.853 25.962 202.195 26.22 202.879 26.388C203.563 26.544 204.469 26.622 205.597 26.622Z" fill="white"/>
</svg>
