<svg width="300" height="173" viewBox="0 0 486 173" fill="none" xmlns="http://www.w3.org/2000/svg">
<g filter="url(#filter0_d)">
<rect width="59.6281" height="58.6144" transform="matrix(0.91504 -0.403362 0.421138 0.906997 4 51.4717)" fill="#80DEEA"/>
</g>
<g filter="url(#filter1_d)">
<rect width="127.604" height="58.6144" transform="matrix(0.91504 -0.403362 0.421138 0.906997 31.647 111.015)" fill="#607D8B"/>
</g>
<g filter="url(#filter2_d)">
<rect width="59.6281" height="58.6144" transform="matrix(0.91504 -0.403362 0.421138 0.906997 66.2007 24.0518)" fill="#80DEEA"/>
</g>
<g filter="url(#filter3_d)">
<path d="M49.9378 79.5908C48.4884 80.2297 47.0831 80.6787 45.7219 80.9379C44.3927 81.2091 43.1314 81.2275 41.9379 80.9932C40.7765 80.7709 39.7158 80.2813 38.7558 79.5244C37.7959 78.7675 36.9765 77.6864 36.2975 76.2812C35.5259 74.7333 34.7813 73.1866 34.0636 71.641C33.3359 70.0737 32.615 68.4641 31.9009 66.8122C31.276 65.4093 30.9886 64.1068 31.0389 62.9046C31.1112 61.6927 31.445 60.5884 32.0404 59.5917C32.6477 58.5635 33.4946 57.6526 34.5812 56.8589C35.6796 56.0338 36.9426 55.3066 38.37 54.6774C39.7536 54.0675 41.109 53.6536 42.4364 53.4356C43.7537 53.1958 44.9981 53.1979 46.1697 53.442C47.3531 53.6546 48.4357 54.1345 49.4176 54.8817C50.4114 55.5975 51.2596 56.6265 51.9622 57.9688C52.7558 59.5071 53.5207 61.0974 54.2568 62.7396C55.0148 64.3722 55.7155 65.9383 56.3589 67.4379C56.9737 68.819 57.245 70.1154 57.1727 71.3273C57.1005 72.5392 56.7557 73.6484 56.1383 74.6548C55.531 75.683 54.6891 76.6048 53.6127 77.4202C52.5463 78.2574 51.3214 78.9809 49.9378 79.5908ZM46.4939 60.3793C45.8638 59.1362 45.006 58.3998 43.9205 58.1702C42.825 57.9189 41.5964 58.0934 40.2348 58.6936C38.8074 59.3228 37.8398 60.1164 37.3322 61.0745C36.8466 62.0228 36.8749 63.1379 37.4172 64.4198C38.8169 67.6052 40.2774 70.7507 41.7988 73.8562C42.439 75.1211 43.2799 75.8781 44.3214 76.127C45.3849 76.3662 46.6304 76.1712 48.0579 75.542C49.3975 74.9514 50.3211 74.1772 50.8287 73.2192C51.3481 72.2297 51.3637 71.0952 50.8754 69.8157C50.2676 68.2218 49.583 66.6618 48.8214 65.1356C48.0818 63.5998 47.306 62.0143 46.4939 60.3793Z" fill="white"/>
</g>
<g filter="url(#filter4_d)">
<path d="M121.097 44.723C121.34 45.2454 121.465 45.7147 121.473 46.1307C121.481 46.5468 121.399 46.9109 121.226 47.2229C121.064 47.5568 120.838 47.8398 120.549 48.0721C120.27 48.3262 119.955 48.5307 119.604 48.6855C118.879 49.005 118.176 49.1709 117.494 49.1831C116.821 49.2171 116.204 49.0564 115.643 48.701L100.548 39.267L106.248 51.5441C106.663 52.4366 106.675 53.2046 106.286 53.8481C105.897 54.4917 105.351 54.9683 104.648 55.2781C104.275 55.4427 103.887 55.548 103.486 55.594C103.094 55.6618 102.705 55.6498 102.318 55.558C101.963 55.4783 101.623 55.3139 101.295 55.0648C101 54.8278 100.751 54.4916 100.549 54.0563L91.2859 34.106C91.1646 33.8448 91.0982 33.5593 91.0867 33.2497C91.0972 32.9304 91.1727 32.6087 91.3132 32.2845C91.4436 31.9386 91.6541 31.6229 91.9449 31.3374C92.2475 31.0204 92.6513 30.7506 93.1564 30.528C93.6176 30.3247 94.039 30.1782 94.4207 30.0886C94.8024 29.9991 95.1764 29.9784 95.5428 30.0267C95.899 30.0532 96.2746 30.1499 96.6696 30.3167C97.0645 30.4835 97.5058 30.7217 97.9934 31.0312L112.002 39.9211L106.302 27.644C105.918 26.8168 105.931 26.0767 106.342 25.4235C106.775 24.7606 107.365 24.2646 108.112 23.9354C108.463 23.7805 108.829 23.6849 109.209 23.6485C109.579 23.5904 109.941 23.6012 110.295 23.6809C110.65 23.7607 110.975 23.919 111.27 24.156C111.565 24.393 111.809 24.7183 112.001 25.1319L121.097 44.723Z" fill="white"/>
</g>
<g filter="url(#filter5_d)">
<path d="M70.8776 123.653C70.4091 123.86 69.9599 123.918 69.53 123.828C69.0933 123.723 68.7727 123.489 68.5683 123.124C68.2537 122.599 67.8099 122.27 67.2371 122.138C66.6576 121.991 65.9505 122.102 65.116 122.469C63.4763 123.192 63.0106 124.412 63.719 126.127C64.1939 127.264 64.674 128.355 65.1591 129.4C65.6522 130.424 66.1559 131.451 66.6704 132.483C67.0972 133.327 67.6139 133.851 68.2204 134.055C68.8269 134.26 69.5474 134.178 70.3819 133.811C71.2457 133.43 71.7905 132.989 72.0161 132.487C72.2565 131.979 72.2515 131.361 72.0013 130.632C71.8621 130.256 71.9109 129.867 72.1477 129.466C72.3846 129.064 72.7153 128.77 73.1399 128.583C74.2818 128.079 75.119 128.401 75.6513 129.547C75.9275 130.142 76.0406 130.765 75.9903 131.417C75.9547 132.062 75.7644 132.697 75.4192 133.321C75.0741 133.945 74.5787 134.53 73.9331 135.077C73.3089 135.632 72.5429 136.11 71.6352 136.51C70.7714 136.891 69.9224 137.151 69.0881 137.292C68.2606 137.447 67.4709 137.436 66.7192 137.261C65.9742 137.1 65.2817 136.767 64.6417 136.262C64.0164 135.751 63.4701 135.03 63.0029 134.1C61.9134 131.906 60.9195 129.765 60.0212 127.679C59.626 126.751 59.4451 125.887 59.4787 125.086C59.5122 124.284 59.7128 123.558 60.0804 122.906C60.456 122.233 60.966 121.642 61.6105 121.13C62.2482 120.604 62.9696 120.164 63.7749 119.809C64.6679 119.415 65.5384 119.163 66.3861 119.051C67.2485 118.933 68.0381 118.944 68.755 119.082C69.4652 119.206 70.0846 119.458 70.6132 119.836C71.1498 120.194 71.5495 120.656 71.8123 121.222C72.3311 122.34 72.0195 123.15 70.8776 123.653ZM86.5941 129.916C85.6278 130.342 84.6909 130.641 83.7834 130.814C82.8973 130.995 82.0565 131.007 81.2608 130.851C80.4865 130.702 79.7794 130.376 79.1394 129.871C78.4995 129.367 77.9532 128.646 77.5005 127.709C76.9861 126.677 76.4897 125.646 76.0113 124.616C75.5261 123.571 75.0455 122.498 74.5694 121.397C74.1528 120.461 73.9613 119.593 73.9948 118.792C74.043 117.984 74.2655 117.247 74.6625 116.583C75.0673 115.898 75.6319 115.29 76.3563 114.761C77.0886 114.211 77.9306 113.726 78.8822 113.307C79.8046 112.9 80.7082 112.624 81.5931 112.479C82.4713 112.319 83.3009 112.32 84.082 112.483C84.8709 112.625 85.5927 112.945 86.2473 113.443C86.9098 113.92 87.4752 114.606 87.9437 115.501C88.4727 116.527 88.9826 117.587 89.4734 118.682C89.9787 119.77 90.4459 120.814 90.8748 121.814C91.2846 122.735 91.4655 123.599 91.4173 124.407C91.3692 125.215 91.1393 125.954 90.7277 126.625C90.3229 127.311 89.7616 127.925 89.044 128.469C88.3331 129.027 87.5164 129.509 86.5941 129.916ZM84.2981 117.108C83.878 116.279 83.3062 115.788 82.5825 115.635C81.8522 115.468 81.0331 115.584 80.1254 115.984C79.1738 116.404 78.5287 116.933 78.1903 117.572C77.8666 118.204 77.8855 118.947 78.247 119.802C79.1801 121.925 80.1538 124.022 81.168 126.093C81.5949 126.936 82.1555 127.441 82.8498 127.607C83.5588 127.766 84.3891 127.636 85.3408 127.217C86.2338 126.823 86.8496 126.307 87.188 125.668C87.5343 125.008 87.5447 124.252 87.2192 123.399C86.8139 122.336 86.3575 121.296 85.8498 120.279C85.3567 119.255 84.8395 118.198 84.2981 117.108ZM94.9163 106.239C95.8533 105.826 96.7755 105.533 97.683 105.36C98.5837 105.173 99.4319 105.157 100.228 105.314C101.031 105.449 101.753 105.769 102.393 106.273C103.047 106.771 103.59 107.485 104.022 108.414L106.902 114.618C107.34 115.561 107.535 116.436 107.487 117.244C107.453 118.046 107.224 118.785 106.797 119.463C106.392 120.148 105.821 120.759 105.082 121.294C104.349 121.844 103.515 122.326 102.578 122.739L98.0976 124.714C97.5412 124.959 97.0493 125.001 96.6217 124.84C96.2009 124.693 95.8793 124.38 95.6569 123.902L89.4106 110.449C89.2219 110.043 89.2212 109.623 89.4086 109.191C89.5959 108.759 89.9458 108.43 90.4582 108.204L94.9163 106.239ZM98.9205 121.073L101.314 120.018C102.251 119.605 102.878 119.093 103.193 118.481C103.524 117.864 103.494 117.134 103.103 116.292L100.222 110.088C99.8316 109.247 99.289 108.743 98.5947 108.577C97.9082 108.39 97.0965 108.503 96.1595 108.916L93.7657 109.971L98.9205 121.073ZM105.749 103.404C105.493 102.853 105.502 102.359 105.776 101.924C106.065 101.482 106.458 101.151 106.956 100.932C107.19 100.828 107.434 100.765 107.687 100.74C107.948 100.695 108.197 100.699 108.433 100.752C108.669 100.806 108.886 100.911 109.083 101.069C109.28 101.227 109.442 101.444 109.57 101.72L115.705 114.933C115.84 115.223 115.903 115.492 115.895 115.741C115.894 116.004 115.836 116.239 115.721 116.447C115.612 116.67 115.454 116.862 115.247 117.023C115.061 117.192 114.851 117.329 114.617 117.432C114.368 117.542 114.11 117.612 113.842 117.642C113.58 117.688 113.321 117.68 113.063 117.618C112.827 117.565 112.6 117.456 112.381 117.29C112.185 117.132 112.019 116.907 111.884 116.617L105.749 103.404ZM132.746 107.237C132.908 107.586 132.991 107.899 132.996 108.176C133.002 108.453 132.947 108.696 132.832 108.904C132.724 109.127 132.573 109.315 132.38 109.47C132.195 109.64 131.984 109.776 131.75 109.879C131.267 110.092 130.798 110.203 130.343 110.211C129.895 110.234 129.484 110.126 129.109 109.889L119.046 103.6L122.846 111.785C123.123 112.38 123.131 112.892 122.872 113.321C122.612 113.75 122.248 114.068 121.78 114.274C121.531 114.384 121.273 114.454 121.005 114.485C120.743 114.53 120.484 114.522 120.226 114.461C119.99 114.408 119.763 114.298 119.544 114.132C119.348 113.974 119.182 113.75 119.047 113.46L112.872 100.159C112.791 99.9853 112.746 99.795 112.739 99.5886C112.746 99.3758 112.796 99.1613 112.89 98.9452C112.977 98.7145 113.117 98.5041 113.311 98.3137C113.513 98.1024 113.782 97.9226 114.119 97.7741C114.426 97.6386 114.707 97.541 114.961 97.4812C115.216 97.4215 115.465 97.4078 115.71 97.44C115.947 97.4576 116.197 97.5221 116.461 97.6333C116.724 97.7445 117.018 97.9033 117.343 98.1096L126.683 104.036L122.882 95.8515C122.626 95.3001 122.635 94.8066 122.909 94.3711C123.198 93.9292 123.591 93.5985 124.089 93.3791C124.323 93.2758 124.567 93.2121 124.82 93.1878C125.067 93.1491 125.308 93.1563 125.545 93.2094C125.781 93.2626 125.997 93.3682 126.194 93.5262C126.391 93.6842 126.553 93.901 126.682 94.1767L132.746 107.237ZM143.216 91.7657C142.704 91.9916 142.21 92.0691 141.737 91.9982C141.271 91.9064 140.935 91.6783 140.731 91.3139C140.402 90.7947 139.921 90.482 139.29 90.3757C138.667 90.2485 137.901 90.3849 136.993 90.785C136.056 91.1981 135.422 91.7312 135.09 92.3844C134.773 93.0311 134.788 93.785 135.135 94.646C135.598 95.7183 136.071 96.7946 136.555 97.875C137.032 98.9408 137.543 99.9832 138.086 101.002C138.528 101.839 139.096 102.341 139.79 102.506C140.484 102.672 141.307 102.546 142.259 102.126C143.167 101.726 143.786 101.217 144.116 100.599C144.447 99.9816 144.413 99.2447 144.016 98.3885L143.349 96.9518L141.306 97.8521C140.999 97.9876 140.726 98.0643 140.487 98.0821C140.242 98.0854 140.034 98.0548 139.863 97.9903C139.685 97.9113 139.537 97.8017 139.419 97.6614C139.301 97.5212 139.205 97.3712 139.131 97.2116C139.063 97.0665 139.018 96.9117 138.994 96.7472C138.964 96.5682 138.977 96.3876 139.034 96.2054C139.09 96.0231 139.201 95.8433 139.365 95.6659C139.53 95.4884 139.766 95.332 140.073 95.1964L144.378 93.299C145.388 92.8537 146.095 93.0664 146.499 93.9371L147.793 96.7234C148.231 97.6667 148.426 98.5423 148.378 99.3502C148.344 100.152 148.114 100.891 147.688 101.569C147.283 102.254 146.711 102.864 145.972 103.4C145.255 103.944 144.435 104.419 143.512 104.825C142.546 105.251 141.609 105.551 140.702 105.723C139.816 105.904 138.975 105.917 138.179 105.76C137.405 105.612 136.698 105.286 136.058 104.781C135.418 104.276 134.872 103.556 134.419 102.619C133.904 101.587 133.398 100.534 132.899 99.4602C132.401 98.3863 131.913 97.2987 131.437 96.1974C131.027 95.2767 130.847 94.4124 130.895 93.6045C130.943 92.7965 131.165 92.0603 131.562 91.3958C131.967 90.7104 132.521 90.0991 133.224 89.5619C133.92 89.0102 134.715 88.5376 135.608 88.1439C136.604 87.705 137.569 87.4105 138.505 87.2603C139.44 87.1101 140.296 87.0914 141.071 87.2041C141.84 87.3023 142.511 87.5311 143.083 87.8906C143.649 88.2356 144.064 88.691 144.326 89.257C144.845 90.3744 144.475 91.2107 143.216 91.7657Z" fill="white"/>
</g>
<g filter="url(#filter6_d)">
<path d="M183.56 55.816C183.56 54.536 183.8 53.272 184.28 52.024C184.76 50.776 185.448 49.672 186.344 48.712C187.272 47.72 188.36 46.92 189.608 46.312C190.888 45.704 192.328 45.4 193.928 45.4H209.576C211.144 45.4 212.568 45.704 213.848 46.312C215.128 46.92 216.216 47.72 217.112 48.712C218.04 49.672 218.744 50.776 219.224 52.024C219.704 53.272 219.944 54.536 219.944 55.816V59.176C219.944 60.488 219.736 61.736 219.32 62.92C218.904 64.072 218.264 65.112 217.4 66.04C216.568 66.936 215.512 67.656 214.232 68.2C212.984 68.744 211.512 69.016 209.816 69.016H205.688V78.904H218.456C219.352 78.904 220.088 78.984 220.664 79.144C221.24 79.336 221.688 79.576 222.008 79.864C222.328 80.184 222.536 80.536 222.632 80.92C222.76 81.336 222.824 81.784 222.824 82.264C222.824 82.648 222.76 83.032 222.632 83.416C222.536 83.832 222.328 84.184 222.008 84.472C221.688 84.792 221.24 85.048 220.664 85.24C220.088 85.432 219.352 85.528 218.456 85.528H185.096C184.2 85.528 183.464 85.432 182.888 85.24C182.312 85.048 181.864 84.792 181.544 84.472C181.224 84.184 181 83.832 180.872 83.416C180.776 83.032 180.728 82.648 180.728 82.264C180.728 81.784 180.776 81.336 180.872 80.92C181 80.536 181.224 80.184 181.544 79.864C181.864 79.576 182.312 79.336 182.888 79.144C183.464 78.984 184.2 78.904 185.096 78.904H197.912V69.016H193.736C192.04 69.016 190.552 68.744 189.272 68.2C188.024 67.656 186.968 66.936 186.104 66.04C185.272 65.112 184.632 64.072 184.184 62.92C183.768 61.736 183.56 60.488 183.56 59.176V55.816ZM191.336 57.976C191.336 59.16 191.656 60.168 192.296 61C192.968 61.832 193.992 62.28 195.368 62.344H208.136C209.512 62.28 210.52 61.832 211.16 61C211.832 60.168 212.168 59.16 212.168 57.976V56.44C212.168 55.224 211.832 54.2 211.16 53.368C210.52 52.504 209.464 52.072 207.992 52.072H195.512C194.04 52.072 192.968 52.504 192.296 53.368C191.656 54.2 191.336 55.224 191.336 56.44V57.976ZM281.763 78.28H288.771C289.667 78.28 290.403 78.376 290.979 78.568C291.555 78.76 292.003 79 292.323 79.288C292.643 79.608 292.851 79.96 292.947 80.344C293.075 80.76 293.139 81.16 293.139 81.544C293.139 82.024 293.075 82.456 292.947 82.84C292.851 83.256 292.643 83.608 292.323 83.896C292.003 84.216 291.555 84.456 290.979 84.616C290.403 84.808 289.667 84.904 288.771 84.904H277.875C276.979 84.904 276.275 84.808 275.763 84.616C275.251 84.456 274.851 84.216 274.563 83.896C274.307 83.608 274.147 83.256 274.083 82.84C274.019 82.456 273.987 82.024 273.987 81.544V49.576C273.987 47.976 274.371 46.888 275.139 46.312C275.939 45.704 276.851 45.4 277.875 45.4C278.387 45.4 278.867 45.464 279.315 45.592C279.795 45.72 280.211 45.944 280.563 46.264C280.915 46.584 281.203 47.016 281.427 47.56C281.651 48.104 281.763 48.776 281.763 49.576V78.28ZM300.339 49.096C300.339 47.496 300.723 46.408 301.491 45.832C302.291 45.224 303.203 44.92 304.227 44.92C304.739 44.92 305.219 44.984 305.667 45.112C306.147 45.24 306.563 45.464 306.915 45.784C307.267 46.104 307.555 46.536 307.779 47.08C308.003 47.624 308.115 48.296 308.115 49.096V60.616H311.139C312.035 60.616 312.771 60.712 313.347 60.904C313.923 61.096 314.371 61.352 314.691 61.672C315.011 61.96 315.219 62.312 315.315 62.728C315.443 63.112 315.507 63.496 315.507 63.88C315.507 64.36 315.443 64.808 315.315 65.224C315.219 65.608 315.011 65.96 314.691 66.28C314.371 66.568 313.923 66.808 313.347 67C312.771 67.16 312.035 67.24 311.139 67.24H308.115V81.88C308.115 82.712 308.003 83.4 307.779 83.944C307.555 84.488 307.267 84.92 306.915 85.24C306.563 85.56 306.147 85.784 305.667 85.912C305.219 86.04 304.739 86.104 304.227 86.104C303.715 86.104 303.219 86.04 302.739 85.912C302.291 85.784 301.875 85.56 301.491 85.24C301.139 84.92 300.851 84.488 300.627 83.944C300.435 83.4 300.339 82.712 300.339 81.88V49.096ZM379.83 45.976C380.694 45.976 381.366 46.072 381.846 46.264C382.326 46.424 382.694 46.664 382.95 46.984C383.206 47.272 383.366 47.64 383.43 48.088C383.494 48.536 383.526 49.048 383.526 49.624V56.344C383.526 57.88 383.494 59.368 383.43 60.808C383.398 62.216 383.286 63.544 383.094 64.792C382.934 66.008 382.678 67.144 382.326 68.2C382.006 69.256 381.542 70.184 380.934 70.984C380.614 71.432 380.246 71.768 379.83 71.992C379.414 72.184 378.982 72.312 378.534 72.376C378.086 72.44 377.638 72.44 377.19 72.376C376.774 72.28 376.39 72.152 376.038 71.992C375.27 71.64 374.694 71.096 374.31 70.36C373.958 69.624 373.942 68.776 374.262 67.816C374.518 67.016 374.71 66.296 374.838 65.656C374.998 64.984 375.126 64.344 375.222 63.736H352.326C351.43 63.736 350.694 63.656 350.118 63.496C349.542 63.304 349.094 63.064 348.774 62.776C348.454 62.456 348.23 62.104 348.102 61.72C348.006 61.304 347.958 60.856 347.958 60.376C347.958 59.992 348.006 59.608 348.102 59.224C348.23 58.808 348.454 58.456 348.774 58.168C349.094 57.848 349.542 57.592 350.118 57.4C350.694 57.208 351.43 57.112 352.326 57.112H375.558V52.6H352.71C351.814 52.6 351.078 52.52 350.502 52.36C349.926 52.168 349.478 51.928 349.158 51.64C348.838 51.32 348.614 50.968 348.486 50.584C348.39 50.168 348.342 49.72 348.342 49.24C348.342 48.856 348.39 48.472 348.486 48.088C348.614 47.672 348.838 47.32 349.158 47.032C349.478 46.712 349.926 46.456 350.502 46.264C351.078 46.072 351.814 45.976 352.71 45.976H379.83ZM345.126 82.264C345.126 81.784 345.174 81.336 345.27 80.92C345.398 80.536 345.622 80.184 345.942 79.864C346.262 79.576 346.71 79.336 347.286 79.144C347.862 78.984 348.598 78.904 349.494 78.904H357.606V72.184C357.606 70.584 357.99 69.496 358.758 68.92C359.558 68.312 360.47 68.008 361.494 68.008C362.006 68.008 362.486 68.072 362.934 68.2C363.414 68.328 363.83 68.552 364.182 68.872C364.534 69.192 364.822 69.624 365.046 70.168C365.27 70.712 365.382 71.384 365.382 72.184V78.904H382.854C383.75 78.904 384.486 78.984 385.062 79.144C385.638 79.336 386.086 79.576 386.406 79.864C386.726 80.184 386.934 80.536 387.03 80.92C387.158 81.336 387.222 81.784 387.222 82.264C387.222 82.648 387.158 83.032 387.03 83.416C386.934 83.832 386.726 84.184 386.406 84.472C386.086 84.792 385.638 85.048 385.062 85.24C384.486 85.432 383.75 85.528 382.854 85.528H349.494C348.598 85.528 347.862 85.432 347.286 85.24C346.71 85.048 346.262 84.792 345.942 84.472C345.622 84.184 345.398 83.832 345.27 83.416C345.174 83.032 345.126 82.648 345.126 82.264Z" fill="#80DEEA"/>
</g>
<path d="M231.842 77.506H242.678V79.774H228.818V74.41H231.842V77.506ZM243.434 82.636H227.882V80.422H243.434V82.636ZM242.534 87.37H231.77V87.946H242.696V89.872H228.8V85.75H239.564V85.192H228.764V83.284H242.534V87.37ZM260.748 86.506V89.332H245.196V86.506H251.442V83.968H246.042V74.86H259.902V77.686H249.156V81.16H260.082V83.968H254.538V86.506H260.748ZM316.956 78.136H327.72V80.656H313.896V74.41H316.956V78.136ZM328.512 84.256H312.96V81.718H328.512V84.256ZM316.956 87.334H327.792V89.872H313.86V85.102H316.956V87.334ZM405.682 82.96H402.64V74.5H405.682V82.96ZM401.038 77.182H394.378V79.846H398.374C399.07 79.846 399.736 79.798 400.372 79.702C401.008 79.606 401.524 79.474 401.92 79.306V81.808C401.524 81.976 401.008 82.108 400.372 82.204C399.736 82.3 399.058 82.348 398.338 82.348H391.318V74.68H401.038V77.182ZM398.806 83.176C400.942 83.176 402.646 83.452 403.918 84.004C405.19 84.544 405.826 85.414 405.826 86.614C405.826 87.814 405.19 88.684 403.918 89.224C402.646 89.776 400.942 90.052 398.806 90.052C396.67 90.052 394.966 89.776 393.694 89.224C392.422 88.684 391.786 87.814 391.786 86.614C391.786 85.414 392.422 84.544 393.694 84.004C394.966 83.452 396.67 83.176 398.806 83.176ZM398.806 85.606C397.69 85.606 396.784 85.69 396.088 85.858C395.404 86.026 395.062 86.278 395.062 86.614C395.062 86.962 395.404 87.22 396.088 87.388C396.772 87.544 397.678 87.622 398.806 87.622C399.934 87.622 400.84 87.544 401.524 87.388C402.208 87.22 402.55 86.962 402.55 86.614C402.55 86.278 402.202 86.026 401.506 85.858C400.822 85.69 399.922 85.606 398.806 85.606ZM418.496 77.92H407.984V75.544H411.692V74.23H414.788V75.544H418.496V77.92ZM424.364 78.064V81.016H422.564V85.966H419.522V74.5H422.564V78.064H424.364ZM413.24 84.688C412.364 84.688 411.566 84.568 410.846 84.328C410.138 84.088 409.574 83.728 409.154 83.248C408.734 82.768 408.524 82.192 408.524 81.52C408.524 80.848 408.734 80.272 409.154 79.792C409.574 79.312 410.138 78.952 410.846 78.712C411.566 78.472 412.364 78.352 413.24 78.352C414.116 78.352 414.908 78.472 415.616 78.712C416.336 78.952 416.906 79.312 417.326 79.792C417.746 80.272 417.956 80.848 417.956 81.52C417.956 82.192 417.746 82.768 417.326 83.248C416.906 83.728 416.336 84.088 415.616 84.328C414.908 84.568 414.116 84.688 413.24 84.688ZM413.24 80.548C412.7 80.548 412.262 80.644 411.926 80.836C411.59 81.016 411.422 81.244 411.422 81.52C411.422 81.796 411.59 82.03 411.926 82.222C412.262 82.402 412.7 82.492 413.24 82.492C413.78 82.492 414.218 82.402 414.554 82.222C414.89 82.03 415.058 81.796 415.058 81.52C415.058 81.244 414.89 81.016 414.554 80.836C414.218 80.644 413.78 80.548 413.24 80.548ZM412.088 87.226H422.78V89.872H408.992V85.138H412.088V87.226ZM441.679 83.068H439.879V89.872H436.837V74.5H439.879V80.116H441.679V83.068ZM432.139 86.398C432.883 86.398 433.615 86.338 434.335 86.218C435.067 86.098 435.661 85.93 436.117 85.714V88.432C435.673 88.66 435.055 88.834 434.263 88.954C433.483 89.086 432.703 89.152 431.923 89.152H425.965V74.86H434.911V77.614H429.061V86.398H432.139Z" fill="#607D8B"/>
<defs>
<filter id="filter0_d" x="0" y="27.4199" width="87.2469" height="85.2148" filterUnits="userSpaceOnUse" color-interpolation-filters="sRGB">
<feFlood flood-opacity="0" result="BackgroundImageFix"/>
<feColorMatrix in="SourceAlpha" type="matrix" values="0 0 0 0 0 0 0 0 0 0 0 0 0 0 0 0 0 0 127 0" result="hardAlpha"/>
<feOffset dy="4"/>
<feGaussianBlur stdDeviation="2"/>
<feColorMatrix type="matrix" values="0 0 0 0 0 0 0 0 0 0 0 0 0 0 0 0 0 0 0.25 0"/>
<feBlend mode="normal" in2="BackgroundImageFix" result="effect1_dropShadow"/>
<feBlend mode="normal" in="SourceGraphic" in2="effect1_dropShadow" result="shape"/>
</filter>
<filter id="filter1_d" x="27.647" y="59.5439" width="149.448" height="112.634" filterUnits="userSpaceOnUse" color-interpolation-filters="sRGB">
<feFlood flood-opacity="0" result="BackgroundImageFix"/>
<feColorMatrix in="SourceAlpha" type="matrix" values="0 0 0 0 0 0 0 0 0 0 0 0 0 0 0 0 0 0 127 0" result="hardAlpha"/>
<feOffset dy="4"/>
<feGaussianBlur stdDeviation="2"/>
<feColorMatrix type="matrix" values="0 0 0 0 0 0 0 0 0 0 0 0 0 0 0 0 0 0 0.25 0"/>
<feBlend mode="normal" in2="BackgroundImageFix" result="effect1_dropShadow"/>
<feBlend mode="normal" in="SourceGraphic" in2="effect1_dropShadow" result="shape"/>
</filter>
<filter id="filter2_d" x="62.2007" y="0" width="87.2469" height="85.2148" filterUnits="userSpaceOnUse" color-interpolation-filters="sRGB">
<feFlood flood-opacity="0" result="BackgroundImageFix"/>
<feColorMatrix in="SourceAlpha" type="matrix" values="0 0 0 0 0 0 0 0 0 0 0 0 0 0 0 0 0 0 127 0" result="hardAlpha"/>
<feOffset dy="4"/>
<feGaussianBlur stdDeviation="2"/>
<feColorMatrix type="matrix" values="0 0 0 0 0 0 0 0 0 0 0 0 0 0 0 0 0 0 0.25 0"/>
<feBlend mode="normal" in2="BackgroundImageFix" result="effect1_dropShadow"/>
<feBlend mode="normal" in="SourceGraphic" in2="effect1_dropShadow" result="shape"/>
</filter>
<filter id="filter3_d" x="27.0332" y="53.2568" width="34.1508" height="35.8988" filterUnits="userSpaceOnUse" color-interpolation-filters="sRGB">
<feFlood flood-opacity="0" result="BackgroundImageFix"/>
<feColorMatrix in="SourceAlpha" type="matrix" values="0 0 0 0 0 0 0 0 0 0 0 0 0 0 0 0 0 0 127 0" result="hardAlpha"/>
<feOffset dy="4"/>
<feGaussianBlur stdDeviation="2"/>
<feColorMatrix type="matrix" values="0 0 0 0 0 0 0 0 0 0 0 0 0 0 0 0 0 0 0.25 0"/>
<feBlend mode="normal" in2="BackgroundImageFix" result="effect1_dropShadow"/>
<feBlend mode="normal" in="SourceGraphic" in2="effect1_dropShadow" result="shape"/>
</filter>
<filter id="filter4_d" x="87.0869" y="23.6113" width="38.387" height="40.0255" filterUnits="userSpaceOnUse" color-interpolation-filters="sRGB">
<feFlood flood-opacity="0" result="BackgroundImageFix"/>
<feColorMatrix in="SourceAlpha" type="matrix" values="0 0 0 0 0 0 0 0 0 0 0 0 0 0 0 0 0 0 127 0" result="hardAlpha"/>
<feOffset dy="4"/>
<feGaussianBlur stdDeviation="2"/>
<feColorMatrix type="matrix" values="0 0 0 0 0 0 0 0 0 0 0 0 0 0 0 0 0 0 0.25 0"/>
<feBlend mode="normal" in2="BackgroundImageFix" result="effect1_dropShadow"/>
<feBlend mode="normal" in="SourceGraphic" in2="effect1_dropShadow" result="shape"/>
</filter>
<filter id="filter5_d" x="55.4746" y="87.1318" width="96.9103" height="58.2691" filterUnits="userSpaceOnUse" color-interpolation-filters="sRGB">
<feFlood flood-opacity="0" result="BackgroundImageFix"/>
<feColorMatrix in="SourceAlpha" type="matrix" values="0 0 0 0 0 0 0 0 0 0 0 0 0 0 0 0 0 0 127 0" result="hardAlpha"/>
<feOffset dy="4"/>
<feGaussianBlur stdDeviation="2"/>
<feColorMatrix type="matrix" values="0 0 0 0 0 0 0 0 0 0 0 0 0 0 0 0 0 0 0.25 0"/>
<feBlend mode="normal" in2="BackgroundImageFix" result="effect1_dropShadow"/>
<feBlend mode="normal" in="SourceGraphic" in2="effect1_dropShadow" result="shape"/>
</filter>
<filter id="filter6_d" x="176.728" y="44.9199" width="214.494" height="49.184" filterUnits="userSpaceOnUse" color-interpolation-filters="sRGB">
<feFlood flood-opacity="0" result="BackgroundImageFix"/>
<feColorMatrix in="SourceAlpha" type="matrix" values="0 0 0 0 0 0 0 0 0 0 0 0 0 0 0 0 0 0 127 0" result="hardAlpha"/>
<feOffset dy="4"/>
<feGaussianBlur stdDeviation="2"/>
<feColorMatrix type="matrix" values="0 0 0 0 0.376471 0 0 0 0 0.490196 0 0 0 0 0.545098 0 0 0 1 0"/>
<feBlend mode="normal" in2="BackgroundImageFix" result="effect1_dropShadow"/>
<feBlend mode="normal" in="SourceGraphic" in2="effect1_dropShadow" result="shape"/>
</filter>
</defs>
</svg>
