<svg width="18" height="18" viewBox="0 0 18 18" fill="none" xmlns="http://www.w3.org/2000/svg">
<path fill-rule="evenodd" clip-rule="evenodd" d="M3.27273 0C2.40475 0 1.57232 0.344804 0.95856 0.95856C0.344804 1.57232 0 2.40475 0 3.27273V14.7273C0 15.5953 0.344804 16.4277 0.95856 17.0414C1.57232 17.6552 2.40475 18 3.27273 18H14.7273C15.5953 18 16.4277 17.6552 17.0414 17.0414C17.6552 16.4277 18 15.5953 18 14.7273V3.27273C18 2.40475 17.6552 1.57232 17.0414 0.95856C16.4277 0.344804 15.5953 0 14.7273 0H3.27273ZM9.25854 3.31445C9.36053 3.34839 9.45482 3.40208 9.53604 3.47246C9.61727 3.54285 9.68383 3.62854 9.73193 3.72466C9.78002 3.82077 9.80871 3.92542 9.81635 4.03263C9.82399 4.13983 9.81043 4.24749 9.77645 4.34945L9.04418 6.54545H10.5922L11.4963 3.83236C11.5648 3.62644 11.7124 3.45618 11.9065 3.35905C12.1006 3.26193 12.3253 3.24588 12.5313 3.31445C12.7372 3.38303 12.9075 3.53059 13.0046 3.72469C13.1017 3.91879 13.1178 4.14353 13.0492 4.34945L12.3169 6.54545H14.7273C14.9443 6.54545 15.1524 6.63166 15.3058 6.78509C15.4593 6.93853 15.5455 7.14664 15.5455 7.36364C15.5455 7.58063 15.4593 7.78874 15.3058 7.94218C15.1524 8.09562 14.9443 8.18182 14.7273 8.18182H11.7712L11.2263 9.81818H13.0909C13.3079 9.81818 13.516 9.90438 13.6695 10.0578C13.8229 10.2113 13.9091 10.4194 13.9091 10.6364C13.9091 10.8534 13.8229 11.0615 13.6695 11.2149C13.516 11.3683 13.3079 11.4545 13.0909 11.4545H10.6805L9.77645 14.1676C9.70788 14.3736 9.56032 14.5438 9.36622 14.6409C9.17212 14.7381 8.94738 14.7541 8.74145 14.6855C8.53553 14.617 8.36527 14.4694 8.26814 14.2753C8.17102 14.0812 8.15497 13.8565 8.22355 13.6505L8.95582 11.4545H7.40782L6.50455 14.1676C6.43597 14.3736 6.28841 14.5438 6.09431 14.6409C5.90021 14.7381 5.67547 14.7541 5.46955 14.6855C5.26362 14.617 5.09336 14.4694 4.99624 14.2753C4.89911 14.0812 4.88307 13.8565 4.95164 13.6505L5.68309 11.4545H3.27273C3.05573 11.4545 2.84762 11.3683 2.69419 11.2149C2.54075 11.0615 2.45455 10.8534 2.45455 10.6364C2.45455 10.4194 2.54075 10.2113 2.69419 10.0578C2.84762 9.90438 3.05573 9.81818 3.27273 9.81818H6.22882L6.77373 8.18182H4.90909C4.6921 8.18182 4.48399 8.09562 4.33055 7.94218C4.17711 7.78874 4.09091 7.58063 4.09091 7.36364C4.09091 7.14664 4.17711 6.93853 4.33055 6.78509C4.48399 6.63166 4.6921 6.54545 4.90909 6.54545H7.31945L8.22355 3.83236C8.25748 3.73038 8.31117 3.63609 8.38155 3.55486C8.45194 3.47364 8.53763 3.40708 8.63375 3.35898C8.72986 3.31089 8.83451 3.2822 8.94172 3.27456C9.04892 3.26692 9.15658 3.28048 9.25854 3.31445ZM7.95355 9.81818L8.49845 8.18182H10.0465L9.50154 9.81818H7.95273H7.95355Z" fill="#607D8B"/>
</svg>
