<svg width="15" height="18" viewBox="0 0 15 18" fill="none" xmlns="http://www.w3.org/2000/svg">
<path d="M14.3629 8.14596C13.9493 7.26689 13.348 6.47789 12.5966 5.82831L11.9765 5.29114C11.9555 5.2734 11.9302 5.26082 11.9028 5.25448C11.8753 5.24815 11.8467 5.24827 11.8194 5.25482C11.792 5.26138 11.7668 5.27417 11.7459 5.29208C11.725 5.30999 11.7091 5.33246 11.6996 5.35753L11.4226 6.10795C11.25 6.57873 10.9325 7.05956 10.4829 7.53234C10.4531 7.56252 10.419 7.57057 10.3956 7.57258C10.3721 7.57459 10.3359 7.57057 10.304 7.5424C10.2741 7.51826 10.2592 7.48205 10.2614 7.44583C10.3402 6.2347 9.95667 4.86865 9.11718 3.3819C8.42258 2.14662 7.45738 1.18294 6.25141 0.510986L5.37144 0.0221065C5.25639 -0.0422727 5.10937 0.0422249 5.11576 0.168971L5.16264 1.13466C5.1946 1.79455 5.11363 2.37798 4.92187 2.86284C4.6875 3.45633 4.35085 4.00758 3.92045 4.5025C3.62093 4.84645 3.28144 5.15755 2.90838 5.42996C2.00988 6.08213 1.27929 6.91779 0.771306 7.87436C0.264575 8.83927 0.00061824 9.90162 0 10.9786C0 11.9282 0.198153 12.8477 0.590198 13.7148C0.968748 14.5496 1.51504 15.3073 2.19886 15.9459C2.8892 16.5897 3.69034 17.0967 4.58309 17.4488C5.50781 17.8149 6.48792 18 7.49999 18C8.51206 18 9.49218 17.8149 10.4169 17.4508C11.3074 17.1008 12.1173 16.5903 12.8011 15.9479C13.4915 15.3041 14.0327 14.5517 14.4098 13.7168C14.8012 12.852 15.0021 11.9211 15 10.9807C15 9.99887 14.7869 9.04526 14.3629 8.14596Z" fill="#607D8B"/>
</svg>
