<svg width="230" height="40" viewBox="0 0 319 43" fill="none" xmlns="http://www.w3.org/2000/svg">
<rect width="319" height="45" rx="5" fill="#607D8B"/>
<path d="M149.962 25.56V28.332H134.41V25.56H140.638V23.832H135.274V17.568H146.11V16.524H135.238V13.86H149.116V20.106H138.28V21.168H149.296V23.832H143.734V25.56H149.962ZM166.431 24.498H163.209V16.704H152.535V13.86H166.431V24.498ZM167.277 28.332H151.725V25.47H167.277V28.332ZM183.907 24.876H180.865V13.5H183.907V24.876ZM174.043 13.518C175.039 13.518 175.915 13.71 176.671 14.094C177.439 14.478 178.033 15.018 178.453 15.714C178.885 16.41 179.101 17.214 179.101 18.126C179.101 19.05 178.885 19.86 178.453 20.556C178.033 21.252 177.439 21.792 176.671 22.176C175.915 22.548 175.039 22.734 174.043 22.734C173.047 22.734 172.165 22.548 171.397 22.176C170.641 21.792 170.047 21.252 169.615 20.556C169.195 19.86 168.985 19.05 168.985 18.126C168.985 17.214 169.195 16.41 169.615 15.714C170.047 15.018 170.641 14.478 171.397 14.094C172.165 13.71 173.047 13.518 174.043 13.518ZM174.043 16.056C173.443 16.056 172.951 16.242 172.567 16.614C172.195 16.974 172.009 17.478 172.009 18.126C172.009 18.774 172.195 19.284 172.567 19.656C172.951 20.016 173.443 20.196 174.043 20.196C174.643 20.196 175.129 20.016 175.501 19.656C175.885 19.284 176.077 18.774 176.077 18.126C176.077 17.478 175.885 16.974 175.501 16.614C175.129 16.242 174.643 16.056 174.043 16.056ZM173.431 26.136H184.123V28.872H170.335V23.49H173.431V26.136Z" fill="white"/>
</svg>
