<svg width="79" height="74" viewBox="0 0 79 74" fill="none" xmlns="http://www.w3.org/2000/svg">
    <g filter="url(#filter0_d)">
    <rect width="24.4916" height="23.3789" transform="matrix(0.909129 -0.416515 0.47113 0.882064 4 21.8301)" fill="#80DEEA"/>
    <rect width="52.4119" height="23.3789" transform="matrix(0.909129 -0.416515 0.47113 0.882064 16.3364 44.9268)" fill="#607D8B"/>
    <rect width="24.4916" height="23.3789" transform="matrix(0.909129 -0.416515 0.47113 0.882064 29.3833 10.2012)" fill="#80DEEA"/>
    <path d="M24.0954 33.4924C23.3754 33.8223 22.6732 34.0583 21.9887 34.2006C21.3209 34.3485 20.6813 34.3714 20.0701 34.2694C19.4754 34.173 18.9254 33.9441 18.4201 33.5827C17.9147 33.2214 17.4729 32.6992 17.0945 32.0162C16.6656 31.2641 16.2505 30.5122 15.8491 29.7607C15.442 28.9986 15.0374 28.2156 14.6352 27.4118C14.2843 26.7294 14.1071 26.0925 14.1036 25.5012C14.111 24.905 14.2537 24.3587 14.5318 23.8624C14.8151 23.3505 15.2229 22.8936 15.7551 22.4917C16.2925 22.0742 16.9158 21.703 17.6249 21.3781C18.3122 21.0632 18.99 20.8449 19.6583 20.7232C20.3209 20.5909 20.9524 20.5783 21.5527 20.6853C22.1583 20.7768 22.7192 21.0007 23.2354 21.357C23.7569 21.6978 24.2121 22.1941 24.601 22.8459C25.0408 23.5931 25.4673 24.366 25.8804 25.1649C26.3044 25.9587 26.6977 26.7206 27.0603 27.4503C27.4056 28.1222 27.5745 28.7562 27.5671 29.3525C27.5597 29.9488 27.4115 30.4975 27.1225 30.9988C26.8392 31.5107 26.4342 31.9729 25.9077 32.3854C25.3868 32.8085 24.7827 33.1775 24.0954 33.4924ZM21.8846 24.0905C21.5348 23.4866 21.0818 23.1342 20.5255 23.0333C19.9636 22.9219 19.3444 23.0211 18.668 23.331C17.9589 23.6559 17.4871 24.0565 17.2527 24.5328C17.0291 25.0041 17.0704 25.5517 17.3765 26.1756C18.1635 27.7254 18.9805 29.2549 19.8273 30.7641C20.1827 31.3786 20.6276 31.7413 21.1621 31.8521C21.7075 31.958 22.3347 31.8485 23.0439 31.5236C23.7094 31.2187 24.1593 30.8281 24.3938 30.3518C24.6335 29.8599 24.614 29.3023 24.3354 28.679C23.9885 27.9025 23.6035 27.1435 23.1803 26.4019C22.768 25.6554 22.3361 24.8849 21.8846 24.0905Z" fill="white"/>
    <path d="M53.8445 18.1044C53.9802 18.3585 54.0551 18.5876 54.0692 18.792C54.0833 18.9963 54.0503 19.1761 53.9703 19.3314C53.8959 19.4972 53.7882 19.6388 53.6472 19.7561C53.5118 19.884 53.3568 19.9879 53.1823 20.0679C52.8223 20.2328 52.4693 20.322 52.1235 20.3356C51.7833 20.3597 51.4664 20.2875 51.1727 20.119L43.2859 15.6495L46.4745 21.6193C46.7063 22.0533 46.7313 22.4305 46.5494 22.751C46.3675 23.0715 46.102 23.3117 45.7529 23.4716C45.5674 23.5566 45.3733 23.6126 45.1705 23.6397C44.9733 23.6773 44.7755 23.6757 44.5772 23.6348C44.3954 23.5995 44.2184 23.5225 44.0464 23.4037C43.8908 23.2905 43.7565 23.1281 43.6435 22.9164L38.462 13.2154C38.3941 13.0884 38.3536 12.9489 38.3403 12.7969C38.3379 12.6399 38.3684 12.481 38.4319 12.3201C38.4897 12.1487 38.5889 11.9913 38.7296 11.8478C38.8755 11.6887 39.0739 11.5517 39.3248 11.4368C39.5539 11.3318 39.7642 11.2552 39.9557 11.207C40.1472 11.1588 40.3365 11.1445 40.5236 11.1642C40.705 11.1733 40.8979 11.2167 41.1023 11.2943C41.3067 11.372 41.5363 11.4841 41.7912 11.6308L49.1139 15.845L45.9253 9.87517C45.7105 9.47295 45.6995 9.1091 45.8922 8.78362C46.0959 8.45315 46.3833 8.20294 46.7542 8.033C46.9287 7.95303 47.112 7.90202 47.3039 7.87997C47.4901 7.84734 47.6742 7.84866 47.856 7.88395C48.0378 7.91923 48.2064 7.99347 48.3619 8.10667C48.5175 8.21987 48.6489 8.37703 48.7563 8.57814L53.8445 18.1044Z" fill="white"/>
    <path d="M29.3286 50.7757C29.0959 50.8824 28.8694 50.9159 28.6491 50.8763C28.425 50.8296 28.2567 50.7179 28.1441 50.5411C27.9718 50.2863 27.7387 50.1295 27.4449 50.0709C27.1473 50.0053 26.7912 50.0674 26.3766 50.2573C25.5621 50.6305 25.3552 51.2347 25.756 52.07C26.0244 52.6233 26.2943 53.154 26.5657 53.6621C26.8406 54.1598 27.121 54.6593 27.4069 55.1607C27.6438 55.5704 27.9186 55.8222 28.2313 55.916C28.544 56.0099 28.9076 55.9619 29.3221 55.772C29.7513 55.5754 30.017 55.3526 30.1194 55.1037C30.2291 54.8514 30.2117 54.5476 30.0671 54.1922C29.9874 54.0092 30.0028 53.8177 30.1133 53.6177C30.2238 53.4178 30.3845 53.2695 30.5954 53.1729C31.1627 52.913 31.5952 53.0618 31.893 53.6192C32.0475 53.9085 32.1199 54.2135 32.1101 54.5342C32.1076 54.8516 32.0263 55.1655 31.8663 55.4759C31.7062 55.7864 31.469 56.0796 31.1546 56.3554C30.8513 56.6349 30.4741 56.8779 30.0232 57.0845C29.5941 57.2811 29.1696 57.4185 28.7496 57.4967C28.3335 57.582 27.9326 57.5856 27.5469 57.5076C27.165 57.4366 26.8056 57.2807 26.4687 57.0398C26.1391 56.7955 25.8445 56.4474 25.585 55.9954C24.9792 54.9291 24.4233 53.8882 23.9172 52.8729C23.6943 52.4217 23.5817 51.999 23.5793 51.6048C23.577 51.2106 23.6613 50.8514 23.8321 50.5272C24.0065 50.1926 24.251 49.8962 24.5656 49.6378C24.8765 49.3724 25.2319 49.1481 25.632 48.9648C26.0756 48.7616 26.5112 48.6279 26.9386 48.5638C27.3734 48.4964 27.7743 48.4927 28.1414 48.5529C28.5047 48.606 28.8251 48.7228 29.1024 48.9031C29.3833 49.0731 29.5973 49.2956 29.7442 49.5708C30.0345 50.1142 29.8959 50.5158 29.3286 50.7757ZM37.4543 53.68C36.9743 53.8999 36.5061 54.0573 36.0498 54.1521C35.6046 54.2507 35.1782 54.266 34.7707 54.198C34.3743 54.1337 34.0076 53.9811 33.6707 53.7402C33.3338 53.4993 33.0392 53.1512 32.787 52.6958C32.5011 52.1944 32.2243 51.6932 31.9567 51.1922C31.6853 50.6841 31.4156 50.1621 31.1475 49.6262C30.9135 49.1713 30.7954 48.7467 30.793 48.3525C30.798 47.955 30.8932 47.5908 31.0785 47.26C31.2674 46.9187 31.5393 46.6141 31.8941 46.3462C32.2524 46.0678 32.6679 45.8204 33.1406 45.6038C33.5988 45.3939 34.0507 45.2483 34.4962 45.1672C34.9379 45.079 35.3589 45.0706 35.7591 45.1419C36.1629 45.2029 36.5368 45.3521 36.881 45.5897C37.2286 45.8169 37.5321 46.1478 37.7914 46.5823C38.0846 47.0804 38.3689 47.5957 38.6443 48.1283C38.9269 48.6575 39.1891 49.1654 39.4309 49.6519C39.6611 50.0998 39.7737 50.5225 39.7687 50.92C39.7638 51.3175 39.665 51.6834 39.4723 52.0176C39.2834 52.3589 39.0135 52.667 38.6625 52.942C38.3152 53.224 37.9125 53.47 37.4543 53.68ZM35.9804 47.412C35.7472 47.0094 35.4452 46.7745 35.0744 46.7073C34.6997 46.633 34.2869 46.6991 33.836 46.9057C33.3633 47.1223 33.0487 47.3894 32.8924 47.7069C32.7434 48.0211 32.7709 48.3862 32.975 48.8021C33.4997 49.8353 34.0443 50.855 34.6089 51.8611C34.8458 52.2708 35.1424 52.5126 35.4987 52.5865C35.8623 52.657 36.2805 52.584 36.7532 52.3674C37.1969 52.1642 37.4969 51.9038 37.6532 51.5863C37.813 51.2583 37.8 50.8866 37.6143 50.471C37.383 49.9534 37.1263 49.4474 36.8442 48.953C36.5693 48.4553 36.2814 47.9417 35.9804 47.412ZM41.1059 41.9545C41.5713 41.7413 42.0322 41.5872 42.4885 41.4923C42.941 41.3904 43.371 41.3735 43.7785 41.4415C44.1895 41.4991 44.5635 41.6484 44.9004 41.8893C45.2445 42.1269 45.5372 42.4715 45.7784 42.9231L47.3897 45.9397C47.6347 46.3984 47.7547 46.8265 47.7498 47.224C47.7521 47.6182 47.6533 47.9841 47.4533 48.3216C47.2645 48.6628 46.989 48.9691 46.6269 49.2404C46.2686 49.5187 45.8567 49.7645 45.3913 49.9778L43.1657 50.9974C42.8893 51.124 42.6407 51.1501 42.4199 51.0756C42.2028 51.0082 42.0321 50.858 41.9077 50.6252L38.4138 44.0838C38.3083 43.8862 38.2978 43.6802 38.3825 43.4657C38.4671 43.2513 38.6367 43.0858 38.8912 42.9692L41.1059 41.9545ZM43.4954 49.1995L44.6846 48.6547C45.15 48.4414 45.4555 48.1829 45.6011 47.8791C45.7539 47.5719 45.7209 47.2137 45.5023 46.8044L43.8911 43.7878C43.6725 43.3785 43.385 43.1369 43.0287 43.063C42.6759 42.9787 42.2667 43.0432 41.8013 43.2565L40.6121 43.8013L43.4954 49.1995ZM46.534 40.4426C46.3908 40.1744 46.3834 39.9319 46.512 39.7149C46.6478 39.4946 46.8393 39.3278 47.0866 39.2145C47.203 39.1612 47.3251 39.1271 47.4531 39.1124C47.5845 39.0874 47.7108 39.0866 47.832 39.1101C47.9532 39.1336 48.0657 39.1831 48.1693 39.2586C48.273 39.334 48.3607 39.4388 48.4323 39.5729L51.864 45.9978C51.9394 46.139 51.978 46.2706 51.9798 46.3927C51.9855 46.5219 51.9616 46.6382 51.9082 46.7417C51.8587 46.8523 51.7832 46.9483 51.6819 47.0298C51.5917 47.1151 51.4884 47.1844 51.372 47.2377C51.2484 47.2944 51.1189 47.3317 50.9837 47.3497C50.8523 47.3748 50.7204 47.3737 50.5882 47.3465C50.467 47.323 50.349 47.2716 50.2343 47.1924C50.1306 47.117 50.0411 47.0087 49.9657 46.8675L46.534 40.4426ZM60.3248 42.0293C60.4153 42.1987 60.4652 42.3515 60.4746 42.4877C60.484 42.6239 60.462 42.7438 60.4087 42.8473C60.3591 42.9578 60.2873 43.0522 60.1932 43.1304C60.103 43.2157 59.9997 43.285 59.8833 43.3383C59.6433 43.4482 59.408 43.5077 59.1775 43.5167C58.9507 43.5328 58.7394 43.4847 58.5436 43.3724L53.2857 40.3927L55.4115 44.3726C55.566 44.6619 55.5826 44.9134 55.4614 45.127C55.3401 45.3407 55.1631 45.5008 54.9304 45.6074C54.8067 45.6641 54.6773 45.7014 54.5421 45.7195C54.4107 45.7446 54.2788 45.7435 54.1466 45.7162C54.0254 45.6927 53.9074 45.6413 53.7927 45.5622C53.689 45.4867 53.5995 45.3784 53.5241 45.2373L50.0698 38.77C50.0246 38.6853 49.9975 38.5923 49.9886 38.4909C49.9871 38.3863 50.0074 38.2803 50.0497 38.1731C50.0883 38.0588 50.1544 37.9539 50.2482 37.8582C50.3454 37.7522 50.4777 37.6608 50.645 37.5842C50.7977 37.5142 50.9379 37.4632 51.0656 37.431C51.1933 37.3989 51.3195 37.3894 51.4442 37.4025C51.5651 37.4086 51.6937 37.4375 51.83 37.4892C51.9662 37.541 52.1193 37.6158 52.2893 37.7136L57.1711 40.523L55.0453 36.5431C54.9021 36.275 54.8948 36.0324 55.0233 35.8154C55.1591 35.5951 55.3506 35.4283 55.5979 35.315C55.7143 35.2617 55.8364 35.2277 55.9644 35.213C56.0886 35.1912 56.2112 35.1921 56.3324 35.2157C56.4536 35.2392 56.5661 35.2887 56.6697 35.3641C56.7734 35.4396 56.8611 35.5444 56.9327 35.6784L60.3248 42.0293ZM65.2641 34.3119C65.0096 34.4286 64.7613 34.4721 64.5191 34.4425C64.2805 34.4025 64.1049 34.2941 63.9924 34.1173C63.8128 33.8658 63.5615 33.7174 63.2386 33.6721C62.9192 33.6165 62.534 33.6919 62.0831 33.8985C61.6176 34.1118 61.3086 34.3807 61.1561 34.7053C61.0108 35.0265 61.0366 35.3968 61.2334 35.8161C61.494 36.3379 61.7601 36.8615 62.0317 37.387C62.2996 37.9055 62.5837 38.4121 62.8842 38.9068C63.1284 39.3132 63.4286 39.5533 63.785 39.6272C64.1413 39.7011 64.5558 39.6298 65.0286 39.4132C65.4795 39.2066 65.7814 38.9497 65.9341 38.6426C66.0869 38.3354 66.0521 37.9737 65.8298 37.5573L65.4566 36.8587L64.4421 37.3236C64.2893 37.3935 64.1526 37.4342 64.032 37.4456C63.9075 37.4499 63.8011 37.4372 63.7128 37.4074C63.6207 37.3705 63.543 37.3183 63.4797 37.2506C63.4164 37.183 63.3641 37.1104 63.3226 37.0328C63.2849 36.9622 63.2581 36.8866 63.2423 36.8061C63.2226 36.7185 63.2249 36.6296 63.2492 36.5394C63.2735 36.4492 63.3252 36.3597 63.4044 36.2707C63.4836 36.1817 63.5996 36.1022 63.7523 36.0322L65.8906 35.0526C66.3924 34.8227 66.7564 34.9194 66.9826 35.3428L67.7062 36.6976C67.9512 37.1563 68.0712 37.5844 68.0663 37.9819C68.0686 38.3761 67.9698 38.742 67.7699 39.0795C67.581 39.4208 67.3055 39.727 66.9434 39.9983C66.5924 40.2733 66.1878 40.5158 65.7296 40.7257C65.2496 40.9456 64.7814 41.103 64.3252 41.1979C63.8799 41.2964 63.4535 41.3117 63.046 41.2437C62.6496 41.1794 62.2829 41.0268 61.946 40.7859C61.6091 40.545 61.3146 40.1969 61.0623 39.7415C60.7764 39.2401 60.494 38.7283 60.2151 38.2062C59.9362 37.684 59.6626 37.1549 59.3945 36.619C59.1643 36.1711 59.0517 35.7484 59.0567 35.3509C59.0616 34.9534 59.1568 34.5892 59.3422 34.2584C59.5311 33.9171 59.7974 33.6106 60.1411 33.339C60.4811 33.0602 60.8729 32.8192 61.3166 32.616C61.8111 32.3894 62.294 32.2341 62.7651 32.15C63.2362 32.0659 63.6698 32.0473 64.066 32.0941C64.4584 32.1339 64.8042 32.239 65.1034 32.4093C65.3988 32.5726 65.6201 32.7919 65.767 33.0671C66.0573 33.6104 65.8896 34.0254 65.2641 34.3119Z" fill="white"/>
    </g>
    <defs>
    <filter id="filter0_d" x="0" y="0" width="79.0001" height="73.5488" filterUnits="userSpaceOnUse" color-interpolation-filters="sRGB">
    <feFlood flood-opacity="0" result="BackgroundImageFix"/>
    <feColorMatrix in="SourceAlpha" type="matrix" values="0 0 0 0 0 0 0 0 0 0 0 0 0 0 0 0 0 0 127 0" result="hardAlpha"/>
    <feOffset dy="4"/>
    <feGaussianBlur stdDeviation="2"/>
    <feColorMatrix type="matrix" values="0 0 0 0 0 0 0 0 0 0 0 0 0 0 0 0 0 0 0.25 0"/>
    <feBlend mode="normal" in2="BackgroundImageFix" result="effect1_dropShadow"/>
    <feBlend mode="normal" in="SourceGraphic" in2="effect1_dropShadow" result="shape"/>
    </filter>
    </defs>
</svg>
