<svg width="67" height="25" viewBox="0 0 67 25" fill="none" xmlns="http://www.w3.org/2000/svg">
<path d="M1.9 6.34C1.9 5.80667 2 5.28 2.2 4.76C2.4 4.24 2.68667 3.78 3.06 3.38C3.44667 2.96667 3.9 2.63333 4.42 2.38C4.95333 2.12667 5.55333 2 6.22 2H12.74C13.3933 2 13.9867 2.12667 14.52 2.38C15.0533 2.63333 15.5067 2.96667 15.88 3.38C16.2667 3.78 16.56 4.24 16.76 4.76C16.96 5.28 17.06 5.80667 17.06 6.34V7.74C17.06 8.28667 16.9733 8.80667 16.8 9.3C16.6267 9.78 16.36 10.2133 16 10.6C15.6533 10.9733 15.2133 11.2733 14.68 11.5C14.16 11.7267 13.5467 11.84 12.84 11.84H11.12V15.96H16.44C16.8133 15.96 17.12 15.9933 17.36 16.06C17.6 16.14 17.7867 16.24 17.92 16.36C18.0533 16.4933 18.14 16.64 18.18 16.8C18.2333 16.9733 18.26 17.16 18.26 17.36C18.26 17.52 18.2333 17.68 18.18 17.84C18.14 18.0133 18.0533 18.16 17.92 18.28C17.7867 18.4133 17.6 18.52 17.36 18.6C17.12 18.68 16.8133 18.72 16.44 18.72H2.54C2.16667 18.72 1.86 18.68 1.62 18.6C1.38 18.52 1.19333 18.4133 1.06 18.28C0.926667 18.16 0.833333 18.0133 0.78 17.84C0.74 17.68 0.72 17.52 0.72 17.36C0.72 17.16 0.74 16.9733 0.78 16.8C0.833333 16.64 0.926667 16.4933 1.06 16.36C1.19333 16.24 1.38 16.14 1.62 16.06C1.86 15.9933 2.16667 15.96 2.54 15.96H7.88V11.84H6.14C5.43333 11.84 4.81333 11.7267 4.28 11.5C3.76 11.2733 3.32 10.9733 2.96 10.6C2.61333 10.2133 2.34667 9.78 2.16 9.3C1.98667 8.80667 1.9 8.28667 1.9 7.74V6.34ZM5.14 7.24C5.14 7.73333 5.27333 8.15333 5.54 8.5C5.82 8.84667 6.24667 9.03333 6.82 9.06H12.14C12.7133 9.03333 13.1333 8.84667 13.4 8.5C13.68 8.15333 13.82 7.73333 13.82 7.24V6.6C13.82 6.09333 13.68 5.66667 13.4 5.32C13.1333 4.96 12.6933 4.78 12.08 4.78H6.88C6.26667 4.78 5.82 4.96 5.54 5.32C5.27333 5.66667 5.14 6.09333 5.14 6.6V7.24ZM25.8239 15.7H28.7439C29.1172 15.7 29.4239 15.74 29.6639 15.82C29.9039 15.9 30.0906 16 30.2239 16.12C30.3572 16.2533 30.4439 16.4 30.4839 16.56C30.5372 16.7333 30.5639 16.9 30.5639 17.06C30.5639 17.26 30.5372 17.44 30.4839 17.6C30.4439 17.7733 30.3572 17.92 30.2239 18.04C30.0906 18.1733 29.9039 18.2733 29.6639 18.34C29.4239 18.42 29.1172 18.46 28.7439 18.46H24.2039C23.8306 18.46 23.5372 18.42 23.3239 18.34C23.1106 18.2733 22.9439 18.1733 22.8239 18.04C22.7172 17.92 22.6506 17.7733 22.6239 17.6C22.5972 17.44 22.5839 17.26 22.5839 17.06V3.74C22.5839 3.07333 22.7439 2.62 23.0639 2.38C23.3972 2.12667 23.7772 2 24.2039 2C24.4172 2 24.6172 2.02667 24.8039 2.08C25.0039 2.13333 25.1772 2.22667 25.3239 2.36C25.4706 2.49333 25.5906 2.67333 25.6839 2.9C25.7772 3.12667 25.8239 3.40667 25.8239 3.74V15.7ZM33.5639 3.54C33.5639 2.87333 33.7239 2.42 34.0439 2.18C34.3772 1.92667 34.7572 1.8 35.1839 1.8C35.3972 1.8 35.5972 1.82667 35.7839 1.88C35.9839 1.93333 36.1572 2.02667 36.3039 2.16C36.4506 2.29333 36.5706 2.47333 36.6639 2.7C36.7572 2.92667 36.8039 3.20667 36.8039 3.54V8.34H38.0639C38.4372 8.34 38.7439 8.38 38.9839 8.46C39.2239 8.54 39.4106 8.64667 39.5439 8.78C39.6772 8.9 39.7639 9.04667 39.8039 9.22C39.8572 9.38 39.8839 9.54 39.8839 9.7C39.8839 9.9 39.8572 10.0867 39.8039 10.26C39.7639 10.42 39.6772 10.5667 39.5439 10.7C39.4106 10.82 39.2239 10.92 38.9839 11C38.7439 11.0667 38.4372 11.1 38.0639 11.1H36.8039V17.2C36.8039 17.5467 36.7572 17.8333 36.6639 18.06C36.5706 18.2867 36.4506 18.4667 36.3039 18.6C36.1572 18.7333 35.9839 18.8267 35.7839 18.88C35.5972 18.9333 35.3972 18.96 35.1839 18.96C34.9706 18.96 34.7639 18.9333 34.5639 18.88C34.3772 18.8267 34.2039 18.7333 34.0439 18.6C33.8972 18.4667 33.7772 18.2867 33.6839 18.06C33.6039 17.8333 33.5639 17.5467 33.5639 17.2V3.54ZM57.1878 2.24C57.5478 2.24 57.8278 2.28 58.0278 2.36C58.2278 2.42667 58.3811 2.52667 58.4878 2.66C58.5945 2.78 58.6611 2.93333 58.6878 3.12C58.7145 3.30667 58.7278 3.52 58.7278 3.76V6.56C58.7278 7.2 58.7145 7.82 58.6878 8.42C58.6745 9.00667 58.6278 9.56 58.5478 10.08C58.4811 10.5867 58.3745 11.06 58.2278 11.5C58.0945 11.94 57.9011 12.3267 57.6478 12.66C57.5145 12.8467 57.3611 12.9867 57.1878 13.08C57.0145 13.16 56.8345 13.2133 56.6478 13.24C56.4611 13.2667 56.2745 13.2667 56.0878 13.24C55.9145 13.2 55.7545 13.1467 55.6078 13.08C55.2878 12.9333 55.0478 12.7067 54.8878 12.4C54.7411 12.0933 54.7345 11.74 54.8678 11.34C54.9745 11.0067 55.0545 10.7067 55.1078 10.44C55.1745 10.16 55.2278 9.89333 55.2678 9.64H45.7278C45.3545 9.64 45.0478 9.60667 44.8078 9.54C44.5678 9.46 44.3811 9.36 44.2478 9.24C44.1145 9.10667 44.0211 8.96 43.9678 8.8C43.9278 8.62667 43.9078 8.44 43.9078 8.24C43.9078 8.08 43.9278 7.92 43.9678 7.76C44.0211 7.58667 44.1145 7.44 44.2478 7.32C44.3811 7.18667 44.5678 7.08 44.8078 7C45.0478 6.92 45.3545 6.88 45.7278 6.88H55.4078V5H45.8878C45.5145 5 45.2078 4.96667 44.9678 4.9C44.7278 4.82 44.5411 4.72 44.4078 4.6C44.2745 4.46667 44.1811 4.32 44.1278 4.16C44.0878 3.98667 44.0678 3.8 44.0678 3.6C44.0678 3.44 44.0878 3.28 44.1278 3.12C44.1811 2.94667 44.2745 2.8 44.4078 2.68C44.5411 2.54667 44.7278 2.44 44.9678 2.36C45.2078 2.28 45.5145 2.24 45.8878 2.24H57.1878ZM42.7278 17.36C42.7278 17.16 42.7478 16.9733 42.7878 16.8C42.8411 16.64 42.9345 16.4933 43.0678 16.36C43.2011 16.24 43.3878 16.14 43.6278 16.06C43.8678 15.9933 44.1745 15.96 44.5478 15.96H47.9278V13.16C47.9278 12.4933 48.0878 12.04 48.4078 11.8C48.7411 11.5467 49.1211 11.42 49.5478 11.42C49.7611 11.42 49.9611 11.4467 50.1478 11.5C50.3478 11.5533 50.5211 11.6467 50.6678 11.78C50.8145 11.9133 50.9345 12.0933 51.0278 12.32C51.1211 12.5467 51.1678 12.8267 51.1678 13.16V15.96H58.4478C58.8211 15.96 59.1278 15.9933 59.3678 16.06C59.6078 16.14 59.7945 16.24 59.9278 16.36C60.0611 16.4933 60.1478 16.64 60.1878 16.8C60.2411 16.9733 60.2678 17.16 60.2678 17.36C60.2678 17.52 60.2411 17.68 60.1878 17.84C60.1478 18.0133 60.0611 18.16 59.9278 18.28C59.7945 18.4133 59.6078 18.52 59.3678 18.6C59.1278 18.68 58.8211 18.72 58.4478 18.72H44.5478C44.1745 18.72 43.8678 18.68 43.6278 18.6C43.3878 18.52 43.2011 18.4133 43.0678 18.28C42.9345 18.16 42.8411 18.0133 42.7878 17.84C42.7478 17.68 42.7278 17.52 42.7278 17.36Z" fill="#EFEFEF"/>
</svg>
