<svg width="56" height="20" viewBox="0 0 56 20" fill="none" xmlns="http://www.w3.org/2000/svg">
<circle cx="6.5" cy="10.5" r="6.5" fill="#5A5A5A"/>
<path d="M28.68 6.118H26.556V4.516H28.68V2.5H30.462V10.744H28.68V6.118ZM21.264 7.9C19.908 7.9 18.822 7.66 18.006 7.18C17.19 6.7 16.782 6.046 16.782 5.218C16.782 4.39 17.19 3.736 18.006 3.256C18.822 2.776 19.908 2.536 21.264 2.536C22.62 2.536 23.706 2.776 24.522 3.256C25.338 3.736 25.746 4.39 25.746 5.218C25.746 6.046 25.338 6.7 24.522 7.18C23.706 7.66 22.62 7.9 21.264 7.9ZM21.264 3.85C20.424 3.85 19.752 3.97 19.248 4.21C18.756 4.45 18.51 4.786 18.51 5.218C18.51 5.638 18.762 5.974 19.266 6.226C19.77 6.466 20.436 6.586 21.264 6.586C22.104 6.586 22.77 6.466 23.262 6.226C23.766 5.974 24.018 5.638 24.018 5.218C24.018 4.786 23.766 4.45 23.262 4.21C22.77 3.97 22.104 3.85 21.264 3.85ZM30.84 16.36V17.674H17.43V14.002H28.716V12.904H17.394V11.59H20.292V10.258H15.99V8.89H22.344C24.696 8.89 26.376 8.686 27.384 8.278V9.646C26.472 10.054 24.774 10.258 22.29 10.258H22.056V11.59H30.462V15.262H19.194V16.36H30.84ZM49.3785 6.154V7.864H47.2185V13.912H45.4365V2.5H47.2185V6.154H49.3785ZM42.5565 4.966C42.5565 6.394 42.1905 7.6 41.4585 8.584C40.7265 9.556 39.6945 10.288 38.3625 10.78C37.0425 11.26 35.4885 11.5 33.7005 11.5V9.898C35.8845 9.886 37.6065 9.472 38.8665 8.656C40.1265 7.84 40.7565 6.682 40.7565 5.182V4.444H33.7005V2.878H42.5565V4.966ZM36.1665 16.054H47.6325V17.674H34.3665V12.832H36.1665V16.054Z" fill="#5A5A5A"/>
</svg>
