<svg width="75" height="24" viewBox="0 0 75 24" fill="none" xmlns="http://www.w3.org/2000/svg">
<rect width="75" height="23.5" rx="11.75" fill="#607D8B"/>
<path d="M22.5019 8.376V5.75H23.7889V14.005H22.5019V9.507H20.3439V8.376H22.5019ZM17.2499 9.949C16.8685 10.651 16.3615 11.2187 15.7289 11.652C15.0962 12.0767 14.3725 12.3323 13.5579 12.419V11.236C14.4765 11.106 15.2132 10.677 15.7679 9.949C16.3225 9.21233 16.6302 8.28067 16.6909 7.154H13.7009V6.036H20.7859V7.154H17.9909C17.9649 7.726 17.8695 8.29367 17.7049 8.857L21.1109 11.392L20.3829 12.328L17.2499 9.949ZM24.0229 15.552V16.709H14.3379V13.173H15.6509V15.552H24.0229ZM29.2998 8.571C29.2824 9.51567 29.2261 10.339 29.1308 11.041L31.8088 15.461L30.7818 16.072L28.8188 12.744C28.2728 14.8327 27.2978 15.981 25.8938 16.189V14.967C26.5958 14.811 27.1244 14.1697 27.4798 13.043C27.8438 11.9077 28.0388 10.417 28.0648 8.571H26.0108V7.401H28.0648V5.724H29.2998V7.401H31.3148V8.571H29.2998ZM36.5148 5.75V16.852H35.2928V5.75H36.5148ZM32.4198 5.815H33.6418V16.657H32.4198V11.457H30.8728V10.248H32.4198V5.815ZM49.4356 15.11V16.319H38.3466V15.11H43.2216V12.614H39.0746V6.075H40.3486V8.064H47.4206V6.075H48.6946V12.614H44.5346V15.11H49.4356ZM40.3486 11.457H47.4206V9.221H40.3486V11.457ZM59.9255 5.75H61.2125V16.852H59.9255V5.75ZM51.3715 14.941C52.3682 14.941 53.2305 14.694 53.9585 14.2C54.6952 13.6973 55.2542 12.991 55.6355 12.081C56.0255 11.1623 56.2205 10.0877 56.2205 8.857V7.336H51.3715V6.153H57.5335V8.831C57.5335 10.3043 57.2822 11.5957 56.7795 12.705C56.2855 13.8057 55.5705 14.6593 54.6345 15.266C53.7072 15.864 52.6195 16.163 51.3715 16.163V14.941Z" fill="white"/>
</svg>
