<svg width="45" height="14" viewBox="0 0 45 14" fill="none" xmlns="http://www.w3.org/2000/svg">
<path d="M11.69 13.456H11.088V1.5H11.69V13.456ZM4.97 1.892C5.66067 1.892 6.26733 2.09267 6.79 2.494C7.31267 2.89533 7.72333 3.50667 8.022 4.328C8.32067 5.14 8.47 6.14333 8.47 7.338C8.47 8.53267 8.32067 9.54067 8.022 10.362C7.72333 11.174 7.31267 11.7807 6.79 12.182C6.26733 12.5833 5.66067 12.784 4.97 12.784C4.27933 12.784 3.67267 12.5833 3.15 12.182C2.62733 11.7807 2.21667 11.174 1.918 10.362C1.61933 9.54067 1.47 8.53267 1.47 7.338C1.47 6.14333 1.61933 5.14 1.918 4.328C2.21667 3.50667 2.62733 2.89533 3.15 2.494C3.67267 2.09267 4.27933 1.892 4.97 1.892ZM4.97 2.438C4.41 2.438 3.91067 2.62 3.472 2.984C3.03333 3.348 2.688 3.89867 2.436 4.636C2.19333 5.364 2.072 6.26467 2.072 7.338C2.072 8.41133 2.19333 9.31667 2.436 10.054C2.688 10.782 3.03333 11.328 3.472 11.692C3.91067 12.056 4.41 12.238 4.97 12.238C5.53 12.238 6.02467 12.056 6.454 11.692C6.89267 11.328 7.238 10.782 7.49 10.054C7.742 9.31667 7.868 8.41133 7.868 7.338C7.868 6.26467 7.742 5.364 7.49 4.636C7.238 3.89867 6.89267 3.348 6.454 2.984C6.02467 2.62 5.53 2.438 4.97 2.438ZM24.6668 4.566V1.5H25.2548V10.418H24.6668V5.098H21.7688V4.566H24.6668ZM18.4228 5.406C18.0681 6.28333 17.5595 6.988 16.8968 7.52C16.2435 8.052 15.4641 8.39733 14.5588 8.556V7.996C15.7255 7.78133 16.6448 7.20267 17.3168 6.26C17.9888 5.308 18.3435 4.05267 18.3808 2.494H14.6988V1.948H22.3428V2.494H18.9688C18.9408 3.38067 18.8241 4.16467 18.6188 4.846L22.5668 7.996L22.2308 8.458L18.4228 5.406ZM25.5908 12.63V13.176H15.5108V9.69H16.0988V12.63H25.5908Z" fill="#607D8B"/>
<path fill-rule="evenodd" clip-rule="evenodd" d="M30 6.62543C30 6.45968 30.0564 6.30072 30.1569 6.18352C30.2574 6.06631 30.3936 6.00047 30.5357 6.00047H43.1702L39.7987 2.06822C39.6981 1.95087 39.6416 1.79171 39.6416 1.62575C39.6416 1.45979 39.6981 1.30063 39.7987 1.18328C39.8992 1.06593 40.0357 1 40.1779 1C40.3202 1 40.4566 1.06593 40.5572 1.18328L44.8426 6.18296C44.8925 6.24101 44.9321 6.30998 44.9591 6.3859C44.9861 6.46183 45 6.54323 45 6.62543C45 6.70763 44.9861 6.78903 44.9591 6.86496C44.9321 6.94088 44.8925 7.00985 44.8426 7.0679L40.5572 12.0676C40.4566 12.1849 40.3202 12.2509 40.1779 12.2509C40.0357 12.2509 39.8992 12.1849 39.7987 12.0676C39.6981 11.9502 39.6416 11.7911 39.6416 11.6251C39.6416 11.4592 39.6981 11.3 39.7987 11.1826L43.1702 7.25039H30.5357C30.3936 7.25039 30.2574 7.18455 30.1569 7.06734C30.0564 6.95014 30 6.79118 30 6.62543Z" fill="#607D8B"/>
</svg>
