<svg width="45" height="14" viewBox="0 0 45 14" fill="none" xmlns="http://www.w3.org/2000/svg">
<path d="M13.23 7.282H11.34V13.456H10.752V1.5H11.34V6.736H13.23V7.282ZM6.23 12.07C6.79 12.07 7.35 12.014 7.91 11.902C8.47933 11.79 8.95067 11.6453 9.324 11.468V12.042C8.96 12.2193 8.498 12.3593 7.938 12.462C7.378 12.5647 6.80867 12.616 6.23 12.616H1.526V2.06H8.386V2.606H2.114V12.07H6.23ZM20.2008 1.528C21.6661 1.528 22.8841 1.71467 23.8548 2.088C24.8348 2.452 25.3248 2.998 25.3248 3.726C25.3248 4.454 24.8348 5.00467 23.8548 5.378C22.8841 5.742 21.6661 5.924 20.2008 5.924C18.7355 5.924 17.5128 5.742 16.5328 5.378C15.5621 5.00467 15.0768 4.454 15.0768 3.726C15.0768 2.998 15.5621 2.452 16.5328 2.088C17.5128 1.71467 18.7355 1.528 20.2008 1.528ZM20.2008 2.074C18.9315 2.074 17.8581 2.214 16.9808 2.494C16.1128 2.774 15.6788 3.18467 15.6788 3.726C15.6788 4.26733 16.1128 4.678 16.9808 4.958C17.8581 5.238 18.9315 5.378 20.2008 5.378C21.4701 5.378 22.5388 5.238 23.4068 4.958C24.2841 4.678 24.7228 4.26733 24.7228 3.726C24.7228 3.18467 24.2841 2.774 23.4068 2.494C22.5388 2.214 21.4701 2.074 20.2008 2.074ZM26.1088 7.814H14.2928V7.268H26.1088V7.814ZM25.1708 13.19H15.2448V9.438H25.1708V13.19ZM24.5828 12.644V9.984H15.8328V12.644H24.5828Z" fill="#607D8B"/>
<path fill-rule="evenodd" clip-rule="evenodd" d="M30 6.62543C30 6.45968 30.0564 6.30072 30.1569 6.18352C30.2574 6.06631 30.3936 6.00047 30.5357 6.00047H43.1702L39.7987 2.06822C39.6981 1.95087 39.6416 1.79171 39.6416 1.62575C39.6416 1.45979 39.6981 1.30063 39.7987 1.18328C39.8992 1.06593 40.0357 1 40.1779 1C40.3202 1 40.4566 1.06593 40.5572 1.18328L44.8426 6.18296C44.8925 6.24101 44.9321 6.30998 44.9591 6.3859C44.9861 6.46183 45 6.54323 45 6.62543C45 6.70763 44.9861 6.78903 44.9591 6.86496C44.9321 6.94088 44.8925 7.00985 44.8426 7.0679L40.5572 12.0676C40.4566 12.1849 40.3202 12.2509 40.1779 12.2509C40.0357 12.2509 39.8992 12.1849 39.7987 12.0676C39.6981 11.9502 39.6416 11.7911 39.6416 11.6251C39.6416 11.4592 39.6981 11.3 39.7987 11.1826L43.1702 7.25039H30.5357C30.3936 7.25039 30.2574 7.18455 30.1569 7.06734C30.0564 6.95014 30 6.79118 30 6.62543Z" fill="#607D8B"/>
</svg>
