<svg width="13" height="13" viewBox="0 0 13 13" fill="none" xmlns="http://www.w3.org/2000/svg">
<path d="M6.5 0C2.91049 0 0 2.91049 0 6.5C0 10.0895 2.91049 13 6.5 13C10.0895 13 13 10.0895 13 6.5C13 2.91049 10.0895 0 6.5 0ZM6.5 10.2723C6.17935 10.2723 5.91964 10.0126 5.91964 9.69196C5.91964 9.37132 6.17935 9.11161 6.5 9.11161C6.82065 9.11161 7.08036 9.37132 7.08036 9.69196C7.08036 10.0126 6.82065 10.2723 6.5 10.2723ZM7.41261 7.08761C7.28122 7.13835 7.16816 7.22751 7.08819 7.34346C7.00821 7.4594 6.96504 7.59676 6.96429 7.73761V8.06696C6.96429 8.1308 6.91205 8.18304 6.84821 8.18304H6.15179C6.08795 8.18304 6.03571 8.1308 6.03571 8.06696V7.75502C6.03571 7.41987 6.13292 7.08906 6.32444 6.81339C6.51161 6.54353 6.77277 6.3375 7.08036 6.21998C7.57366 6.02991 7.89286 5.61641 7.89286 5.16518C7.89286 4.52533 7.26752 4.00446 6.5 4.00446C5.73248 4.00446 5.10714 4.52533 5.10714 5.16518V5.27545C5.10714 5.33929 5.05491 5.39152 4.99107 5.39152H4.29464C4.2308 5.39152 4.17857 5.33929 4.17857 5.27545V5.16518C4.17857 4.59498 4.42812 4.0625 4.8808 3.66641C5.31607 3.28482 5.89062 3.07589 6.5 3.07589C7.10938 3.07589 7.68393 3.28627 8.1192 3.66641C8.57187 4.0625 8.82143 4.59498 8.82143 5.16518C8.82143 6.00379 8.26864 6.75826 7.41261 7.08761Z" fill="#607D8B"/>
</svg>
