<svg width="25" height="25" viewBox="0 0 25 25" fill="none" xmlns="http://www.w3.org/2000/svg">
<path d="M24.1844 13.1598C24.7094 12.4864 25 11.6612 25 10.8027C25 9.44062 24.2156 8.15133 22.9531 7.43237C22.6281 7.2473 22.2581 7.1499 21.8812 7.15024H14.3875L14.575 3.42193C14.6187 2.52095 14.2906 1.66547 13.6531 1.01325C13.3403 0.691771 12.9628 0.435992 12.5441 0.261718C12.1254 0.0874434 11.6743 -0.00162302 11.2188 2.23885e-05C9.59375 2.23885e-05 8.15625 1.06179 7.725 2.58162L5.04062 12.0161H1C0.446875 12.0161 0 12.45 0 12.9869V24.0292C0 24.5662 0.446875 25 1 25H19.7906C20.0781 25 20.3594 24.9454 20.6187 24.8362C22.1062 24.2204 23.0656 22.8097 23.0656 21.2444C23.0656 20.8622 23.0094 20.486 22.8969 20.122C23.4219 19.4485 23.7125 18.6234 23.7125 17.7648C23.7125 17.3826 23.6562 17.0064 23.5438 16.6424C24.0688 15.9689 24.3594 15.1438 24.3594 14.2853C24.3531 13.9031 24.2969 13.5239 24.1844 13.1598ZM2.25 22.8158V14.2003H4.78125V22.8158H2.25ZM22.1375 12.1072L21.4531 12.6835L21.8875 13.4541C22.0306 13.7079 22.1048 13.9929 22.1031 14.2823C22.1031 14.7828 21.8781 15.2591 21.4906 15.5867L20.8062 16.1631L21.2406 16.9336C21.3837 17.1875 21.4579 17.4725 21.4562 17.7618C21.4562 18.2624 21.2312 18.7386 20.8437 19.0663L20.1594 19.6426L20.5938 20.4132C20.7369 20.667 20.8111 20.952 20.8094 21.2414C20.8094 21.9209 20.3969 22.5337 19.7594 22.8128H6.78125V14.1033L9.89062 3.16711C9.9708 2.88681 10.1429 2.63951 10.3809 2.4627C10.6189 2.28588 10.9097 2.18918 11.2094 2.18726C11.4469 2.18726 11.6812 2.25399 11.8687 2.39051C12.1781 2.61499 12.3437 2.95476 12.325 3.31576L12.025 9.33444H21.85C22.4062 9.6651 22.75 10.2233 22.75 10.8027C22.75 11.3033 22.525 11.7765 22.1375 12.1072Z" fill="#607D8B"/>
</svg>
