<svg width="29" height="26" viewBox="0 0 29 26" fill="none" xmlns="http://www.w3.org/2000/svg">
<path d="M25.4728 21.3577C26.6632 21.3577 27.6282 20.3927 27.6282 19.2023C27.6282 18.0119 26.6632 17.0469 25.4728 17.0469C24.2824 17.0469 23.3174 18.0119 23.3174 19.2023C23.3174 20.3927 24.2824 21.3577 25.4728 21.3577Z" fill="#607D8B"/>
<path fill-rule="evenodd" clip-rule="evenodd" d="M0 10.1803C0 4.55784 4.55784 0 10.1803 0C15.8027 0 20.3605 4.55784 20.3605 10.1803C20.3605 12.4672 19.6064 14.5774 18.3339 16.2768L19.9344 17.878C20.0733 18.0121 20.1841 18.1726 20.2603 18.35C20.3365 18.5275 20.3766 18.7183 20.3783 18.9114C20.38 19.1045 20.3432 19.296 20.2701 19.4748C20.197 19.6535 20.089 19.8159 19.9524 19.9524C19.8159 20.089 19.6535 20.197 19.4748 20.2701C19.296 20.3432 19.1045 20.38 18.9114 20.3783C18.7183 20.3766 18.5275 20.3365 18.35 20.2603C18.1726 20.1841 18.0121 20.0733 17.878 19.9344L16.2768 18.3339C14.5181 19.6527 12.3784 20.364 10.1803 20.3605C4.55784 20.3605 0 15.8027 0 10.1803ZM16.247 14.1905L14.1171 12.06C13.982 11.9249 13.8216 11.8178 13.6451 11.7448C13.4686 11.6718 13.2794 11.6342 13.0884 11.6343C12.8974 11.6343 12.7082 11.672 12.5318 11.7452C12.3553 11.8184 12.195 11.9256 12.06 12.0607C11.9249 12.1958 11.8178 12.3562 11.7448 12.5327C11.6718 12.7092 11.6342 12.8984 11.6343 13.0894C11.6344 13.4752 11.7878 13.8451 12.0607 14.1178L14.1905 16.247C13.0017 17.0349 11.6065 17.4541 10.1803 17.4519C6.16414 17.4519 2.90864 14.1964 2.90864 10.1803C2.90864 6.16414 6.16414 2.90864 10.1803 2.90864C14.1964 2.90864 17.4519 6.16414 17.4519 10.1803C17.4519 11.6622 17.0083 13.0409 16.247 14.1905Z" fill="#607D8B"/>
</svg>
