<svg width="12" height="12" viewBox="0 0 15 12" fill="none" xmlns="http://www.w3.org/2000/svg">
<path d="M7.47168 7.85264C8.45005 7.85264 9.24317 7.0619 9.24317 6.08648C9.24317 5.11105 8.45005 4.32031 7.47168 4.32031C6.49332 4.32031 5.7002 5.11105 5.7002 6.08648C5.7002 7.0619 6.49332 7.85264 7.47168 7.85264Z" fill="#607D8B"/>
<path d="M14.851 5.95504C14.2675 4.4896 13.2547 3.22228 11.9377 2.30972C10.6206 1.39715 9.05706 0.879354 7.44025 0.820312C5.82345 0.879354 4.25989 1.39715 2.94284 2.30972C1.62579 3.22228 0.612963 4.4896 0.0295508 5.95504C-0.00985028 6.06087 -0.00985028 6.17676 0.0295508 6.28259C0.612963 7.74803 1.62579 9.01536 2.94284 9.92792C4.25989 10.8405 5.82345 11.3583 7.44025 11.4173C9.05706 11.3583 10.6206 10.8405 11.9377 9.92792C13.2547 9.01536 14.2675 7.74803 14.851 6.28259C14.8904 6.17676 14.8904 6.06087 14.851 5.95504ZM7.44025 9.24975C6.80257 9.24975 6.1792 9.06612 5.64898 8.72209C5.11877 8.37806 4.70551 7.88908 4.46148 7.31697C4.21745 6.74487 4.1536 6.11534 4.278 5.508C4.40241 4.90066 4.70949 4.34278 5.1604 3.90491C5.61131 3.46704 6.18581 3.16885 6.81124 3.04804C7.43668 2.92723 8.08495 2.98924 8.6741 3.22621C9.26325 3.46318 9.7668 3.86448 10.1211 4.37936C10.4754 4.89424 10.6645 5.49958 10.6645 6.11882C10.6631 6.9488 10.323 7.74443 9.71866 8.33131C9.11429 8.9182 8.29496 9.24848 7.44025 9.24975Z" fill="#607D8B"/>
</svg>
