<svg width="11" height="11" viewBox="0 0 11 11" fill="none" xmlns="http://www.w3.org/2000/svg">
<path fill-rule="evenodd" clip-rule="evenodd" d="M0 5.27662C0 2.36242 2.36372 0 5.27954 0C8.19535 0 10.5591 2.36242 10.5591 5.27662C10.5591 6.46197 10.168 7.55574 9.50807 8.43656L10.3381 9.26649C10.4101 9.33603 10.4676 9.41921 10.5071 9.51118C10.5466 9.60314 10.5674 9.70206 10.5683 9.80215C10.5692 9.90224 10.5501 10.0015 10.5122 10.0941C10.4743 10.1868 10.4182 10.2709 10.3474 10.3417C10.2766 10.4125 10.1924 10.4685 10.0997 10.5064C10.007 10.5443 9.90771 10.5633 9.80757 10.5625C9.70742 10.5616 9.60845 10.5408 9.51643 10.5013C9.42442 10.4618 9.34119 10.4044 9.27162 10.3324L8.44122 9.50281C7.52919 10.1864 6.41952 10.555 5.27954 10.5532C2.36372 10.5532 0 8.19082 0 5.27662ZM8.42576 7.35523L7.32121 6.25091C7.25113 6.18092 7.16795 6.12541 7.07641 6.08756C6.98487 6.0497 6.88677 6.03023 6.78771 6.03027C6.68864 6.0303 6.59055 6.04984 6.49904 6.08776C6.40753 6.12568 6.32439 6.18125 6.25436 6.25129C6.18434 6.32132 6.1288 6.40446 6.09092 6.49594C6.05304 6.58743 6.03357 6.68548 6.0336 6.78449C6.03367 6.98445 6.11322 7.1762 6.25474 7.31754L7.35929 8.42111C6.74275 8.82953 6.01921 9.0468 5.27954 9.04563C3.19676 9.04563 1.50844 7.35824 1.50844 5.27662C1.50844 3.19499 3.19676 1.50761 5.27954 1.50761C7.36231 1.50761 9.05063 3.19499 9.05063 5.27662C9.05063 6.04474 8.82059 6.75935 8.42576 7.35523Z" fill="#607D8B"/>
</svg>
