<svg width="12" height="12" viewBox="0 0 16 16" fill="none" xmlns="http://www.w3.org/2000/svg">
<path d="M14.686 8.38448C14.9985 7.96579 15.1715 7.45281 15.1715 6.91908C15.1715 6.07228 14.7046 5.27074 13.9532 4.82377C13.7597 4.70871 13.5395 4.64816 13.3152 4.64837H8.85475L8.96635 2.33051C8.99239 1.77038 8.79708 1.23854 8.41763 0.833053C8.23141 0.633193 8.00675 0.474177 7.75752 0.365833C7.5083 0.257488 7.23981 0.202116 6.96864 0.203139C6.00141 0.203139 5.14578 0.863228 4.88909 1.8081L3.2913 7.67347H3.28572V15.7454H12.0708C12.2419 15.7454 12.4093 15.7115 12.5637 15.6436C13.4491 15.2607 14.0201 14.3837 14.0201 13.4106C14.0201 13.173 13.9867 12.9391 13.9197 12.7128C14.2322 12.2941 14.4052 11.7811 14.4052 11.2474C14.4052 11.0097 14.3717 10.7759 14.3047 10.5496C14.6172 10.1309 14.7902 9.6179 14.7902 9.08417C14.7865 8.84654 14.753 8.61079 14.686 8.38448ZM0.291016 8.27698V15.1419C0.291016 15.4757 0.557005 15.7454 0.886236 15.7454H2.09528V7.67347H0.886236C0.557005 7.67347 0.291016 7.94316 0.291016 8.27698Z" fill="#607D8B"/>
</svg>
