<svg width="12" height="12" viewBox="0 0 15 15" fill="none" xmlns="http://www.w3.org/2000/svg">
<path d="M3.15679 8.96008L0 11.3724V0.689237C0 0.50644 0.0746553 0.33113 0.207543 0.201873C0.34043 0.0726158 0.520664 0 0.708595 0H11.3375C11.5255 0 11.7057 0.0726158 11.8386 0.201873C11.9715 0.33113 12.0461 0.50644 12.0461 0.689237V8.96008H3.15679ZM2.66644 7.5816H10.6289V1.37847H1.41719V8.5362L2.66644 7.5816ZM4.96017 10.3386H12.2141L13.4633 11.2931V4.13542H14.1719C14.3598 4.13542 14.5401 4.20804 14.673 4.33729C14.8059 4.46655 14.8805 4.64186 14.8805 4.82466V14.1294L11.7237 11.717H5.66876C5.48083 11.717 5.3006 11.6444 5.16771 11.5152C5.03482 11.3859 4.96017 11.2106 4.96017 11.0278V10.3386Z" fill="#607D8B"/>
</svg>
