<svg width="46" height="10" viewBox="0 0 46 10" fill="none" xmlns="http://www.w3.org/2000/svg">
<path d="M7.506 7.936H7.128V0.249999H7.506V7.936ZM5.076 2.275C5.076 3.289 4.911 4.18 4.581 4.948C4.251 5.716 3.774 6.31 3.15 6.73C2.532 7.15 1.8 7.36 0.954 7.36V7C1.71 7 2.37 6.811 2.934 6.433C3.498 6.049 3.933 5.503 4.239 4.795C4.545 4.087 4.698 3.259 4.698 2.311V0.961H0.954V0.61H5.076V2.275ZM16.7842 4.714V5.065H9.18823V4.714H12.7972V3.517H9.81823V0.34H10.1962V1.555H15.7852V0.34H16.1632V3.517H13.1752V4.714H16.7842ZM10.1962 3.175H15.7852V1.888H10.1962V3.175ZM10.1782 7.423H16.3612V7.765H9.80023V5.803H10.1782V7.423ZM27.3519 7.936H26.9649V0.249999H27.3519V7.936ZM23.0319 0.501999C23.4759 0.501999 23.8659 0.631 24.2019 0.889C24.5379 1.147 24.8019 1.54 24.9939 2.068C25.1859 2.59 25.2819 3.235 25.2819 4.003C25.2819 4.771 25.1859 5.419 24.9939 5.947C24.8019 6.469 24.5379 6.859 24.2019 7.117C23.8659 7.375 23.4759 7.504 23.0319 7.504C22.5879 7.504 22.1979 7.375 21.8619 7.117C21.5259 6.859 21.2619 6.469 21.0699 5.947C20.8779 5.419 20.7819 4.771 20.7819 4.003C20.7819 3.235 20.8779 2.59 21.0699 2.068C21.2619 1.54 21.5259 1.147 21.8619 0.889C22.1979 0.631 22.5879 0.501999 23.0319 0.501999ZM23.0319 0.853C22.6719 0.853 22.3509 0.97 22.0689 1.204C21.7869 1.438 21.5649 1.792 21.4029 2.266C21.2469 2.734 21.1689 3.313 21.1689 4.003C21.1689 4.693 21.2469 5.275 21.4029 5.749C21.5649 6.217 21.7869 6.568 22.0689 6.802C22.3509 7.036 22.6719 7.153 23.0319 7.153C23.3919 7.153 23.7099 7.036 23.9859 6.802C24.2679 6.568 24.4899 6.217 24.6519 5.749C24.8139 5.275 24.8949 4.693 24.8949 4.003C24.8949 3.313 24.8139 2.734 24.6519 2.266C24.4899 1.792 24.2679 1.438 23.9859 1.204C23.7099 0.97 23.3919 0.853 23.0319 0.853ZM36.0001 7.936H35.6221V0.249999H36.0001V7.936ZM33.7501 7.396H29.5561V0.61H33.7501V7.396ZM33.3721 7.045V0.961H29.9341V7.045H33.3721ZM44.6574 0.249999V7.936H44.2794V0.249999H44.6574ZM40.6974 0.961C40.6854 2.041 40.5954 2.998 40.4274 3.832L43.1544 7.081L42.8574 7.306L40.3284 4.255C40.1004 5.155 39.7794 5.875 39.3654 6.415C38.9514 6.949 38.4594 7.276 37.8894 7.396V7.036C38.3934 6.916 38.8254 6.58 39.1854 6.028C39.5514 5.47 39.8274 4.756 40.0134 3.886C40.2054 3.01 40.3074 2.035 40.3194 0.961H38.0424V0.61H42.9384V0.961H40.6974Z" fill="#607D8B"/>
<path d="M0 9.205H45.8094V9.655H0V9.205Z" fill="#607D8B"/>
</svg>
