<svg width="34" height="30" viewBox="0 0 34 34" fill="none" xmlns="http://www.w3.org/2000/svg">
<path d="M18.0669 34H15.9331C14.2072 34 12.8031 32.5959 12.8031 30.8701V30.1482C12.0693 29.9138 11.3565 29.6179 10.6716 29.2634L10.16 29.775C8.92095 31.0156 6.93613 30.9792 5.73305 29.7746L4.2249 28.2665C3.01969 27.0626 2.98503 25.0785 4.2253 23.8395L4.73649 23.3283C4.38208 22.6435 4.08624 21.9307 3.85176 21.1969H3.12993C1.40416 21.1969 0 19.7928 0 18.0669V15.9331C0 14.2072 1.40416 12.8031 3.12999 12.8031H3.85183C4.08631 12.0693 4.38215 11.3565 4.73656 10.6717L4.22497 10.1602C2.98543 8.92195 3.01963 6.93759 4.22536 5.73318L5.73365 4.22497C6.93952 3.01743 8.92387 2.98729 10.1606 4.22536L10.6717 4.73649C11.3565 4.38215 12.0694 4.08624 12.8031 3.85176V3.12993C12.8031 1.40409 14.2072 0 15.9331 0H18.0669C19.7928 0 21.1969 1.40409 21.1969 3.12993V3.85183C21.9306 4.08624 22.6435 4.38215 23.3283 4.73656L23.8399 4.22497C25.079 2.98436 27.0638 3.02075 28.2669 4.22543L29.775 5.73352C30.9802 6.93739 31.0149 8.92155 29.7746 10.1605L29.2634 10.6717C29.6179 11.3565 29.9137 12.0693 30.1482 12.8031H30.87C32.5958 12.8031 34 14.2072 34 15.9331V18.0669C34 19.7928 32.5958 21.1969 30.87 21.1969H30.1482C29.9137 21.9307 29.6179 22.6435 29.2634 23.3283L29.775 23.8399C31.0146 25.0781 30.9804 27.0625 29.7746 28.2669L28.2664 29.7751C27.0605 30.9826 25.0761 31.0128 23.8394 29.7747L23.3283 29.2636C22.6435 29.6179 21.9306 29.9138 21.1969 30.1483V30.8702C21.1969 32.5959 19.7928 34 18.0669 34ZM11.0046 27.1714C11.956 27.7341 12.98 28.1592 14.0481 28.4348C14.488 28.5483 14.7953 28.945 14.7953 29.3993V30.8701C14.7953 31.4974 15.3058 32.0078 15.9331 32.0078H18.0669C18.6943 32.0078 19.2048 31.4974 19.2048 30.8701V29.3993C19.2048 28.945 19.5121 28.5483 19.952 28.4348C21.02 28.1592 22.044 27.7341 22.9954 27.1714C23.3869 26.94 23.8853 27.0029 24.2069 27.3245L25.2487 28.3664C25.6978 28.8161 26.4191 28.8056 26.8573 28.3668L28.3665 26.8577C28.8036 26.4211 28.8182 25.6997 28.3669 25.249L27.3246 24.2067C27.0031 23.8852 26.9402 23.3868 27.1716 22.9954C27.7342 22.044 28.1592 21.02 28.4349 19.9519C28.5484 19.512 28.9452 19.2048 29.3994 19.2048H30.8701C31.4974 19.2048 32.0079 18.6944 32.0079 18.067V15.9331C32.0079 15.3058 31.4974 14.7954 30.8701 14.7954H29.3994C28.9451 14.7954 28.5484 14.4881 28.4349 14.0482C28.1592 12.9801 27.7342 11.9561 27.1716 11.0048C26.9402 10.6134 27.0031 10.1149 27.3246 9.7934L28.3665 8.75155C28.8169 8.30171 28.8051 7.58054 28.3669 7.14286L26.8578 5.63377C26.4204 5.19576 25.699 5.18294 25.2491 5.63338L24.2069 6.67562C23.8854 6.99723 23.3868 7.06018 22.9955 6.82869C22.0441 6.26603 21.0201 5.84096 19.952 5.56531C19.5121 5.45182 19.2048 5.05511 19.2048 4.60082V3.12993C19.2048 2.50259 18.6944 1.99219 18.067 1.99219H15.9332C15.3058 1.99219 14.7954 2.50259 14.7954 3.12993V4.60069C14.7954 5.05498 14.4881 5.45169 14.0482 5.56518C12.9801 5.84083 11.9561 6.26589 11.0047 6.82855C10.6132 7.05998 10.1148 6.99703 9.79326 6.67549L8.75148 5.63364C8.30231 5.18394 7.58094 5.19436 7.14286 5.63318L5.63364 7.14232C5.19655 7.57888 5.18195 8.30025 5.63324 8.75102L6.67549 9.79326C6.99703 10.1148 7.05998 10.6132 6.82855 11.0046C6.26589 11.956 5.84089 12.98 5.56524 14.0481C5.45169 14.488 5.05498 14.7952 4.60076 14.7952H3.12999C2.50265 14.7953 1.99219 15.3057 1.99219 15.9331V18.0669C1.99219 18.6943 2.50265 19.2047 3.12999 19.2047H4.60069C5.05498 19.2047 5.45162 19.512 5.56518 19.9518C5.84083 21.02 6.26589 22.044 6.82849 22.9953C7.05991 23.3867 6.99696 23.8851 6.67542 24.2067L5.63357 25.2485C5.18321 25.6984 5.19496 26.4195 5.63318 26.8572L7.14226 28.3663C7.57968 28.8043 8.30111 28.8171 8.75095 28.3667L9.79313 27.3244C10.0301 27.0876 10.523 26.8866 11.0046 27.1714Z" fill="#ECEFF1"/>
<path d="M17.0002 24.3979C12.9211 24.3979 9.60254 21.0793 9.60254 17.0002C9.60254 12.9211 12.9211 9.60254 17.0002 9.60254C21.0793 9.60254 24.3979 12.9211 24.3979 17.0002C24.3979 21.0793 21.0793 24.3979 17.0002 24.3979ZM17.0002 11.5947C14.0196 11.5947 11.5947 14.0196 11.5947 17.0002C11.5947 19.9808 14.0196 22.4057 17.0002 22.4057C19.9808 22.4057 22.4057 19.9808 22.4057 17.0002C22.4057 14.0196 19.9808 11.5947 17.0002 11.5947Z" fill="#ECEFF1"/>
</svg>
