<svg width="58" height="58" viewBox="0 0 79 74" fill="none" xmlns="http://www.w3.org/2000/svg">
<g filter="url(#filter0_d)">
<rect width="24.4916" height="23.3789" transform="matrix(0.909129 -0.416515 0.47113 0.882064 4 21.8301)" fill="#80DEEA"/>
<rect width="52.4119" height="23.3789" transform="matrix(0.909129 -0.416515 0.47113 0.882064 16.3359 44.9268)" fill="#607D8B"/>
<rect width="24.4916" height="23.3789" transform="matrix(0.909129 -0.416515 0.47113 0.882064 29.3828 10.2012)" fill="#80DEEA"/>
<path d="M24.0945 33.4924C23.3744 33.8223 22.6722 34.0583 21.9878 34.2006C21.3199 34.3485 20.6803 34.3714 20.0691 34.2694C19.4744 34.173 18.9244 33.9441 18.4191 33.5827C17.9137 33.2214 17.4719 32.6992 17.0935 32.0162C16.6646 31.2641 16.2495 30.5122 15.8481 29.7607C15.441 28.9986 15.0364 28.2156 14.6342 27.4118C14.2833 26.7294 14.1061 26.0925 14.1026 25.5012C14.11 24.905 14.2528 24.3587 14.5308 23.8624C14.8142 23.3505 15.2219 22.8936 15.7541 22.4917C16.2916 22.0742 16.9148 21.703 17.624 21.3781C18.3113 21.0632 18.989 20.8449 19.6573 20.7232C20.3199 20.5909 20.9514 20.5783 21.5517 20.6853C22.1573 20.7768 22.7182 21.0007 23.2345 21.357C23.756 21.6978 24.2112 22.1941 24.6001 22.8459C25.0399 23.5931 25.4663 24.366 25.8794 25.1649C26.3034 25.9587 26.6967 26.7206 27.0594 27.4503C27.4046 28.1222 27.5736 28.7562 27.5661 29.3525C27.5587 29.9488 27.4105 30.4975 27.1215 30.9988C26.8382 31.5107 26.4332 31.9729 25.9067 32.3854C25.3858 32.8085 24.7818 33.1775 24.0945 33.4924ZM21.8836 24.0905C21.5339 23.4866 21.0809 23.1342 20.5246 23.0333C19.9626 22.9219 19.3434 23.0211 18.667 23.331C17.9579 23.6559 17.4861 24.0565 17.2517 24.5328C17.0282 25.0041 17.0694 25.5517 17.3755 26.1756C18.1626 27.7254 18.9795 29.2549 19.8263 30.7641C20.1817 31.3786 20.6266 31.7413 21.1611 31.8521C21.7065 31.958 22.3338 31.8485 23.0429 31.5236C23.7084 31.2187 24.1583 30.8281 24.3928 30.3518C24.6325 29.8599 24.613 29.3023 24.3344 28.679C23.9876 27.9025 23.6025 27.1435 23.1793 26.4019C22.767 25.6554 22.3351 24.8849 21.8836 24.0905Z" fill="white"/>
<path d="M53.845 18.1044C53.9807 18.3585 54.0556 18.5876 54.0697 18.792C54.0838 18.9963 54.0508 19.1761 53.9708 19.3314C53.8964 19.4972 53.7887 19.6388 53.6477 19.7561C53.5123 19.884 53.3573 19.9879 53.1828 20.0679C52.8228 20.2328 52.4698 20.322 52.124 20.3356C51.7838 20.3597 51.4669 20.2875 51.1732 20.119L43.2864 15.6495L46.475 21.6193C46.7068 22.0533 46.7317 22.4305 46.5499 22.751C46.368 23.0715 46.1025 23.3117 45.7534 23.4716C45.5679 23.5566 45.3738 23.6126 45.171 23.6397C44.9738 23.6773 44.776 23.6757 44.5777 23.6348C44.3959 23.5995 44.2189 23.5225 44.0468 23.4037C43.8913 23.2905 43.757 23.1281 43.644 22.9164L38.4625 13.2154C38.3946 13.0884 38.3541 12.9489 38.3408 12.7969C38.3384 12.6399 38.3689 12.481 38.4324 12.3201C38.4902 12.1487 38.5894 11.9913 38.7301 11.8478C38.876 11.6887 39.0744 11.5517 39.3253 11.4368C39.5544 11.3318 39.7647 11.2552 39.9562 11.207C40.1477 11.1588 40.337 11.1445 40.524 11.1642C40.7054 11.1733 40.8983 11.2167 41.1028 11.2943C41.3072 11.372 41.5368 11.4841 41.7917 11.6308L49.1144 15.845L45.9258 9.87517C45.711 9.47295 45.6999 9.1091 45.8927 8.78362C46.0964 8.45315 46.3838 8.20294 46.7547 8.033C46.9292 7.95303 47.1125 7.90202 47.3044 7.87997C47.4906 7.84734 47.6747 7.84866 47.8565 7.88395C48.0382 7.91923 48.2069 7.99347 48.3624 8.10667C48.5179 8.21987 48.6494 8.37703 48.7568 8.57814L53.845 18.1044Z" fill="white"/>
<path d="M29.3276 50.7757C29.0949 50.8824 28.8684 50.9159 28.6481 50.8763C28.424 50.8296 28.2557 50.7179 28.1431 50.5411C27.9708 50.2863 27.7377 50.1295 27.4439 50.0709C27.1463 50.0053 26.7902 50.0674 26.3757 50.2573C25.5611 50.6305 25.3542 51.2347 25.7551 52.07C26.0235 52.6233 26.2933 53.154 26.5647 53.6621C26.8396 54.1598 27.12 54.6593 27.4059 55.1607C27.6428 55.5704 27.9176 55.8222 28.2303 55.916C28.543 56.0099 28.9066 55.9619 29.3212 55.772C29.7503 55.5754 30.016 55.3526 30.1184 55.1037C30.2281 54.8514 30.2107 54.5476 30.0661 54.1922C29.9865 54.0092 30.0019 53.8177 30.1123 53.6177C30.2228 53.4178 30.3835 53.2695 30.5944 53.1729C31.1617 52.913 31.5943 53.0618 31.892 53.6192C32.0465 53.9085 32.1189 54.2135 32.1092 54.5342C32.1066 54.8516 32.0254 55.1655 31.8653 55.4759C31.7052 55.7864 31.468 56.0796 31.1536 56.3554C30.8503 56.6349 30.4731 56.8779 30.0222 57.0845C29.5931 57.2811 29.1686 57.4185 28.7487 57.4967C28.3325 57.582 27.9316 57.5856 27.5459 57.5076C27.164 57.4366 26.8046 57.2807 26.4677 57.0398C26.1381 56.7955 25.8435 56.4474 25.584 55.9954C24.9782 54.9291 24.4223 53.8882 23.9162 52.8729C23.6933 52.4217 23.5807 51.999 23.5784 51.6048C23.576 51.2106 23.6603 50.8514 23.8311 50.5272C24.0055 50.1926 24.25 49.8962 24.5646 49.6378C24.8755 49.3724 25.231 49.1481 25.631 48.9648C26.0746 48.7616 26.5102 48.6279 26.9377 48.5638C27.3724 48.4964 27.7733 48.4927 28.1404 48.5529C28.5037 48.606 28.8241 48.7228 29.1015 48.9031C29.3823 49.0731 29.5963 49.2956 29.7433 49.5708C30.0335 50.1142 29.8949 50.5158 29.3276 50.7757ZM37.4533 53.68C36.9733 53.8999 36.5051 54.0573 36.0489 54.1521C35.6036 54.2507 35.1772 54.266 34.7697 54.198C34.3733 54.1337 34.0066 53.9811 33.6697 53.7402C33.3328 53.4993 33.0383 53.1512 32.786 52.6958C32.5001 52.1944 32.2233 51.6932 31.9557 51.1922C31.6844 50.6841 31.4146 50.1621 31.1465 49.6262C30.9125 49.1713 30.7944 48.7467 30.7921 48.3525C30.797 47.955 30.8922 47.5908 31.0776 47.26C31.2665 46.9187 31.5383 46.6141 31.8931 46.3462C32.2514 46.0678 32.6669 45.8204 33.1396 45.6038C33.5978 45.3939 34.0497 45.2483 34.4952 45.1672C34.937 45.079 35.3579 45.0706 35.7582 45.1419C36.1619 45.2029 36.5358 45.3521 36.88 45.5897C37.2277 45.8169 37.5311 46.1478 37.7904 46.5823C38.0836 47.0804 38.3679 47.5957 38.6433 48.1283C38.926 48.6575 39.1882 49.1654 39.4299 49.6519C39.6601 50.0998 39.7727 50.5225 39.7678 50.92C39.7628 51.3175 39.664 51.6834 39.4714 52.0176C39.2825 52.3589 39.0125 52.667 38.6615 52.942C38.3142 53.224 37.9115 53.47 37.4533 53.68ZM35.9794 47.412C35.7463 47.0094 35.4442 46.7745 35.0734 46.7073C34.6987 46.633 34.286 46.6991 33.835 46.9057C33.3623 47.1223 33.0478 47.3894 32.8915 47.7069C32.7424 48.0211 32.77 48.3862 32.974 48.8021C33.4987 49.8353 34.0433 50.855 34.6079 51.8611C34.8448 52.2708 35.1414 52.5126 35.4978 52.5865C35.8614 52.657 36.2795 52.584 36.7523 52.3674C37.1959 52.1642 37.4959 51.9038 37.6522 51.5863C37.812 51.2583 37.799 50.8866 37.6133 50.471C37.382 49.9534 37.1254 49.4474 36.8432 48.953C36.5683 48.4553 36.2804 47.9417 35.9794 47.412ZM41.1049 41.9545C41.5704 41.7413 42.0312 41.5872 42.4875 41.4923C42.94 41.3904 43.3701 41.3735 43.7776 41.4415C44.1886 41.4991 44.5625 41.6484 44.8994 41.8893C45.2435 42.1269 45.5362 42.4715 45.7775 42.9231L47.3887 45.9397C47.6337 46.3984 47.7537 46.8265 47.7488 47.224C47.7511 47.6182 47.6523 47.9841 47.4524 48.3216C47.2635 48.6628 46.988 48.9691 46.6259 49.2404C46.2676 49.5187 45.8558 49.7645 45.3903 49.9778L43.1647 50.9974C42.8884 51.124 42.6398 51.1501 42.4189 51.0756C42.2018 51.0082 42.0311 50.858 41.9067 50.6252L38.4128 44.0838C38.3073 43.8862 38.2969 43.6802 38.3815 43.4657C38.4661 43.2513 38.6357 43.0858 38.8903 42.9692L41.1049 41.9545ZM43.4945 49.1995L44.6836 48.6547C45.1491 48.4414 45.4546 48.1829 45.6001 47.8791C45.7529 47.5719 45.72 47.2137 45.5014 46.8044L43.8901 43.7878C43.6715 43.3785 43.384 43.1369 43.0277 43.063C42.6749 42.9787 42.2658 43.0432 41.8003 43.2565L40.6111 43.8013L43.4945 49.1995ZM46.533 40.4426C46.3898 40.1744 46.3825 39.9319 46.511 39.7149C46.6468 39.4946 46.8383 39.3278 47.0856 39.2145C47.202 39.1612 47.3241 39.1271 47.4521 39.1124C47.5835 39.0874 47.7099 39.0866 47.831 39.1101C47.9522 39.1336 48.0647 39.1831 48.1684 39.2586C48.272 39.334 48.3597 39.4388 48.4313 39.5729L51.863 45.9978C51.9384 46.139 51.977 46.2706 51.9789 46.3927C51.9845 46.5219 51.9606 46.6382 51.9073 46.7417C51.8577 46.8523 51.7822 46.9483 51.6809 47.0298C51.5907 47.1151 51.4874 47.1844 51.371 47.2377C51.2474 47.2944 51.118 47.3317 50.9827 47.3497C50.8513 47.3748 50.7195 47.3737 50.5872 47.3465C50.466 47.323 50.3481 47.2716 50.2333 47.1924C50.1297 47.117 50.0401 47.0087 49.9647 46.8675L46.533 40.4426ZM60.3238 42.0293C60.4143 42.1987 60.4642 42.3515 60.4736 42.4877C60.483 42.6239 60.461 42.7438 60.4077 42.8473C60.3581 42.9578 60.2863 43.0522 60.1923 43.1304C60.102 43.2157 59.9987 43.285 59.8823 43.3383C59.6423 43.4482 59.407 43.5077 59.1765 43.5167C58.9497 43.5328 58.7384 43.4847 58.5426 43.3724L53.2847 40.3927L55.4105 44.3726C55.565 44.6619 55.5817 44.9134 55.4604 45.127C55.3391 45.3407 55.1621 45.5008 54.9294 45.6074C54.8058 45.6641 54.6763 45.7014 54.5411 45.7195C54.4097 45.7446 54.2778 45.7435 54.1456 45.7162C54.0244 45.6927 53.9064 45.6413 53.7917 45.5622C53.688 45.4867 53.5985 45.3784 53.5231 45.2373L50.0688 38.77C50.0236 38.6853 49.9965 38.5923 49.9877 38.4909C49.9861 38.3863 50.0064 38.2803 50.0488 38.1731C50.0873 38.0588 50.1534 37.9539 50.2472 37.8582C50.3445 37.7522 50.4767 37.6608 50.644 37.5842C50.7967 37.5142 50.9369 37.4632 51.0646 37.431C51.1923 37.3989 51.3185 37.3894 51.4432 37.4025C51.5641 37.4086 51.6927 37.4375 51.829 37.4892C51.9653 37.541 52.1184 37.6158 52.2883 37.7136L57.1701 40.523L55.0444 36.5431C54.9011 36.275 54.8938 36.0324 55.0223 35.8154C55.1581 35.5951 55.3497 35.4283 55.5969 35.315C55.7133 35.2617 55.8355 35.2277 55.9634 35.213C56.0876 35.1912 56.2103 35.1921 56.3315 35.2157C56.4527 35.2392 56.5651 35.2887 56.6688 35.3641C56.7724 35.4396 56.8601 35.5444 56.9317 35.6784L60.3238 42.0293ZM65.2632 34.3119C65.0086 34.4286 64.7603 34.4721 64.5181 34.4425C64.2795 34.4025 64.1039 34.2941 63.9914 34.1173C63.8118 33.8658 63.5605 33.7174 63.2376 33.6721C62.9182 33.6165 62.533 33.6919 62.0821 33.8985C61.6166 34.1118 61.3076 34.3807 61.1551 34.7053C61.0098 35.0265 61.0356 35.3968 61.2324 35.8161C61.493 36.3379 61.7591 36.8615 62.0307 37.387C62.2986 37.9055 62.5828 38.4121 62.8832 38.9068C63.1274 39.3132 63.4277 39.5533 63.784 39.6272C64.1403 39.7011 64.5548 39.6298 65.0276 39.4132C65.4785 39.2066 65.7804 38.9497 65.9332 38.6426C66.086 38.3354 66.0512 37.9737 65.8288 37.5573L65.4557 36.8587L64.4411 37.3236C64.2883 37.3935 64.1516 37.4342 64.031 37.4456C63.9065 37.4499 63.8002 37.4372 63.7118 37.4074C63.6197 37.3705 63.542 37.3183 63.4787 37.2506C63.4155 37.183 63.3631 37.1104 63.3216 37.0328C63.2839 36.9622 63.2572 36.8866 63.2413 36.8061C63.2216 36.7185 63.224 36.6296 63.2482 36.5394C63.2725 36.4492 63.3242 36.3597 63.4034 36.2707C63.4826 36.1817 63.5986 36.1022 63.7513 36.0322L65.8896 35.0526C66.3915 34.8227 66.7554 34.9194 66.9816 35.3428L67.7052 36.6976C67.9502 37.1563 68.0703 37.5844 68.0653 37.9819C68.0676 38.3761 67.9688 38.742 67.7689 39.0795C67.58 39.4208 67.3045 39.727 66.9425 39.9983C66.5914 40.2733 66.1868 40.5158 65.7286 40.7257C65.2486 40.9456 64.7805 41.103 64.3242 41.1979C63.8789 41.2964 63.4526 41.3117 63.0451 41.2437C62.6486 41.1794 62.2819 41.0268 61.9451 40.7859C61.6082 40.545 61.3136 40.1969 61.0613 39.7415C60.7754 39.2401 60.493 38.7283 60.2141 38.2062C59.9352 37.684 59.6617 37.1549 59.3935 36.619C59.1634 36.1711 59.0507 35.7484 59.0557 35.3509C59.0606 34.9534 59.1558 34.5892 59.3412 34.2584C59.5301 33.9171 59.7964 33.6106 60.1401 33.339C60.4801 33.0602 60.8719 32.8192 61.3156 32.616C61.8102 32.3894 62.293 32.2341 62.7641 32.15C63.2352 32.0659 63.6688 32.0473 64.065 32.0941C64.4574 32.1339 64.8032 32.239 65.1024 32.4093C65.3979 32.5726 65.6191 32.7919 65.7661 33.0671C66.0563 33.6104 65.8887 34.0254 65.2632 34.3119Z" fill="white"/>
</g>
<defs>
<filter id="filter0_d" x="0" y="0" width="79" height="73.5488" filterUnits="userSpaceOnUse" color-interpolation-filters="sRGB">
<feFlood flood-opacity="0" result="BackgroundImageFix"/>
<feColorMatrix in="SourceAlpha" type="matrix" values="0 0 0 0 0 0 0 0 0 0 0 0 0 0 0 0 0 0 127 0" result="hardAlpha"/>
<feOffset dy="4"/>
<feGaussianBlur stdDeviation="2"/>
<feComposite in2="hardAlpha" operator="out"/>
<feColorMatrix type="matrix" values="0 0 0 0 0 0 0 0 0 0 0 0 0 0 0 0 0 0 0.25 0"/>
<feBlend mode="normal" in2="BackgroundImageFix" result="effect1_dropShadow"/>
<feBlend mode="normal" in="SourceGraphic" in2="effect1_dropShadow" result="shape"/>
</filter>
</defs>
</svg>
