<svg width="58" height="58" viewBox="0 0 58 58" fill="none" xmlns="http://www.w3.org/2000/svg">
<g filter="url(#filter0_d)">
<circle cx="29" cy="25" r="25" fill="white"/>
</g>
<g clip-path="url(#clip0)">
<path d="M34.7812 25.0872L44.4488 15.7529C45.517 14.7216 45.517 13.0495 44.4488 12.0198L43.16 10.7754C42.0915 9.74378 40.3597 9.74378 39.2932 10.7754L29.626 20.1093L19.9584 10.7735C18.8902 9.74217 17.1584 9.74217 16.0919 10.7735L14.8011 12.0179C13.733 13.0495 13.733 14.7216 14.8011 15.7513L24.4704 25.0872L14.8031 34.4211C13.7346 35.4527 13.7346 37.1248 14.8031 38.1545L16.0919 39.3989C17.1601 40.4302 18.8919 40.4302 19.9584 39.3989L29.626 30.0646L39.2932 39.3989C40.3617 40.4302 42.0935 40.4302 43.16 39.3989L44.4488 38.1545C45.517 37.1228 45.517 35.4508 44.4488 34.4211L34.7812 25.0872Z" fill="#DC3A3A"/>
</g>
<defs>
<filter id="filter0_d" x="0" y="0" width="58" height="58" filterUnits="userSpaceOnUse" color-interpolation-filters="sRGB">
<feFlood flood-opacity="0" result="BackgroundImageFix"/>
<feColorMatrix in="SourceAlpha" type="matrix" values="0 0 0 0 0 0 0 0 0 0 0 0 0 0 0 0 0 0 127 0" result="hardAlpha"/>
<feOffset dy="4"/>
<feGaussianBlur stdDeviation="2"/>
<feColorMatrix type="matrix" values="0 0 0 0 0 0 0 0 0 0 0 0 0 0 0 0 0 0 0.25 0"/>
<feBlend mode="normal" in2="BackgroundImageFix" result="effect1_dropShadow"/>
<feBlend mode="normal" in="SourceGraphic" in2="effect1_dropShadow" result="shape"/>
</filter>
<clipPath id="clip0">
<rect width="31.25" height="30.1724" fill="white" transform="translate(14 10)"/>
</clipPath>
</defs>
</svg>
