<svg width="55" height="55" viewBox="0 0 55 55" fill="none" xmlns="http://www.w3.org/2000/svg">
<g clip-path="url(#clip0)">
<path d="M7.35162 39.2867L0.0413626 54.4245C-0.123315 54.7656 0.234292 55.1233 0.575463 54.9586L15.7133 47.6483L17.21 46.1516L8.84833 37.79L7.35162 39.2867Z" fill="#FED9A8"/>
<path d="M0.575463 54.959L8.59406 51.0866L3.9137 46.4062L0.0413626 54.4249C-0.123315 54.766 0.234292 55.1236 0.575463 54.959Z" fill="#333333"/>
<path d="M0.118652 54.8812C0.230156 54.9927 0.404824 55.0409 0.575302 54.9585L15.7132 47.6483L17.2099 46.1516L13.029 41.9707L0.118652 54.8812Z" fill="#F4C892"/>
<path d="M0.118652 54.8813C0.230156 54.9928 0.404824 55.041 0.575409 54.9586L8.59401 51.0863L6.25383 48.7461L0.118652 54.8813Z" fill="#1A1A1A"/>
<path d="M53.2681 1.73177C55.5772 4.0408 55.5772 7.78434 53.2681 10.0934L15.7429 47.6185L7.38135 39.257L44.9065 1.73177C47.2156 -0.577257 50.9591 -0.577257 53.2681 1.73177Z" fill="#FFBF14"/>
<path d="M53.2683 1.73155C52.6444 1.10765 51.9153 0.653896 51.1386 0.367188C51.9131 2.46524 51.4593 4.91392 49.7742 6.59904L12.249 44.1242L15.7431 47.6183L53.2683 10.0931C55.5773 7.78412 55.5773 4.04058 53.2683 1.73155Z" fill="#FF901D"/>
<path d="M50.0327 13.3282L41.6714 4.9668L38.4889 8.14928L46.8503 16.5106L50.0327 13.3282Z" fill="#21D8DE"/>
<path d="M50.033 13.3284L46.4956 9.79102L43.3131 12.9735L46.8505 16.5109L50.033 13.3284Z" fill="#11B9C1"/>
<path d="M53.2683 1.73177C50.9593 -0.577257 47.2157 -0.577257 44.9067 1.73177L41.6714 4.9671L50.033 13.3287L53.2683 10.0934C55.5772 7.78434 55.5772 4.0408 53.2683 1.73177Z" fill="#FF4C4C"/>
<path d="M53.268 1.7317C52.6391 1.10285 51.9035 0.64663 51.1199 0.360352C51.8849 2.45421 51.4287 4.89365 49.7485 6.57384L46.5132 9.80916L50.0326 13.3286L53.268 10.0933C55.5769 7.78426 55.577 4.04073 53.268 1.7317Z" fill="#F33939"/>
<path d="M10.1667 42.0417L12.958 44.833L44.0647 13.7263L41.2734 10.935L10.1667 42.0417Z" fill="#FFB123"/>
</g>
<defs>
<clipPath id="clip0">
<rect width="55" height="55" fill="white"/>
</clipPath>
</defs>
</svg>
