<svg width="115" height="54" viewBox="0 0 115 54" fill="none" xmlns="http://www.w3.org/2000/svg">
    <g filter="url(#filter0_d)">
        <rect width="16.9367" height="16.3426" transform="matrix(0.906279 -0.42268 0.464614 0.885513 4 15.3203)" fill="#80DEEA"/>
        <rect width="36.2445" height="16.3426" transform="matrix(0.906279 -0.42268 0.464614 0.885513 12.5039 31.5283)" fill="#607D8B"/>
        <rect width="16.9367" height="16.3426" transform="matrix(0.906279 -0.42268 0.464614 0.885513 21.498 7.15918)" fill="#80DEEA"/>
        <path d="M17.8701 23.5359C17.3119 23.7962 16.7677 23.9832 16.2377 24.0966C15.7204 24.2144 15.2255 24.2344 14.7529 24.1564C14.2932 24.0828 13.8684 23.9054 13.4788 23.6242C13.0891 23.3431 12.7491 22.9358 12.4587 22.4026C12.1296 21.8154 11.8111 21.2284 11.5032 20.6416C11.191 20.0465 10.8807 19.4351 10.5724 18.8074C10.3033 18.2745 10.1685 17.7767 10.1679 17.3141C10.1758 16.8475 10.2882 16.4196 10.5051 16.0304C10.7262 15.6289 11.0433 15.2701 11.4565 14.954C11.8738 14.6256 12.3573 14.3332 12.9071 14.0768C13.44 13.8283 13.9652 13.6553 14.4827 13.558C14.9958 13.4524 15.4844 13.4406 15.9485 13.5224C16.4168 13.5921 16.8499 13.7656 17.2481 14.0428C17.6504 14.3078 18.0008 14.6948 18.2993 15.2036C18.6369 15.7868 18.9641 16.3904 19.2809 17.0142C19.6061 17.634 19.9077 18.2289 20.1857 18.7988C20.4504 19.3234 20.5788 19.819 20.571 20.2856C20.5631 20.7522 20.4465 21.1821 20.2211 21.5753C20 21.9767 19.6851 22.3396 19.2762 22.664C18.8717 22.9967 18.403 23.2873 17.8701 23.5359ZM16.1931 16.1859C15.9247 15.7145 15.5755 15.4401 15.1454 15.3629C14.711 15.2775 14.2316 15.3571 13.7072 15.6017C13.1574 15.8581 12.7909 16.173 12.6078 16.5464C12.4332 16.9159 12.4632 17.3443 12.6978 17.8316C13.3012 19.0418 13.9278 20.236 14.5776 21.4143C14.8504 21.8941 15.1933 22.1765 15.6065 22.2616C16.0281 22.3427 16.5138 22.255 17.0636 21.9986C17.5795 21.758 17.9291 21.4509 18.1122 21.0775C18.2994 20.6918 18.2863 20.2556 18.073 19.7687C17.8074 19.1622 17.5122 18.5695 17.1874 17.9906C16.871 17.4077 16.5396 16.8062 16.1931 16.1859Z" fill="white"/>
        <path d="M38.7595 12.4187C38.8635 12.6171 38.9207 12.7962 38.9308 12.9561C38.941 13.1159 38.9148 13.2567 38.8524 13.3784C38.7942 13.5084 38.7104 13.6195 38.6009 13.7118C38.4957 13.8123 38.3754 13.8941 38.2401 13.9572C37.9609 14.0874 37.6875 14.1583 37.4199 14.1699C37.1566 14.1899 36.9117 14.1344 36.6851 14.0035L30.5989 10.5307L33.0447 15.1921C33.2225 15.5309 33.2404 15.826 33.0986 16.0774C32.9567 16.3287 32.7504 16.5175 32.4797 16.6437C32.3359 16.7108 32.1855 16.7552 32.0285 16.777C31.8758 16.8071 31.7228 16.8064 31.5695 16.7751C31.429 16.748 31.2924 16.6883 31.1596 16.5959C31.0397 16.5078 30.9364 16.3811 30.8497 16.2158L26.8754 8.64113C26.8233 8.54195 26.7924 8.43291 26.7827 8.31401C26.7814 8.19116 26.8056 8.06672 26.8553 7.94067C26.9006 7.80637 26.978 7.68286 27.0873 7.57015C27.2007 7.44523 27.3547 7.3374 27.5493 7.24667C27.7269 7.16382 27.8899 7.10324 28.0382 7.06491C28.1866 7.02658 28.3331 7.01484 28.4777 7.02967C28.618 7.03624 28.7671 7.06957 28.925 7.12968C29.0829 7.18978 29.2602 7.27684 29.4569 7.39085L35.1074 10.6655L32.6617 6.00416C32.4969 5.6901 32.4897 5.40543 32.64 5.15015C32.7988 4.89092 33.022 4.69424 33.3096 4.56011C33.4449 4.49699 33.5869 4.45651 33.7354 4.43866C33.8796 4.41254 34.022 4.413 34.1626 4.44005C34.3031 4.46709 34.4333 4.52466 34.5532 4.61275C34.6731 4.70084 34.7743 4.8234 34.8567 4.98043L38.7595 12.4187Z" fill="white"/>
        <path d="M20.2415 35.4926C20.0675 35.5737 19.8984 35.5997 19.7341 35.5705C19.5671 35.536 19.4419 35.4522 19.3586 35.3191C19.2309 35.1274 19.0575 35.0098 18.8385 34.9665C18.6167 34.9178 18.3508 34.9658 18.0409 35.1103C17.4319 35.3944 17.2754 35.8509 17.5716 36.4799C17.77 36.8966 17.9695 37.2962 18.1702 37.6788C18.3736 38.0535 18.581 38.4295 18.7926 38.807C18.968 39.1154 19.1721 39.3046 19.4051 39.3745C19.638 39.4444 19.9095 39.407 20.2195 39.2625C20.5403 39.1129 20.7393 38.944 20.8166 38.7558C20.8993 38.5652 20.8873 38.336 20.7807 38.0683C20.7219 37.9304 20.734 37.7858 20.8171 37.6346C20.9003 37.4834 21.0207 37.3711 21.1784 37.2975C21.6025 37.0997 21.9247 37.2107 22.1449 37.6304C22.2592 37.8482 22.3121 38.0782 22.3037 38.3202C22.3008 38.5596 22.2391 38.7967 22.1186 39.0315C21.9981 39.2662 21.8201 39.4881 21.5846 39.6971C21.3573 39.909 21.0751 40.0935 20.738 40.2507C20.4171 40.4004 20.0999 40.5053 19.7864 40.5656C19.4756 40.6312 19.1765 40.6351 18.889 40.5774C18.6043 40.525 18.3367 40.4084 18.0862 40.2277C17.8411 40.0444 17.6226 39.7826 17.4305 39.4423C16.9822 38.6395 16.571 37.8559 16.1969 37.0913C16.0322 36.7515 15.9496 36.4328 15.9492 36.1354C15.9489 35.838 16.013 35.5667 16.1415 35.3216C16.2728 35.0686 16.4562 34.8442 16.6919 34.6483C16.9247 34.4471 17.1907 34.2768 17.4897 34.1373C17.8214 33.9826 18.1469 33.8804 18.466 33.8308C18.7906 33.7786 19.0897 33.7747 19.3634 33.819C19.6343 33.858 19.8729 33.9451 20.0792 34.0803C20.2882 34.2077 20.447 34.375 20.5557 34.5822C20.7704 34.9913 20.6656 35.2948 20.2415 35.4926ZM26.2938 37.6595C25.9349 37.8269 25.5851 37.9471 25.2444 38.02C24.9118 38.0957 24.5937 38.1086 24.2899 38.0585C23.9943 38.0111 23.7213 37.8971 23.4708 37.7163C23.2203 37.5356 23.0017 37.2738 22.8151 36.931C22.6035 36.5535 22.3987 36.1762 22.2008 35.7989C22.0001 35.4164 21.8006 35.0233 21.6024 34.6198C21.4294 34.2772 21.3428 33.9572 21.3424 33.6598C21.3474 33.3598 21.4197 33.0848 21.5592 32.8346C21.7013 32.5765 21.9051 32.3458 22.1707 32.1426C22.439 31.9315 22.7499 31.7435 23.1033 31.5787C23.4459 31.4189 23.7835 31.3078 24.1162 31.2452C24.446 31.1773 24.7602 31.1697 25.0585 31.2223C25.3595 31.2671 25.638 31.3786 25.8939 31.5568C26.1525 31.7272 26.3778 31.976 26.5697 32.3031C26.7868 32.678 26.9971 33.066 27.2007 33.467C27.4098 33.8655 27.6037 34.2479 27.7824 34.6143C27.9526 34.9515 28.0351 35.2701 28.0301 35.5701C28.025 35.87 27.95 36.1464 27.8051 36.3991C27.663 36.6572 27.4606 36.8905 27.1977 37.0991C26.9377 37.3129 26.6364 37.4997 26.2938 37.6595ZM25.2158 32.9346C25.0432 32.6315 24.8187 32.4551 24.5422 32.4055C24.263 32.3506 23.9548 32.4017 23.6176 32.559C23.2642 32.7238 23.0286 32.9263 22.9109 33.1663C22.7987 33.4039 22.8179 33.6792 22.9687 33.9925C23.3566 34.7705 23.7595 35.5382 24.1772 36.2957C24.3525 36.6041 24.573 36.7856 24.8386 36.8403C25.1096 36.8925 25.4219 36.8361 25.7753 36.6713C26.107 36.5166 26.3317 36.3192 26.4494 36.0791C26.5698 35.8312 26.5614 35.5508 26.4242 35.2378C26.2535 34.8479 26.0637 34.4668 25.8549 34.0947C25.6515 33.72 25.4385 33.3333 25.2158 32.9346ZM29.0585 28.8012C29.4065 28.6389 29.7509 28.5213 30.0917 28.4484C30.4296 28.3701 30.7505 28.356 31.0543 28.4061C31.3607 28.4484 31.6392 28.5599 31.8897 28.7406C32.1457 28.9188 32.3628 29.178 32.5413 29.518L33.733 31.7894C33.9142 32.1347 34.0023 32.4574 33.9972 32.7573C33.9976 33.0547 33.9226 33.3311 33.7723 33.5864C33.6302 33.8444 33.4236 34.0763 33.1525 34.2821C32.8843 34.4932 32.5761 34.6799 32.2281 34.8422L30.5642 35.6183C30.3576 35.7146 30.172 35.735 30.0075 35.6795C29.8458 35.6293 29.7189 35.5165 29.6269 35.3412L27.0427 30.4159C26.9647 30.2672 26.9576 30.1118 27.0215 29.9497C27.0853 29.7877 27.2124 29.6622 27.4028 29.5735L29.0585 28.8012ZM30.8164 34.2607L31.7054 33.846C32.0534 33.6837 32.2823 33.4877 32.3919 33.258C32.5069 33.0258 32.4836 32.7556 32.3219 32.4475L31.1302 30.1761C30.9685 29.868 30.7549 29.6865 30.4893 29.6319C30.2263 29.5693 29.9209 29.6192 29.5729 29.7815L28.6838 30.1962L30.8164 34.2607ZM33.1135 27.6441C33.0076 27.4422 33.0029 27.2592 33.0996 27.0951C33.2017 26.9284 33.3451 26.802 33.53 26.7158C33.617 26.6752 33.7083 26.6492 33.8038 26.6377C33.9019 26.6184 33.9962 26.6174 34.0865 26.6348C34.1769 26.6522 34.2606 26.6892 34.3377 26.7458C34.4148 26.8024 34.4798 26.8812 34.5327 26.9822L37.0709 31.8197C37.1267 31.926 37.155 32.0252 37.156 32.1173C37.1598 32.2148 37.1416 32.3026 37.1014 32.3809C37.064 32.4645 37.0074 32.5372 36.9316 32.599C36.8639 32.6636 36.7866 32.7162 36.6996 32.7568C36.6072 32.7999 36.5105 32.8284 36.4095 32.8424C36.3114 32.8618 36.213 32.8614 36.1145 32.8412C36.0241 32.8238 35.9363 32.7854 35.851 32.726C35.7739 32.6694 35.7075 32.5879 35.6517 32.4817L33.1135 27.6441ZM43.397 28.7999C43.4639 28.9274 43.5006 29.0425 43.5072 29.1453C43.5137 29.2481 43.4969 29.3386 43.4567 29.4168C43.4193 29.5004 43.3654 29.5718 43.295 29.6311C43.2274 29.6957 43.1501 29.7483 43.0631 29.7889C42.8836 29.8726 42.7079 29.9182 42.5359 29.9257C42.3666 29.9385 42.2091 29.9028 42.0634 29.8186L38.1509 27.5862L39.7232 30.5828C39.8375 30.8006 39.849 30.9903 39.7578 31.1519C39.6666 31.3134 39.534 31.4348 39.36 31.516C39.2676 31.5591 39.1709 31.5876 39.07 31.6016C38.9718 31.621 38.8734 31.6206 38.7749 31.6004C38.6845 31.583 38.5967 31.5446 38.5114 31.4852C38.4343 31.4286 38.3679 31.3471 38.3121 31.2409L35.7572 26.3714C35.7238 26.3077 35.7039 26.2376 35.6976 26.1611C35.6968 26.0822 35.7124 26.0022 35.7443 25.9211C35.7735 25.8348 35.8232 25.7554 35.8934 25.6829C35.9664 25.6026 36.0654 25.5333 36.1904 25.475C36.3046 25.4217 36.4094 25.3828 36.5048 25.3581C36.6001 25.3335 36.6943 25.326 36.7873 25.3355C36.8775 25.3397 36.9734 25.3611 37.0749 25.3998C37.1763 25.4384 37.2903 25.4944 37.4168 25.5677L41.0492 27.6728L39.477 24.6762C39.3711 24.4743 39.3664 24.2913 39.4631 24.1272C39.5651 23.9606 39.7086 23.8341 39.8935 23.7479C39.9805 23.7073 40.0717 23.6813 40.1673 23.6698C40.26 23.653 40.3515 23.6533 40.4418 23.6707C40.5322 23.6881 40.6159 23.7251 40.693 23.7818C40.7701 23.8384 40.8351 23.9172 40.8881 24.0181L43.397 28.7999ZM47.1086 22.962C46.9183 23.0508 46.7329 23.0843 46.5524 23.0627C46.3745 23.0333 46.2438 22.952 46.1605 22.8189C46.0274 22.6297 45.8404 22.5185 45.5996 22.4853C45.3615 22.4443 45.0739 22.5024 44.7368 22.6596C44.3887 22.8219 44.1573 23.0258 44.0424 23.2711C43.9329 23.514 43.9508 23.7933 44.0962 24.109C44.2888 24.502 44.4856 24.8963 44.6864 25.292C44.8845 25.6824 45.0948 26.0638 45.3172 26.4362C45.498 26.742 45.7212 26.9223 45.9868 26.977C46.2524 27.0317 46.5619 26.9766 46.9153 26.8118C47.2525 26.6545 47.4786 26.4598 47.5936 26.2276C47.7087 25.9954 47.6839 25.7225 47.5195 25.4091L47.2435 24.8831L46.4849 25.2369C46.3707 25.2901 46.2686 25.3212 46.1786 25.3302C46.0857 25.3338 46.0064 25.3245 45.9406 25.3023C45.872 25.2747 45.8142 25.2356 45.7672 25.1847C45.7202 25.1339 45.6814 25.0792 45.6508 25.0208C45.6229 24.9677 45.6032 24.9107 45.5916 24.85C45.5772 24.7839 45.5793 24.7169 45.5977 24.6488C45.6161 24.5807 45.655 24.5129 45.7144 24.4455C45.7738 24.3781 45.8606 24.3178 45.9748 24.2646L47.5735 23.519C47.9487 23.344 48.2199 23.4159 48.3872 23.7346L48.9224 24.7548C49.1036 25.1001 49.1917 25.4228 49.1866 25.7227C49.187 26.0201 49.112 26.2965 48.9617 26.5518C48.8196 26.8098 48.613 27.0417 48.3419 27.2475C48.0791 27.4561 47.7764 27.6402 47.4338 27.8C47.0749 27.9674 46.7251 28.0876 46.3844 28.1605C46.0519 28.2362 45.7337 28.249 45.4299 28.1989C45.1344 28.1516 44.8613 28.0376 44.6108 27.8568C44.3603 27.6761 44.1417 27.4143 43.9551 27.0715C43.7435 26.694 43.5346 26.3087 43.3283 25.9155C43.122 25.5223 42.9197 25.124 42.7215 24.7204C42.5513 24.3832 42.4688 24.0646 42.4738 23.7646C42.4789 23.4647 42.5512 23.1896 42.6906 22.9394C42.8327 22.6813 43.0325 22.4493 43.2898 22.2432C43.5445 22.0319 43.8376 21.8489 44.1693 21.6942C44.5391 21.5217 44.8998 21.4031 45.2516 21.3382C45.6034 21.2734 45.9269 21.258 46.2224 21.2922C46.515 21.321 46.7726 21.3993 46.9953 21.5269C47.2151 21.6492 47.3794 21.814 47.4881 22.0212C47.7028 22.4303 47.5763 22.7439 47.1086 22.962Z" fill="white"/>
    </g>
    <path d="M60.5825 21.1949C60.5825 20.7682 60.6625 20.3469 60.8225 19.9309C60.9825 19.5149 61.2118 19.1469 61.5105 18.8269C61.8198 18.4962 62.1825 18.2295 62.5985 18.0269C63.0252 17.8242 63.5052 17.7229 64.0385 17.7229H69.2545C69.7772 17.7229 70.2518 17.8242 70.6785 18.0269C71.1052 18.2295 71.4678 18.4962 71.7665 18.8269C72.0758 19.1469 72.3105 19.5149 72.4705 19.9309C72.6305 20.3469 72.7105 20.7682 72.7105 21.1949V22.3149C72.7105 22.7522 72.6412 23.1682 72.5025 23.5629C72.3638 23.9469 72.1505 24.2935 71.8625 24.6029C71.5852 24.9015 71.2332 25.1415 70.8065 25.3229C70.3905 25.5042 69.8998 25.5949 69.3345 25.5949H67.9585V28.8909H72.2145C72.5132 28.8909 72.7585 28.9175 72.9505 28.9709C73.1425 29.0349 73.2918 29.1149 73.3985 29.2109C73.5052 29.3175 73.5745 29.4349 73.6065 29.5629C73.6492 29.7015 73.6705 29.8509 73.6705 30.0109C73.6705 30.1389 73.6492 30.2669 73.6065 30.3949C73.5745 30.5335 73.5052 30.6509 73.3985 30.7469C73.2918 30.8535 73.1425 30.9389 72.9505 31.0029C72.7585 31.0669 72.5132 31.0989 72.2145 31.0989H61.0945C60.7958 31.0989 60.5505 31.0669 60.3585 31.0029C60.1665 30.9389 60.0172 30.8535 59.9105 30.7469C59.8038 30.6509 59.7292 30.5335 59.6865 30.3949C59.6545 30.2669 59.6385 30.1389 59.6385 30.0109C59.6385 29.8509 59.6545 29.7015 59.6865 29.5629C59.7292 29.4349 59.8038 29.3175 59.9105 29.2109C60.0172 29.1149 60.1665 29.0349 60.3585 28.9709C60.5505 28.9175 60.7958 28.8909 61.0945 28.8909H65.3665V25.5949H63.9745C63.4092 25.5949 62.9132 25.5042 62.4865 25.3229C62.0705 25.1415 61.7185 24.9015 61.4305 24.6029C61.1532 24.2935 60.9398 23.9469 60.7905 23.5629C60.6518 23.1682 60.5825 22.7522 60.5825 22.3149V21.1949ZM63.1745 21.9149C63.1745 22.3095 63.2812 22.6455 63.4945 22.9229C63.7185 23.2002 64.0598 23.3495 64.5185 23.3709H68.7745C69.2332 23.3495 69.5692 23.2002 69.7825 22.9229C70.0065 22.6455 70.1185 22.3095 70.1185 21.9149V21.4029C70.1185 20.9975 70.0065 20.6562 69.7825 20.3789C69.5692 20.0909 69.2172 19.9469 68.7265 19.9469H64.5665C64.0758 19.9469 63.7185 20.0909 63.4945 20.3789C63.2812 20.6562 63.1745 20.9975 63.1745 21.4029V21.9149ZM79.7216 28.6829H82.0576C82.3563 28.6829 82.6016 28.7149 82.7936 28.7789C82.9856 28.8429 83.135 28.9229 83.2416 29.0189C83.3483 29.1255 83.4176 29.2429 83.4496 29.3709C83.4923 29.5095 83.5136 29.6429 83.5136 29.7709C83.5136 29.9309 83.4923 30.0749 83.4496 30.2029C83.4176 30.3415 83.3483 30.4589 83.2416 30.5549C83.135 30.6615 82.9856 30.7415 82.7936 30.7949C82.6016 30.8589 82.3563 30.8909 82.0576 30.8909H78.4256C78.127 30.8909 77.8923 30.8589 77.7216 30.7949C77.551 30.7415 77.4176 30.6615 77.3216 30.5549C77.2363 30.4589 77.183 30.3415 77.1616 30.2029C77.1403 30.0749 77.1296 29.9309 77.1296 29.7709V19.1149C77.1296 18.5815 77.2576 18.2189 77.5136 18.0269C77.7803 17.8242 78.0843 17.7229 78.4256 17.7229C78.5963 17.7229 78.7563 17.7442 78.9056 17.7869C79.0656 17.8295 79.2043 17.9042 79.3216 18.0109C79.439 18.1175 79.535 18.2615 79.6096 18.4429C79.6843 18.6242 79.7216 18.8482 79.7216 19.1149V28.6829ZM85.9136 18.9549C85.9136 18.4215 86.0416 18.0589 86.2976 17.8669C86.5643 17.6642 86.8683 17.5629 87.2096 17.5629C87.3803 17.5629 87.5403 17.5842 87.6896 17.6269C87.8496 17.6695 87.9883 17.7442 88.1056 17.8509C88.223 17.9575 88.319 18.1015 88.3936 18.2829C88.4683 18.4642 88.5056 18.6882 88.5056 18.9549V22.7949H89.5136C89.8123 22.7949 90.0576 22.8269 90.2496 22.8909C90.4416 22.9549 90.591 23.0402 90.6976 23.1469C90.8043 23.2429 90.8736 23.3602 90.9056 23.4989C90.9483 23.6269 90.9696 23.7549 90.9696 23.8829C90.9696 24.0429 90.9483 24.1922 90.9056 24.3309C90.8736 24.4589 90.8043 24.5762 90.6976 24.6829C90.591 24.7789 90.4416 24.8589 90.2496 24.9229C90.0576 24.9762 89.8123 25.0029 89.5136 25.0029H88.5056V29.8829C88.5056 30.1602 88.4683 30.3895 88.3936 30.5709C88.319 30.7522 88.223 30.8962 88.1056 31.0029C87.9883 31.1095 87.8496 31.1842 87.6896 31.2269C87.5403 31.2695 87.3803 31.2909 87.2096 31.2909C87.039 31.2909 86.8736 31.2695 86.7136 31.2269C86.5643 31.1842 86.4256 31.1095 86.2976 31.0029C86.1803 30.8962 86.0843 30.7522 86.0096 30.5709C85.9456 30.3895 85.9136 30.1602 85.9136 29.8829V18.9549ZM104.813 17.9149C105.101 17.9149 105.325 17.9469 105.485 18.0109C105.645 18.0642 105.767 18.1442 105.853 18.2509C105.938 18.3469 105.991 18.4695 106.013 18.6189C106.034 18.7682 106.045 18.9389 106.045 19.1309V21.3709C106.045 21.8829 106.034 22.3789 106.013 22.8589C106.002 23.3282 105.965 23.7709 105.901 24.1869C105.847 24.5922 105.762 24.9709 105.645 25.3229C105.538 25.6749 105.383 25.9842 105.181 26.2509C105.074 26.4002 104.951 26.5122 104.813 26.5869C104.674 26.6509 104.53 26.6935 104.381 26.7149C104.231 26.7362 104.082 26.7362 103.933 26.7149C103.794 26.6829 103.666 26.6402 103.549 26.5869C103.293 26.4695 103.101 26.2882 102.973 26.0429C102.855 25.7975 102.85 25.5149 102.957 25.1949C103.042 24.9282 103.106 24.6882 103.149 24.4749C103.202 24.2509 103.245 24.0375 103.277 23.8349H95.6448C95.3461 23.8349 95.1008 23.8082 94.9088 23.7549C94.7168 23.6909 94.5674 23.6109 94.4608 23.5149C94.3541 23.4082 94.2794 23.2909 94.2368 23.1629C94.2048 23.0242 94.1888 22.8749 94.1888 22.7149C94.1888 22.5869 94.2048 22.4589 94.2368 22.3309C94.2794 22.1922 94.3541 22.0749 94.4608 21.9789C94.5674 21.8722 94.7168 21.7869 94.9088 21.7229C95.1008 21.6589 95.3461 21.6269 95.6448 21.6269H103.389V20.1229H95.7728C95.4741 20.1229 95.2288 20.0962 95.0368 20.0429C94.8448 19.9789 94.6954 19.8989 94.5888 19.8029C94.4821 19.6962 94.4074 19.5789 94.3648 19.4509C94.3328 19.3122 94.3168 19.1629 94.3168 19.0029C94.3168 18.8749 94.3328 18.7469 94.3648 18.6189C94.4074 18.4802 94.4821 18.3629 94.5888 18.2669C94.6954 18.1602 94.8448 18.0749 95.0368 18.0109C95.2288 17.9469 95.4741 17.9149 95.7728 17.9149H104.813ZM93.2448 30.0109C93.2448 29.8509 93.2608 29.7015 93.2928 29.5629C93.3354 29.4349 93.4101 29.3175 93.5168 29.2109C93.6234 29.1149 93.7728 29.0349 93.9648 28.9709C94.1568 28.9175 94.4021 28.8909 94.7008 28.8909H97.4048V26.6509C97.4048 26.1175 97.5328 25.7549 97.7888 25.5629C98.0554 25.3602 98.3594 25.2589 98.7008 25.2589C98.8714 25.2589 99.0314 25.2802 99.1808 25.3229C99.3408 25.3655 99.4794 25.4402 99.5968 25.5469C99.7141 25.6535 99.8101 25.7975 99.8848 25.9789C99.9594 26.1602 99.9968 26.3842 99.9968 26.6509V28.8909H105.821C106.119 28.8909 106.365 28.9175 106.557 28.9709C106.749 29.0349 106.898 29.1149 107.005 29.2109C107.111 29.3175 107.181 29.4349 107.213 29.5629C107.255 29.7015 107.277 29.8509 107.277 30.0109C107.277 30.1389 107.255 30.2669 107.213 30.3949C107.181 30.5335 107.111 30.6509 107.005 30.7469C106.898 30.8535 106.749 30.9389 106.557 31.0029C106.365 31.0669 106.119 31.0989 105.821 31.0989H94.7008C94.4021 31.0989 94.1568 31.0669 93.9648 31.0029C93.7728 30.9389 93.6234 30.8535 93.5168 30.7469C93.4101 30.6509 93.3354 30.5335 93.2928 30.3949C93.2608 30.2669 93.2448 30.1389 93.2448 30.0109Z" fill="#EFEFEF"/>
    <defs>
        <filter id="filter0_d" x="0" y="0" width="56.9449" height="54" filterUnits="userSpaceOnUse" color-interpolation-filters="sRGB">
            <feFlood flood-opacity="0" result="BackgroundImageFix"/>
            <feColorMatrix in="SourceAlpha" type="matrix" values="0 0 0 0 0 0 0 0 0 0 0 0 0 0 0 0 0 0 127 0" result="hardAlpha"/>
            <feOffset dy="4"/>
            <feGaussianBlur stdDeviation="2"/>
            <feComposite in2="hardAlpha" operator="out"/>
            <feColorMatrix type="matrix" values="0 0 0 0 0 0 0 0 0 0 0 0 0 0 0 0 0 0 0.25 0"/>
            <feBlend mode="normal" in2="BackgroundImageFix" result="effect1_dropShadow"/>
            <feBlend mode="normal" in="SourceGraphic" in2="effect1_dropShadow" result="shape"/>
        </filter>
    </defs>
</svg>
