<svg width="131" height="60" viewBox="0 0 131 60" fill="none" xmlns="http://www.w3.org/2000/svg">
    <g filter="url(#filter0_d)">
        <rect width="19.3367" height="18.5229" transform="matrix(0.908214 -0.418507 0.469015 0.88319 4 17.3184)" fill="#80DEEA" />
        <rect width="41.3806" height="18.5229" transform="matrix(0.908214 -0.418507 0.469015 0.88319 13.7305 35.6406)" fill="#607D8B" />
        <rect width="19.3367" height="18.5229" transform="matrix(0.908214 -0.418507 0.469015 0.88319 24.0215 8.09277)" fill="#80DEEA" />
        <path d="M19.6982 26.2851C19.1387 26.5429 18.5932 26.7276 18.0616 26.8391C17.5429 26.9551 17.0462 26.9736 16.5717 26.8947C16.1101 26.8201 15.6833 26.6423 15.2914 26.3612C14.8994 26.0801 14.5569 25.6736 14.2639 25.1417C13.9318 24.556 13.6103 23.9705 13.2995 23.3852C12.9844 22.7917 12.6711 22.182 12.3597 21.5559C12.088 21.0245 11.9512 20.5283 11.9492 20.0676C11.9556 19.6029 12.0671 19.177 12.2836 18.79C12.5042 18.3908 12.8213 18.0343 13.235 17.7205C13.6528 17.3946 14.1372 17.1047 14.6882 16.8508C15.2222 16.6048 15.7487 16.434 16.2678 16.3384C16.7824 16.2347 17.2727 16.2242 17.7387 16.307C18.2089 16.3776 18.6441 16.5516 19.0446 16.8288C19.4491 17.0938 19.8019 17.4801 20.1032 17.9877C20.4438 18.5695 20.774 19.1715 21.0938 19.7936C21.4221 20.4119 21.7266 21.0051 22.0074 21.5735C22.2747 22.0967 22.4051 22.5907 22.3986 23.0553C22.3922 23.52 22.2765 23.9479 22.0515 24.3388C21.8309 24.738 21.5159 25.0986 21.1066 25.4206C20.7017 25.7508 20.2322 26.039 19.6982 26.2851ZM17.9925 18.9603C17.7216 18.4901 17.3703 18.2159 16.9385 18.1379C16.5022 18.0516 16.0214 18.1295 15.4958 18.3717C14.9448 18.6256 14.578 18.9382 14.3955 19.3097C14.2213 19.6772 14.2528 20.1039 14.4897 20.5898C15.099 21.7968 15.7315 22.9879 16.3873 24.1632C16.6626 24.6417 17.0076 24.9239 17.4225 25.0098C17.8458 25.0917 18.333 25.0058 18.884 24.7519C19.4011 24.5136 19.7509 24.2087 19.9335 23.8373C20.1202 23.4537 20.1057 23.0192 19.8901 22.5337C19.6217 21.9289 19.3236 21.3378 18.9958 20.7604C18.6766 20.179 18.3421 19.579 17.9925 18.9603Z" fill="white" />
        <path d="M43.1139 14.1257C43.219 14.3235 43.2769 14.502 43.2876 14.6613C43.2983 14.8205 43.2725 14.9606 43.2101 15.0817C43.1522 15.211 43.0684 15.3214 42.9588 15.413C42.8535 15.5128 42.7331 15.594 42.5974 15.6565C42.3177 15.7854 42.0436 15.8553 41.775 15.8661C41.5109 15.8853 41.2649 15.8293 41.037 15.6983L34.9184 12.2231L37.3873 16.8722C37.5668 17.2102 37.5857 17.5042 37.4441 17.7541C37.3025 18.004 37.0961 18.1915 36.8248 18.3165C36.6807 18.3829 36.5299 18.4267 36.3724 18.448C36.2193 18.4775 36.0657 18.4765 35.9117 18.4448C35.7706 18.4175 35.6333 18.3577 35.4999 18.2653C35.3792 18.1772 35.2751 18.0507 35.1876 17.8859L31.1756 10.3311C31.1231 10.2321 31.0918 10.1235 31.0816 10.005C31.08 9.88266 31.1039 9.75878 31.1533 9.63339C31.1984 9.49974 31.2756 9.37695 31.385 9.26499C31.4985 9.14089 31.6527 9.03391 31.8476 8.94407C32.0257 8.86205 32.189 8.80215 32.3378 8.76438C32.4866 8.72661 32.6335 8.71531 32.7788 8.73048C32.9196 8.7374 33.0693 8.77101 33.228 8.8313C33.3866 8.89158 33.5648 8.97877 33.7625 9.09285L39.4434 12.3696L36.9745 7.72049C36.8082 7.40725 36.8 7.12371 36.9501 6.86987C37.1087 6.61213 37.332 6.41685 37.6203 6.28404C37.7559 6.22155 37.8982 6.18161 38.0472 6.16424C38.1919 6.13862 38.3348 6.13947 38.4759 6.16678C38.617 6.1941 38.7479 6.25178 38.8685 6.33985C38.9891 6.42791 39.091 6.55025 39.1742 6.70687L43.1139 14.1257Z" fill="white" />
        <path d="M24.4629 39.7311C24.2886 39.8114 24.1189 39.8368 23.954 39.8073C23.7863 39.7724 23.6604 39.6886 23.5763 39.5559C23.4476 39.3646 23.2733 39.247 23.0533 39.2033C22.8306 39.1542 22.5639 39.2012 22.2533 39.3444C21.6429 39.6256 21.4874 40.0798 21.7866 40.7071C21.9869 41.1227 22.1884 41.5212 22.391 41.9028C22.5962 42.2765 22.8056 42.6516 23.0191 43.0281C23.1961 43.3357 23.4015 43.5247 23.6356 43.5949C23.8696 43.6652 24.1419 43.6288 24.4525 43.4856C24.774 43.3375 24.9732 43.1698 25.0502 42.9827C25.1326 42.793 25.1199 42.5647 25.012 42.2978C24.9526 42.1603 24.9643 42.0163 25.0473 41.866C25.1302 41.7156 25.2507 41.6041 25.4087 41.5312C25.8338 41.3354 26.1575 41.4468 26.3798 41.8654C26.4951 42.0827 26.549 42.3118 26.5413 42.5528C26.5391 42.7913 26.4779 43.0272 26.3577 43.2607C26.2375 43.4942 26.0595 43.7147 25.8238 43.9222C25.5964 44.1326 25.3138 44.3156 24.9759 44.4713C24.6544 44.6194 24.3364 44.7231 24.0219 44.7823C23.7102 44.8467 23.41 44.8498 23.1213 44.7916C22.8355 44.7386 22.5666 44.6218 22.3146 44.4411C22.0681 44.2579 21.8479 43.9966 21.6541 43.6571C21.2017 42.8564 20.7867 42.0748 20.4089 41.3123C20.2425 40.9734 20.1586 40.6559 20.1573 40.3596C20.156 40.0634 20.2195 39.7934 20.3478 39.5496C20.4787 39.298 20.6621 39.075 20.898 38.8806C21.1311 38.6808 21.3974 38.5119 21.6972 38.3738C22.0296 38.2206 22.3558 38.1197 22.6759 38.0712C23.0015 38.0201 23.3017 38.017 23.5765 38.0618C23.8485 38.1014 24.0882 38.1888 24.2957 38.3241C24.5058 38.4515 24.6657 38.6186 24.7755 38.8252C24.9922 39.2333 24.888 39.5352 24.4629 39.7311ZM30.5436 41.9057C30.184 42.0714 29.8333 42.1901 29.4915 42.2618C29.158 42.3364 28.8388 42.3483 28.5338 42.2975C28.237 42.2496 27.9626 42.1353 27.7107 41.9546C27.4587 41.7739 27.2385 41.5126 27.0502 41.1706C26.8366 40.7941 26.63 40.4177 26.4302 40.0415C26.2276 39.6599 26.0262 39.2679 25.826 38.8655C25.6514 38.5238 25.5634 38.2049 25.5621 37.9087C25.5663 37.61 25.6379 37.3362 25.7771 37.0874C25.9189 36.8307 26.1228 36.6016 26.3887 36.3999C26.6573 36.1904 26.9687 36.004 27.3229 35.8408C27.6662 35.6826 28.0047 35.5728 28.3383 35.5114C28.6692 35.4447 28.9844 35.4379 29.284 35.4912C29.5862 35.5366 29.866 35.6484 30.1234 35.8266C30.3835 35.997 30.6103 36.2453 30.804 36.5717C31.0229 36.9457 31.2352 37.3326 31.4408 37.7326C31.6519 38.13 31.8476 38.5114 32.0281 38.8768C32.1999 39.2131 32.2838 39.5307 32.2796 39.8294C32.2755 40.1281 32.2011 40.4032 32.0565 40.6545C31.9146 40.9111 31.7122 41.1429 31.449 41.3499C31.1887 41.5622 30.8869 41.7475 30.5436 41.9057ZM29.4471 37.1969C29.273 36.8946 29.0471 36.7183 28.7695 36.6682C28.4891 36.6127 28.1799 36.6628 27.8421 36.8185C27.4879 36.9817 27.2521 37.1827 27.1347 37.4215C27.0228 37.6577 27.043 37.9321 27.1953 38.2444C27.587 39.0203 27.9936 39.7861 28.4152 40.5416C28.5921 40.8492 28.814 41.0306 29.0807 41.0858C29.3528 41.1385 29.666 41.0832 30.0202 40.92C30.3526 40.7668 30.5775 40.5709 30.6949 40.3321C30.8149 40.0855 30.8056 39.8062 30.667 39.4941C30.4944 39.1053 30.3028 38.7253 30.0921 38.3541C29.8869 37.9803 29.6719 37.5946 29.4471 37.1969ZM33.2908 33.0908C33.6396 32.9301 33.9848 32.8138 34.3266 32.7421C34.6655 32.6651 34.9875 32.6519 35.2925 32.7026C35.6002 32.7456 35.88 32.8574 36.1319 33.0381C36.3894 33.2163 36.6081 33.4749 36.7882 33.8141L37.9912 36.0795C38.1742 36.4239 38.2635 36.7455 38.2594 37.0442C38.2607 37.3404 38.1863 37.6155 38.0362 37.8693C37.8944 38.1259 37.6878 38.3564 37.4164 38.5606C37.1479 38.7701 36.8392 38.9552 36.4904 39.1159L34.823 39.8843C34.6159 39.9797 34.4297 39.9995 34.2644 39.9438C34.102 39.8933 33.9743 39.7806 33.8815 39.6057L31.2728 34.6934C31.194 34.5451 31.1864 34.3903 31.25 34.229C31.3136 34.0678 31.4408 33.9433 31.6315 33.8554L33.2908 33.0908ZM35.0718 38.5329L35.9628 38.1223C36.3115 37.9616 36.5406 37.767 36.6499 37.5386C36.7646 37.3076 36.7404 37.0384 36.5772 36.7311L35.3741 34.4657C35.2109 34.1584 34.996 33.9771 34.7293 33.9219C34.4652 33.8589 34.1588 33.9077 33.81 34.0685L32.9191 34.479L35.0718 38.5329ZM37.3567 31.9493C37.2498 31.748 37.2446 31.5657 37.341 31.4025C37.443 31.2368 37.5866 31.1113 37.7718 31.0259C37.859 30.9857 37.9505 30.96 38.0463 30.9489C38.1448 30.9299 38.2394 30.9292 38.3301 30.9467C38.4208 30.9643 38.5049 31.0014 38.5825 31.058C38.66 31.1146 38.7255 31.1933 38.779 31.2939L41.3412 36.1188C41.3975 36.2248 41.4263 36.3237 41.4275 36.4154C41.4316 36.5125 41.4136 36.5999 41.3735 36.6778C41.3363 36.7609 41.2797 36.8331 41.2038 36.8945C41.1361 36.9587 41.0587 37.0108 40.9715 37.051C40.8788 37.0937 40.7819 37.1219 40.6806 37.1356C40.5822 37.1545 40.4835 37.1539 40.3845 37.1335C40.2938 37.116 40.2055 37.0775 40.1197 37.0181C40.0422 36.9615 39.9752 36.8802 39.919 36.7742L37.3567 31.9493ZM47.6806 33.1284C47.7481 33.2555 47.7853 33.3703 47.7922 33.4727C47.7991 33.575 47.7825 33.6651 47.7424 33.743C47.7052 33.8261 47.6513 33.8971 47.5808 33.9559C47.5131 34.0201 47.4357 34.0723 47.3485 34.1124C47.1687 34.1953 46.9925 34.2402 46.8198 34.2472C46.65 34.2595 46.4919 34.2236 46.3454 34.1394L42.412 31.9053L43.9992 34.894C44.1145 35.1113 44.1267 35.3003 44.0357 35.4609C43.9446 35.6216 43.8119 35.7421 43.6376 35.8225C43.5449 35.8652 43.448 35.8933 43.3467 35.907C43.2483 35.926 43.1496 35.9253 43.0506 35.905C42.9599 35.8874 42.8716 35.8489 42.7858 35.7895C42.7083 35.7329 42.6413 35.6516 42.5851 35.5456L40.006 30.689C39.9722 30.6254 39.952 30.5555 39.9455 30.4794C39.9444 30.4007 39.9598 30.3211 39.9916 30.2405C40.0206 30.1546 40.0702 30.0756 40.1405 30.0036C40.2135 29.9239 40.3126 29.8551 40.438 29.7973C40.5524 29.7446 40.6574 29.7061 40.7531 29.6818C40.8487 29.6575 40.9432 29.6503 41.0365 29.66C41.1271 29.6645 41.2233 29.6861 41.3253 29.7248C41.4273 29.7636 41.5418 29.8196 41.6689 29.893L45.3209 31.9995L43.7338 29.0108C43.6269 28.8094 43.6216 28.6271 43.7181 28.4639C43.82 28.2982 43.9636 28.1727 44.1489 28.0873C44.2361 28.0471 44.3276 28.0215 44.4234 28.0103C44.5164 27.9938 44.6083 27.9944 44.699 28.0119C44.7897 28.0295 44.8738 28.0666 44.9514 28.1232C45.0289 28.1798 45.0944 28.2585 45.1479 28.3591L47.6806 33.1284ZM51.3875 27.3242C51.1967 27.4121 51.0107 27.445 50.8295 27.423C50.6509 27.3932 50.5195 27.3119 50.4354 27.1791C50.3013 26.9903 50.1133 26.8791 49.8716 26.8453C49.6325 26.8038 49.344 26.8609 49.0061 27.0166C48.6574 27.1773 48.4257 27.3797 48.3112 27.6237C48.202 27.8653 48.2209 28.1435 48.3678 28.4584C48.5623 28.8503 48.761 29.2435 48.9638 29.6382C49.1637 30.0275 49.3759 30.4079 49.6004 30.7794C49.7827 31.0846 50.0073 31.2647 50.274 31.3199C50.5407 31.3751 50.8511 31.3211 51.2053 31.1579C51.5432 31.0022 51.7695 30.8088 51.8842 30.5779C51.999 30.3469 51.9733 30.0751 51.8073 29.7625L51.5287 29.2378L50.7685 29.5881C50.6541 29.6409 50.5517 29.6716 50.4614 29.6802C50.3682 29.6836 50.2885 29.6741 50.2224 29.6518C50.1535 29.6242 50.0954 29.585 50.0481 29.5343C50.0008 29.4835 49.9617 29.429 49.9307 29.3707C49.9026 29.3177 49.8826 29.2609 49.8708 29.2004C49.8562 29.1346 49.858 29.0678 49.8763 29C49.8946 28.9322 49.9334 28.8649 49.9928 28.7979C50.0522 28.731 50.1391 28.6711 50.2536 28.6184L51.8557 27.8802C52.2317 27.7069 52.5041 27.7792 52.6729 28.0972L53.2132 29.1146C53.3961 29.4591 53.4855 29.7806 53.4814 30.0794C53.4827 30.3756 53.4083 30.6506 53.2582 30.9045C53.1164 31.1611 52.9098 31.3915 52.6384 31.5957C52.3753 31.8027 52.0721 31.9853 51.7288 32.1435C51.3691 32.3092 51.0184 32.428 50.6767 32.4997C50.3432 32.5742 50.0239 32.5861 49.7189 32.5354C49.4221 32.4874 49.1478 32.3731 48.8958 32.1924C48.6438 32.0117 48.4237 31.7504 48.2353 31.4085C48.0218 31.0319 47.8109 30.6476 47.6027 30.2555C47.3944 29.8633 47.1902 29.466 46.9901 29.0636C46.8182 28.7272 46.7344 28.4097 46.7385 28.111C46.7427 27.8122 46.8144 27.5385 46.9535 27.2896C47.0953 27.033 47.2951 26.8025 47.5528 26.598C47.8076 26.3882 48.1013 26.2067 48.4337 26.0535C48.8042 25.8828 49.1659 25.7656 49.5187 25.7019C49.8715 25.6383 50.1963 25.6239 50.4928 25.6587C50.7866 25.6882 51.0454 25.7669 51.2692 25.8946C51.4903 26.017 51.6556 26.1815 51.7654 26.3882C51.9821 26.7962 51.8561 27.1082 51.3875 27.3242Z" fill="white" />
    </g>
    <path d="M65.71 18.306C65.71 17.826 65.8 17.352 65.98 16.884C66.16 16.416 66.418 16.002 66.754 15.642C67.102 15.27 67.51 14.97 67.978 14.742C68.458 14.514 68.998 14.4 69.598 14.4H75.466C76.054 14.4 76.588 14.514 77.068 14.742C77.548 14.97 77.956 15.27 78.292 15.642C78.64 16.002 78.904 16.416 79.084 16.884C79.264 17.352 79.354 17.826 79.354 18.306V19.566C79.354 20.058 79.276 20.526 79.12 20.97C78.964 21.402 78.724 21.792 78.4 22.14C78.088 22.476 77.692 22.746 77.212 22.95C76.744 23.154 76.192 23.256 75.556 23.256H74.008V26.964H78.796C79.132 26.964 79.408 26.994 79.624 27.054C79.84 27.126 80.008 27.216 80.128 27.324C80.248 27.444 80.326 27.576 80.362 27.72C80.41 27.876 80.434 28.044 80.434 28.224C80.434 28.368 80.41 28.512 80.362 28.656C80.326 28.812 80.248 28.944 80.128 29.052C80.008 29.172 79.84 29.268 79.624 29.34C79.408 29.412 79.132 29.448 78.796 29.448H66.286C65.95 29.448 65.674 29.412 65.458 29.34C65.242 29.268 65.074 29.172 64.954 29.052C64.834 28.944 64.75 28.812 64.702 28.656C64.666 28.512 64.648 28.368 64.648 28.224C64.648 28.044 64.666 27.876 64.702 27.72C64.75 27.576 64.834 27.444 64.954 27.324C65.074 27.216 65.242 27.126 65.458 27.054C65.674 26.994 65.95 26.964 66.286 26.964H71.092V23.256H69.526C68.89 23.256 68.332 23.154 67.852 22.95C67.384 22.746 66.988 22.476 66.664 22.14C66.352 21.792 66.112 21.402 65.944 20.97C65.788 20.526 65.71 20.058 65.71 19.566V18.306ZM68.626 19.116C68.626 19.56 68.746 19.938 68.986 20.25C69.238 20.562 69.622 20.73 70.138 20.754H74.926C75.442 20.73 75.82 20.562 76.06 20.25C76.312 19.938 76.438 19.56 76.438 19.116V18.54C76.438 18.084 76.312 17.7 76.06 17.388C75.82 17.064 75.424 16.902 74.872 16.902H70.192C69.64 16.902 69.238 17.064 68.986 17.388C68.746 17.7 68.626 18.084 68.626 18.54V19.116ZM87.2415 26.73H89.8695C90.2055 26.73 90.4815 26.766 90.6975 26.838C90.9135 26.91 91.0815 27 91.2015 27.108C91.3215 27.228 91.3995 27.36 91.4355 27.504C91.4835 27.66 91.5075 27.81 91.5075 27.954C91.5075 28.134 91.4835 28.296 91.4355 28.44C91.3995 28.596 91.3215 28.728 91.2015 28.836C91.0815 28.956 90.9135 29.046 90.6975 29.106C90.4815 29.178 90.2055 29.214 89.8695 29.214H85.7835C85.4475 29.214 85.1835 29.178 84.9915 29.106C84.7995 29.046 84.6495 28.956 84.5415 28.836C84.4455 28.728 84.3855 28.596 84.3615 28.44C84.3375 28.296 84.3255 28.134 84.3255 27.954V15.966C84.3255 15.366 84.4695 14.958 84.7575 14.742C85.0575 14.514 85.3995 14.4 85.7835 14.4C85.9755 14.4 86.1555 14.424 86.3235 14.472C86.5035 14.52 86.6595 14.604 86.7915 14.724C86.9235 14.844 87.0315 15.006 87.1155 15.21C87.1995 15.414 87.2415 15.666 87.2415 15.966V26.73ZM94.2075 15.786C94.2075 15.186 94.3515 14.778 94.6395 14.562C94.9395 14.334 95.2815 14.22 95.6655 14.22C95.8575 14.22 96.0375 14.244 96.2055 14.292C96.3855 14.34 96.5415 14.424 96.6735 14.544C96.8055 14.664 96.9135 14.826 96.9975 15.03C97.0815 15.234 97.1235 15.486 97.1235 15.786V20.106H98.2575C98.5935 20.106 98.8695 20.142 99.0855 20.214C99.3015 20.286 99.4695 20.382 99.5895 20.502C99.7095 20.61 99.7875 20.742 99.8235 20.898C99.8715 21.042 99.8955 21.186 99.8955 21.33C99.8955 21.51 99.8715 21.678 99.8235 21.834C99.7875 21.978 99.7095 22.11 99.5895 22.23C99.4695 22.338 99.3015 22.428 99.0855 22.5C98.8695 22.56 98.5935 22.59 98.2575 22.59H97.1235V28.08C97.1235 28.392 97.0815 28.65 96.9975 28.854C96.9135 29.058 96.8055 29.22 96.6735 29.34C96.5415 29.46 96.3855 29.544 96.2055 29.592C96.0375 29.64 95.8575 29.664 95.6655 29.664C95.4735 29.664 95.2875 29.64 95.1075 29.592C94.9395 29.544 94.7835 29.46 94.6395 29.34C94.5075 29.22 94.3995 29.058 94.3155 28.854C94.2435 28.65 94.2075 28.392 94.2075 28.08V15.786ZM115.469 14.616C115.793 14.616 116.045 14.652 116.225 14.724C116.405 14.784 116.543 14.874 116.639 14.994C116.735 15.102 116.795 15.24 116.819 15.408C116.843 15.576 116.855 15.768 116.855 15.984V18.504C116.855 19.08 116.843 19.638 116.819 20.178C116.807 20.706 116.765 21.204 116.693 21.672C116.633 22.128 116.537 22.554 116.405 22.95C116.285 23.346 116.111 23.694 115.883 23.994C115.763 24.162 115.625 24.288 115.469 24.372C115.313 24.444 115.151 24.492 114.983 24.516C114.815 24.54 114.647 24.54 114.479 24.516C114.323 24.48 114.179 24.432 114.047 24.372C113.759 24.24 113.543 24.036 113.399 23.76C113.267 23.484 113.261 23.166 113.381 22.806C113.477 22.506 113.549 22.236 113.597 21.996C113.657 21.744 113.705 21.504 113.741 21.276H105.155C104.819 21.276 104.543 21.246 104.327 21.186C104.111 21.114 103.943 21.024 103.823 20.916C103.703 20.796 103.619 20.664 103.571 20.52C103.535 20.364 103.517 20.196 103.517 20.016C103.517 19.872 103.535 19.728 103.571 19.584C103.619 19.428 103.703 19.296 103.823 19.188C103.943 19.068 104.111 18.972 104.327 18.9C104.543 18.828 104.819 18.792 105.155 18.792H113.867V17.1H105.299C104.963 17.1 104.687 17.07 104.471 17.01C104.255 16.938 104.087 16.848 103.967 16.74C103.847 16.62 103.763 16.488 103.715 16.344C103.679 16.188 103.661 16.02 103.661 15.84C103.661 15.696 103.679 15.552 103.715 15.408C103.763 15.252 103.847 15.12 103.967 15.012C104.087 14.892 104.255 14.796 104.471 14.724C104.687 14.652 104.963 14.616 105.299 14.616H115.469ZM102.455 28.224C102.455 28.044 102.473 27.876 102.509 27.72C102.557 27.576 102.641 27.444 102.761 27.324C102.881 27.216 103.049 27.126 103.265 27.054C103.481 26.994 103.757 26.964 104.093 26.964H107.135V24.444C107.135 23.844 107.279 23.436 107.567 23.22C107.867 22.992 108.209 22.878 108.593 22.878C108.785 22.878 108.965 22.902 109.133 22.95C109.313 22.998 109.469 23.082 109.601 23.202C109.733 23.322 109.841 23.484 109.925 23.688C110.009 23.892 110.051 24.144 110.051 24.444V26.964H116.603C116.939 26.964 117.215 26.994 117.431 27.054C117.647 27.126 117.815 27.216 117.935 27.324C118.055 27.444 118.133 27.576 118.169 27.72C118.217 27.876 118.241 28.044 118.241 28.224C118.241 28.368 118.217 28.512 118.169 28.656C118.133 28.812 118.055 28.944 117.935 29.052C117.815 29.172 117.647 29.268 117.431 29.34C117.215 29.412 116.939 29.448 116.603 29.448H104.093C103.757 29.448 103.481 29.412 103.265 29.34C103.049 29.268 102.881 29.172 102.761 29.052C102.641 28.944 102.557 28.812 102.509 28.656C102.473 28.512 102.455 28.368 102.455 28.224Z" fill="#EFEFEF" />
    <defs>
        <filter id="filter0_d" x="0" y="0" width="64.0004" height="60" filterUnits="userSpaceOnUse" color-interpolation-filters="sRGB">
            <feFlood flood-opacity="0" result="BackgroundImageFix" />
            <feColorMatrix in="SourceAlpha" type="matrix" values="0 0 0 0 0 0 0 0 0 0 0 0 0 0 0 0 0 0 127 0" result="hardAlpha" />
            <feOffset dy="4" />
            <feGaussianBlur stdDeviation="2" />
            <feComposite in2="hardAlpha" operator="out" />
            <feColorMatrix type="matrix" values="0 0 0 0 0 0 0 0 0 0 0 0 0 0 0 0 0 0 0.25 0" />
            <feBlend mode="normal" in2="BackgroundImageFix" result="effect1_dropShadow" />
            <feBlend mode="normal" in="SourceGraphic" in2="effect1_dropShadow" result="shape" />
        </filter>
    </defs>
</svg>
    