<svg width="56" height="20" viewBox="0 0 56 20" fill="none" xmlns="http://www.w3.org/2000/svg">
<circle cx="6.5" cy="10.5" r="6.5" fill="#5A5A5A"/>
<path d="M23.352 7.486C22.584 8.398 21.6 9.124 20.4 9.664C19.2 10.204 17.898 10.522 16.494 10.618V8.962C18.09 8.83 19.476 8.368 20.652 7.576C21.828 6.784 22.572 5.764 22.884 4.516H16.872V2.896H30.444V4.516H24.774C24.666 5.068 24.492 5.596 24.252 6.1L30.948 9.07L30.21 10.564L23.352 7.486ZM31.344 13.93H24.54V18.232H22.74V13.93H15.99V12.274H31.344V13.93ZM49.3785 6.154V7.864H47.2185V13.912H45.4365V2.5H47.2185V6.154H49.3785ZM42.5565 4.966C42.5565 6.394 42.1905 7.6 41.4585 8.584C40.7265 9.556 39.6945 10.288 38.3625 10.78C37.0425 11.26 35.4885 11.5 33.7005 11.5V9.898C35.8845 9.886 37.6065 9.472 38.8665 8.656C40.1265 7.84 40.7565 6.682 40.7565 5.182V4.444H33.7005V2.878H42.5565V4.966ZM36.1665 16.054H47.6325V17.674H34.3665V12.832H36.1665V16.054Z" fill="#5A5A5A"/>
</svg>

