<svg width="61" height="57" viewBox="0 0 61 57" fill="none" xmlns="http://www.w3.org/2000/svg">
<g filter="url(#filter0_d)">
<rect width="18.1255" height="17.3327" transform="matrix(0.908667 -0.417523 0.470059 0.882635 4 16.3203)" fill="#80DEEA"/>
</g>
<g filter="url(#filter1_d)">
<rect width="18.1255" height="17.3327" transform="matrix(0.908667 -0.417523 0.470059 0.882635 22.4785 7.56738)" fill="#80DEEA"/>
</g>
<g filter="url(#filter2_d)">
<rect width="38.7885" height="17.3327" transform="matrix(0.908666 -0.417523 0.470059 0.882635 12.7539 33.7012)" fill="#607D8B"/>
</g>
<path d="M41.4661 13.8115C41.5714 14.0092 41.6295 14.1876 41.6403 14.3467C41.6511 14.5058 41.6254 14.6458 41.5631 14.7667C41.5052 14.8958 41.4214 15.0061 41.3118 15.0975C41.2065 15.1972 41.086 15.2782 40.9503 15.3405C40.6705 15.4691 40.3961 15.5388 40.1274 15.5495C39.863 15.5684 39.6168 15.5124 39.3886 15.3813L33.2623 11.9056L35.7367 16.5518C35.9166 16.8896 35.9358 17.1832 35.7942 17.4328C35.6527 17.6824 35.4462 17.8696 35.1748 17.9943C35.0307 18.0605 34.8798 18.1042 34.7221 18.1254C34.5689 18.1548 34.4152 18.1536 34.2611 18.1219C34.1198 18.0945 33.9824 18.0346 33.8487 17.9423C33.7279 17.8542 33.6237 17.7278 33.5359 17.563L29.515 10.013C29.4624 9.91412 29.4309 9.80552 29.4207 9.68718C29.4189 9.56495 29.4428 9.44121 29.4922 9.31596C29.5372 9.18248 29.6144 9.05985 29.7238 8.94807C29.8373 8.82416 29.9915 8.71739 30.1866 8.62776C30.3647 8.54592 30.5282 8.48619 30.677 8.44855C30.8259 8.41092 30.973 8.39972 31.1183 8.41496C31.2593 8.42197 31.4092 8.45564 31.568 8.51597C31.7268 8.5763 31.9052 8.66352 32.1032 8.77761L37.7912 12.0548L35.3168 7.40863C35.1501 7.09559 35.1418 6.81232 35.2918 6.55882C35.4503 6.30142 35.6737 6.10648 35.9621 5.97399C36.0978 5.91164 36.2402 5.87183 36.3893 5.85457C36.5341 5.82906 36.6771 5.83 36.8184 5.85738C36.9596 5.88476 37.0906 5.94248 37.2114 6.03053C37.3322 6.11858 37.4343 6.24087 37.5176 6.39739L41.4661 13.8115Z" fill="white"/>
<path d="M18.62 25.4933C18.0603 25.7505 17.5144 25.9346 16.9825 26.0458C16.4634 26.1612 15.9663 26.1794 15.4914 26.1003C15.0293 26.0255 14.602 25.8476 14.2096 25.5665C13.8171 25.2854 13.474 24.8791 13.1804 24.3475C12.8475 23.7622 12.5253 23.1771 12.2139 22.5922C11.898 21.999 11.584 21.3897 11.2719 20.764C10.9996 20.2329 10.8623 19.7372 10.8599 19.2768C10.866 18.8126 10.9773 18.3872 11.1937 18.0007C11.4142 17.602 11.7313 17.2461 12.1451 16.9329C12.563 16.6076 13.0476 16.3183 13.5988 16.065C14.1331 15.8195 14.66 15.6492 15.1794 15.5541C15.6944 15.4507 16.1851 15.4406 16.6516 15.5236C17.1221 15.5945 17.5579 15.7685 17.9589 16.0457C18.3639 16.3107 18.7174 16.6969 19.0192 17.2042C19.3605 17.7857 19.6915 18.3872 20.012 19.009C20.3411 19.6268 20.6463 20.2197 20.9276 20.7877C21.1956 21.3106 21.3265 21.8042 21.3203 22.2684C21.3142 22.7326 21.1987 23.16 20.9739 23.5504C20.7534 23.9491 20.4384 24.3091 20.029 24.6305C19.624 24.9602 19.1543 25.2478 18.62 25.4933ZM16.9075 18.1745C16.636 17.7045 16.2842 17.4304 15.852 17.3522C15.4153 17.2657 14.9341 17.3433 14.4083 17.5849C13.857 17.8382 13.4902 18.1503 13.3077 18.5212C13.1337 18.8883 13.1655 19.3146 13.403 19.8002C14.0137 21.0064 14.6476 22.1968 15.3048 23.3713C15.5806 23.8496 15.9262 24.1317 16.3415 24.2178C16.7652 24.2999 17.2527 24.2143 17.804 23.961C18.3213 23.7233 18.6712 23.419 18.8537 23.048C19.0403 22.6649 19.0255 22.2308 18.8093 21.7457C18.5402 21.1413 18.2415 20.5506 17.913 19.9735C17.593 19.3925 17.2579 18.7928 16.9075 18.1745Z" fill="white"/>
<path d="M21.905 37.5887C21.7306 37.6689 21.5608 37.6941 21.3957 37.6645C21.2279 37.6296 21.1018 37.5458 21.0176 37.4131C20.8886 37.2219 20.714 37.1044 20.4939 37.0605C20.2709 37.0113 20.004 37.0582 19.6932 37.201C19.0826 37.4815 18.9273 37.9352 19.2272 38.5621C19.428 38.9774 19.6299 39.3757 19.833 39.757C20.0387 40.1305 20.2485 40.5054 20.4625 40.8816C20.6398 41.1891 20.8456 41.378 21.0798 41.4483C21.3141 41.5187 21.5866 41.4824 21.8973 41.3396C22.219 41.1918 22.4183 41.0245 22.4952 40.8375C22.5775 40.6481 22.5646 40.42 22.4565 40.1533C22.3969 40.0159 22.4085 39.8721 22.4914 39.7219C22.5744 39.5718 22.6949 39.4604 22.853 39.3877C23.2782 39.1923 23.6023 39.3038 23.8251 39.7222C23.9407 39.9393 23.9948 40.1683 23.9872 40.409C23.9852 40.6473 23.9241 40.883 23.804 41.1161C23.6839 41.3493 23.5059 41.5695 23.2702 41.7767C23.0427 41.9867 22.76 42.1693 22.4219 42.3247C22.1003 42.4725 21.7821 42.5758 21.4674 42.6347C21.1555 42.6989 20.855 42.7019 20.5661 42.6435C20.2799 42.5904 20.0107 42.4735 19.7584 42.2928C19.5115 42.1096 19.291 41.8484 19.0967 41.5092C18.6434 40.7089 18.2274 39.9278 17.8487 39.1658C17.682 38.8271 17.5978 38.5099 17.5963 38.2139C17.5948 37.918 17.6581 37.6483 17.7863 37.4048C17.9172 37.1535 18.1005 36.9308 18.3365 36.7367C18.5696 36.5373 18.8361 36.3688 19.1359 36.231C19.4685 36.0782 19.795 35.9776 20.1153 35.9293C20.4411 35.8784 20.7416 35.8755 21.0166 35.9205C21.2889 35.9602 21.5289 36.0477 21.7366 36.183C21.947 36.3104 22.1072 36.4774 22.2172 36.6839C22.4343 37.0917 22.3303 37.3933 21.905 37.5887ZM27.9924 39.7651C27.6326 39.9304 27.2817 40.0488 26.9397 40.1202C26.606 40.1945 26.2865 40.2062 25.9812 40.1553C25.6841 40.1072 25.4094 39.9928 25.1571 39.8121C24.9048 39.6314 24.6843 39.3702 24.4955 39.0285C24.2815 38.6522 24.0744 38.2761 23.8742 37.9001C23.6711 37.5188 23.4693 37.127 23.2686 36.7248C23.0936 36.3834 23.0053 36.0647 23.0038 35.7688C23.0077 35.4703 23.0792 35.1969 23.2184 34.9484C23.3601 34.6921 23.564 34.4633 23.83 34.262C24.0986 34.0528 24.4102 33.8669 24.7645 33.704C25.108 33.5462 25.4467 33.4367 25.7806 33.3756C26.1117 33.3091 26.4271 33.3026 26.727 33.356C27.0295 33.4016 27.3096 33.5134 27.5674 33.6916C27.8278 33.862 28.055 34.1103 28.249 34.4364C28.4685 34.8102 28.6812 35.1969 28.8873 35.5966C29.0988 35.9938 29.295 36.3749 29.4759 36.7401C29.6481 37.0762 29.7323 37.3935 29.7284 37.6919C29.7244 37.9904 29.6502 38.2651 29.5056 38.5161C29.3639 38.7724 29.1614 39.0038 28.8982 39.2105C28.6378 39.4224 28.3359 39.6072 27.9924 39.7651ZM26.8915 35.0602C26.717 34.758 26.4908 34.5818 26.213 34.5315C25.9323 34.4759 25.6229 34.5258 25.2849 34.6811C24.9305 34.8439 24.6947 35.0446 24.5774 35.283C24.4655 35.519 24.4859 35.7931 24.6386 36.1052C25.0312 36.8806 25.4387 37.6459 25.8612 38.401C26.0385 38.7084 26.2607 38.8898 26.5276 38.9451C26.8001 38.9979 27.1135 38.9429 27.4678 38.7801C27.8004 38.6272 28.0254 38.4316 28.1427 38.1931C28.2626 37.9469 28.2531 37.6678 28.1141 37.3559C27.9411 36.9674 27.7491 36.5876 27.5379 36.2166C27.3322 35.8431 27.1168 35.4576 26.8915 35.0602ZM30.7354 30.9605C31.0844 30.8001 31.4298 30.6842 31.7718 30.6128C32.1109 30.5361 32.4332 30.5231 32.7385 30.574C33.0465 30.6171 33.3266 30.7289 33.5789 30.9096C33.8367 31.0878 34.0558 31.3464 34.2363 31.6853L35.442 33.9493C35.6253 34.2935 35.715 34.6148 35.7111 34.9133C35.7126 35.2092 35.6384 35.4839 35.4883 35.7374C35.3466 35.9937 35.14 36.2238 34.8685 36.4276C34.5999 36.6367 34.2911 36.8215 33.9422 36.9818L32.2739 37.7484C32.0667 37.8436 31.8804 37.8632 31.7149 37.8074C31.5523 37.7569 31.4244 37.6443 31.3314 37.4695L28.7169 32.5603C28.6379 32.412 28.6302 32.2574 28.6938 32.0963C28.7573 31.9353 28.8845 31.8109 29.0753 31.7233L30.7354 30.9605ZM32.522 36.3984L33.4134 35.9888C33.7623 35.8285 33.9914 35.6343 34.1006 35.4061C34.2152 35.1754 34.1908 34.9065 34.0272 34.5994L32.8215 32.3354C32.6579 32.0282 32.4427 31.847 32.1757 31.7917C31.9113 31.7286 31.6047 31.7772 31.2558 31.9375L30.3644 32.3471L32.522 36.3984ZM34.8039 29.8227C34.6967 29.6215 34.6914 29.4394 34.7878 29.2764C34.8897 29.1109 35.0333 28.9856 35.2187 28.9004C35.3059 28.8604 35.3975 28.8348 35.4934 28.8237C35.5919 28.8048 35.6865 28.8041 35.7773 28.8217C35.8682 28.8393 35.9524 28.8764 36.03 28.933C36.1077 28.9896 36.1733 29.0682 36.2269 29.1689L38.7948 33.9907C38.8512 34.0966 38.8801 34.1954 38.8814 34.2871C38.8856 34.3841 38.8676 34.4714 38.8276 34.5491C38.7903 34.6322 38.7338 34.7043 38.6578 34.7656C38.5901 34.8296 38.5127 34.8817 38.4254 34.9218C38.3328 34.9644 38.2357 34.9925 38.1344 35.0061C38.0359 35.025 37.9371 35.0242 37.838 35.0038C37.7472 34.9862 37.6589 34.9477 37.5729 34.8883C37.4953 34.8317 37.4283 34.7505 37.3718 34.6445L34.8039 29.8227ZM45.1373 31.0072C45.205 31.1343 45.2423 31.249 45.2492 31.3513C45.2562 31.4535 45.2397 31.5435 45.1996 31.6212C45.1624 31.7043 45.1085 31.7752 45.038 31.8339C44.9704 31.898 44.8929 31.95 44.8057 31.9901C44.6258 32.0728 44.4494 32.1176 44.2766 32.1244C44.1067 32.1366 43.9484 32.1006 43.8017 32.0164L39.8634 29.782L41.4541 32.7688C41.5697 32.9859 41.582 33.1747 41.491 33.3352C41.4001 33.4956 41.2673 33.616 41.0929 33.6961C41.0002 33.7387 40.9032 33.7668 40.8018 33.7804C40.7033 33.7993 40.6045 33.7986 40.5055 33.7782C40.4146 33.7606 40.3263 33.7221 40.2404 33.6627C40.1627 33.6061 40.0957 33.5248 40.0393 33.4189L37.4544 28.5653C37.4206 28.5017 37.4004 28.4319 37.3938 28.3558C37.3927 28.2773 37.408 28.1977 37.4397 28.1172C37.4687 28.0314 37.5183 27.9526 37.5886 27.8807C37.6616 27.801 37.7607 27.7324 37.8861 27.6748C38.0006 27.6222 38.1057 27.5838 38.2014 27.5596C38.2971 27.5354 38.3917 27.5282 38.4851 27.538C38.5757 27.5425 38.6721 27.5641 38.7742 27.6029C38.8763 27.6417 38.9909 27.6978 39.1182 27.7711L42.7748 29.8779L41.1842 26.8911C41.077 26.6898 41.0716 26.5077 41.1681 26.3447C41.2699 26.1793 41.4136 26.054 41.5989 25.9688C41.6862 25.9287 41.7777 25.9031 41.8736 25.892C41.9667 25.8756 42.0586 25.8762 42.1494 25.8938C42.2402 25.9114 42.3245 25.9485 42.4021 26.0051C42.4797 26.0617 42.5454 26.1403 42.599 26.241L45.1373 31.0072ZM48.843 25.211C48.6522 25.2987 48.466 25.3315 48.2846 25.3094C48.1058 25.2795 47.9743 25.1982 47.8901 25.0655C47.7556 24.8768 47.5674 24.7655 47.3255 24.7316C47.0861 24.69 46.7975 24.7469 46.4594 24.9022C46.1105 25.0625 45.8788 25.2645 45.7643 25.5083C45.6553 25.7496 45.6744 26.0275 45.8216 26.3422C46.0166 26.7338 46.2157 27.1268 46.419 27.5212C46.6194 27.9103 46.8321 28.2905 47.0569 28.6618C47.2397 28.9667 47.4646 29.1468 47.7315 29.2021C47.9985 29.2574 48.3092 29.2037 48.6636 29.0408C49.0016 28.8855 49.2279 28.6925 49.3426 28.4619C49.4573 28.2312 49.4314 27.9596 49.265 27.6472L48.9858 27.1229L48.2252 27.4724C48.1107 27.525 48.0083 27.5556 47.9178 27.5642C47.8246 27.5675 47.7449 27.558 47.6787 27.5356C47.6097 27.508 47.5515 27.4688 47.5041 27.4181C47.4568 27.3673 47.4176 27.3129 47.3865 27.2546C47.3583 27.2016 47.3383 27.1449 47.3265 27.0845C47.3118 27.0187 47.3136 26.9519 47.3318 26.8842C47.35 26.8165 47.3889 26.7493 47.4483 26.6824C47.5077 26.6156 47.5946 26.5558 47.7091 26.5032L49.312 25.7667C49.6882 25.5939 49.9609 25.6663 50.1301 25.9841L50.6716 27.0009C50.8549 27.3451 50.9446 27.6664 50.9407 27.9649C50.9422 28.2608 50.868 28.5355 50.718 28.789C50.5762 29.0453 50.3696 29.2754 50.0981 29.4792C49.8349 29.6858 49.5316 29.868 49.1881 30.0259C48.8283 30.1912 48.4774 30.3096 48.1354 30.381C47.8017 30.4553 47.4822 30.467 47.1769 30.4161C46.8798 30.368 46.6052 30.2536 46.3528 30.0729C46.1005 29.8922 45.88 29.631 45.6912 29.2893C45.4772 28.913 45.2659 28.5289 45.0572 28.137C44.8485 27.7451 44.6438 27.3481 44.4432 26.9459C44.271 26.6098 44.1868 26.2925 44.1908 25.994C44.1947 25.6956 44.2662 25.4221 44.4053 25.1737C44.5471 24.9174 44.7468 24.6872 45.0045 24.483C45.2595 24.2736 45.5532 24.0925 45.8858 23.9397C46.2565 23.7693 46.6184 23.6525 46.9715 23.5891C47.3246 23.5258 47.6495 23.5116 47.9464 23.5466C48.2404 23.5763 48.4995 23.655 48.7236 23.7827C48.9449 23.9051 49.1105 24.0696 49.2205 24.2762C49.4377 24.6839 49.3119 24.9956 48.843 25.211Z" fill="white"/>
<defs>
<filter id="filter0_d" x="0" y="8.75293" width="32.6174" height="30.8662" filterUnits="userSpaceOnUse" color-interpolation-filters="sRGB">
<feFlood flood-opacity="0" result="BackgroundImageFix"/>
<feColorMatrix in="SourceAlpha" type="matrix" values="0 0 0 0 0 0 0 0 0 0 0 0 0 0 0 0 0 0 127 0" result="hardAlpha"/>
<feOffset dy="4"/>
<feGaussianBlur stdDeviation="2"/>
<feComposite in2="hardAlpha" operator="out"/>
<feColorMatrix type="matrix" values="0 0 0 0 0 0 0 0 0 0 0 0 0 0 0 0 0 0 0.25 0"/>
<feBlend mode="normal" in2="BackgroundImageFix" result="effect1_dropShadow"/>
<feBlend mode="normal" in="SourceGraphic" in2="effect1_dropShadow" result="shape"/>
</filter>
<filter id="filter1_d" x="18.4785" y="0" width="32.6174" height="30.8662" filterUnits="userSpaceOnUse" color-interpolation-filters="sRGB">
<feFlood flood-opacity="0" result="BackgroundImageFix"/>
<feColorMatrix in="SourceAlpha" type="matrix" values="0 0 0 0 0 0 0 0 0 0 0 0 0 0 0 0 0 0 127 0" result="hardAlpha"/>
<feOffset dy="4"/>
<feGaussianBlur stdDeviation="2"/>
<feComposite in2="hardAlpha" operator="out"/>
<feColorMatrix type="matrix" values="0 0 0 0 0 0 0 0 0 0 0 0 0 0 0 0 0 0 0.25 0"/>
<feBlend mode="normal" in2="BackgroundImageFix" result="effect1_dropShadow"/>
<feBlend mode="normal" in="SourceGraphic" in2="effect1_dropShadow" result="shape"/>
</filter>
<filter id="filter2_d" x="8.75391" y="17.5059" width="51.3932" height="39.4935" filterUnits="userSpaceOnUse" color-interpolation-filters="sRGB">
<feFlood flood-opacity="0" result="BackgroundImageFix"/>
<feColorMatrix in="SourceAlpha" type="matrix" values="0 0 0 0 0 0 0 0 0 0 0 0 0 0 0 0 0 0 127 0" result="hardAlpha"/>
<feOffset dy="4"/>
<feGaussianBlur stdDeviation="2"/>
<feComposite in2="hardAlpha" operator="out"/>
<feColorMatrix type="matrix" values="0 0 0 0 0 0 0 0 0 0 0 0 0 0 0 0 0 0 0.25 0"/>
<feBlend mode="normal" in2="BackgroundImageFix" result="effect1_dropShadow"/>
<feBlend mode="normal" in="SourceGraphic" in2="effect1_dropShadow" result="shape"/>
</filter>
</defs>
</svg>
