<svg width="37" height="36" viewBox="0 0 37 36" fill="none" xmlns="http://www.w3.org/2000/svg">
<path d="M15.7247 5.40039C17.6585 5.40007 19.5525 5.93597 21.1845 6.94531C22.8166 7.95465 24.1193 9.39562 24.9399 11.0994C25.7605 12.8032 26.0651 14.6993 25.818 16.5654C25.5709 18.4316 24.7823 20.1906 23.5446 21.6364L31.1796 29.0632C31.3435 29.2219 31.4403 29.4346 31.451 29.6594C31.4617 29.8841 31.3854 30.1046 31.2373 30.2774C31.0892 30.4502 30.88 30.5628 30.6508 30.5929C30.4216 30.623 30.1892 30.5685 29.9993 30.4402L29.8698 30.3376L22.2367 22.909C20.9809 23.9261 19.4918 24.6341 17.8954 24.9729C16.2989 25.3118 14.6421 25.2715 13.065 24.8557C11.488 24.4398 10.037 23.6605 8.83494 22.5836C7.63286 21.5068 6.71499 20.1641 6.15897 18.6692C5.60296 17.1743 5.42515 15.571 5.64059 13.9951C5.85603 12.4191 6.45837 10.9169 7.39668 9.61532C8.33499 8.31377 9.58166 7.25123 11.0312 6.51757C12.4808 5.78391 14.0907 5.40072 15.7247 5.40039ZM15.7247 7.20039C13.5167 7.20039 11.3993 8.05378 9.83801 9.57282C8.27677 11.0919 7.39968 13.1521 7.39968 15.3004C7.39968 17.4486 8.27677 19.5089 9.83801 21.028C11.3993 22.547 13.5167 23.4004 15.7247 23.4004C17.9326 23.4004 20.0501 22.547 21.6113 21.028C23.1726 19.5089 24.0497 17.4486 24.0497 15.3004C24.0497 13.1521 23.1726 11.0919 21.6113 9.57282C20.0501 8.05378 17.9326 7.20039 15.7247 7.20039Z" fill="#607D8B"/>
</svg>
